<?xml version="1.0" standalone="no"?>
<!DOCTYPE svg PUBLIC "-//W3C//DTD SVG 1.1//EN" "http://www.w3.org/Graphics/SVG/1.1/DTD/svg11.dtd" >
<svg xmlns="http://www.w3.org/2000/svg" xmlns:xlink="http://www.w3.org/1999/xlink" version="1.1">
<metadata>
Created by FontForge 20200427 at Thu Feb  2 02:46:31 2012
 By www
Copyright (c) 2011 by SpideRaY @ www.windowstipsclub.com. All rights reserved.
</metadata>
<defs>
<font id="GARFIELDtheCAT" horiz-adv-x="833" >
  <font-face 
    font-family="GARFIELD the CAT"
    font-weight="400"
    font-stretch="normal"
    units-per-em="1000"
    panose-1="2 0 0 0 0 0 0 0 0 0"
    ascent="800"
    descent="-200"
    x-height="539"
    cap-height="758"
    bbox="-54 -274 1218 972"
    underline-thickness="50"
    underline-position="-100"
    unicode-range="U+0020-2122"
  />
<missing-glyph horiz-adv-x="500" 
 />
    <glyph glyph-name=".notdef" horiz-adv-x="500" 
 />
    <glyph glyph-name="space" unicode=" " horiz-adv-x="500" 
 />
    <glyph glyph-name="registered" unicode="&#xae;" horiz-adv-x="1270" 
d="M118 46q9 0 18 -0.5t17 -3.5t13 -9t5 -18q0 -10 -4.5 -15t-11 -7t-14.5 -3t-15 -3q-8 -3 -8 -7.5v-9.5t-3.5 -8.5t-19.5 -3.5v88h23zM265 46q3 0 7.5 -3.5t6.5 -7.5v-4q0 -2 0.5 -3.5t0.5 -2.5q0 -3 -0.5 -8.5t-0.5 -7.5q0 -1 -2 -4.5t-2 -4.5l2 -4l2 -4q1 -2 2.5 -9.5
t2.5 -9.5v-1q0 -9 -3.5 -11t-11.5 -2t-10 5t-3.5 11.5t-4.5 11.5t-13 5h-4q0 -3 -1.5 -13.5t-2.5 -14.5q-2 -4 -5.5 -4.5t-6.5 -0.5q-2 0 -9 0.5t-7 4.5v82h63zM324 3q0 23 14 33t34 10q23 0 30 -10t12 -31v-2q0 -17 -12 -30.5t-28 -13.5q-23 0 -36.5 10.5t-13.5 33.5z
M440 26q1 2 1 5q0 7 1 10q1 0 1 1t1 2l2 2h78q0 -3 -2 -10t-4 -9q-1 -1 -8.5 -2t-9.5 -1q-1 -2 -3.5 -3t-2.5 -3v-60q-3 0 -10.5 0.5t-9.5 1.5q-1 0 -5 2q-2 1 -3 2v62h-26zM559 46h67v-16h-35q-1 0 -2.5 -2t-2.5 -4v-3v-3q0 -1 2 -2.5t3 -1.5t5.5 -1t9.5 -2t10 -1.5t7 -0.5
v-2v-2q-1 -2 -1.5 -3.5t-1.5 -3.5l-2 -4h-32v-14h40v-20h-67v86zM667 1q0 20 12.5 34.5t32.5 14.5q14 0 26.5 -8.5t13.5 -23.5q-1 0 -4.5 -0.5t-5.5 -0.5q-11 0 -15 5.5t-15 5.5q-12 0 -15.5 -9t-3.5 -20q0 -8 4.5 -14.5t14.5 -6.5q5 0 8 2t5.5 5t5.5 5t8 2h7.5t5.5 -5
q-2 -17 -14.5 -22.5t-26.5 -5.5q-19 0 -31.5 11t-12.5 31zM804 24q-6 0 -15.5 1.5t-9.5 9.5q0 4 0.5 7.5t4.5 3.5h72v-20h-24v-68q-2 0 -10 0.5t-10 1.5q-1 0 -5 2q-2 1 -3 2v60zM920 46v-82l-2 -2l-2 -2q-2 -1 -9 -1.5t-10 -0.5v88h23zM960 3q0 43 46 43q20 0 32.5 -10
t12.5 -33q0 -20 -11.5 -32t-31.5 -12q-21 0 -34.5 10.5t-13.5 33.5zM1100 46q7 0 13.5 -4.5t11.5 -11t9 -13.5t7 -12h7v41h20q0 -3 0.5 -10t1.5 -15t1.5 -15.5t0.5 -10.5v-15v-16q-1 -5 -6 -5h-7q-8 0 -14 5t-11.5 12t-10.5 14t-11 10v-40h-20v86h8zM352 -8q1 -1 5.5 -6.5
t7.5 -7.5h2h3q3 1 6 3q6 4 6 6v31q0 2 -3 5.5t-5 3.5h-2q-1 0 -2.5 0.5t-2.5 0.5q-11 0 -13 -8.5t-2 -18.5v-9zM988 3q0 -8 5 -16.5t15 -8.5q8 0 12.5 9t4.5 16q0 8 -3 16.5t-14 8.5q-10 0 -15 -8.5t-5 -16.5zM130 28q-9 0 -10 -6.5t-1 -13.5q8 0 16.5 0.5t8.5 11.5
q0 5 -4.5 6.5t-9.5 1.5zM230 21q0 -13 11 -13q5 0 10.5 3t5.5 10q0 5 -7 6t-9 1q-4 0 -7.5 -1t-3.5 -6zM52 269q0 38 11 70t40 58q1 1 8 6.5t10 7.5q1 2 7 4.5t7 4.5v3v2q-40 35 -65.5 85t-25.5 104q0 30 14.5 57.5t31.5 50.5q1 2 7 11t12.5 18.5t12.5 18.5t8 11
q32 43 76.5 75.5t95.5 55t105.5 34t106.5 11.5q45 0 82 -3.5t80 -18.5q1 -1 7 -3.5t14 -6.5t16 -7.5t13 -6.5q6 -3 18.5 -9t25.5 -12.5l24 -12t14 -6.5q1 0 6.5 -3.5t11.5 -7t11 -7t7 -4.5q1 0 4 -2t4 -2h3q6 0 10 3.5t8.5 7.5t9 7.5t10.5 3.5q8 0 9 -4q0 -2 2.5 -8t4.5 -13
t4.5 -13t2.5 -7q0 -2 5 -14t7 -17q1 -2 2 -3.5t2 -3.5t2 -3h1h4q2 0 10 2q4 1 7 2q1 2 2.5 11t1.5 11q1 6 3 17.5t5.5 23t9 20t14.5 8.5h4q24 -20 42.5 -42.5t35.5 -48.5q0 -1 2 -6t2 -7l4 -4t4 -5q1 -1 6 -5t10.5 -8.5t10 -8.5t5.5 -5q4 -4 12 -11.5l16 -15t14.5 -14
t7.5 -8.5q14 -17 20.5 -41.5t11.5 -44.5q-1 -2 -1 -3v-3h16q-1 -1 -1 -2t-1 -1q-1 -2 -6.5 -5.5t-6.5 -3.5l-5 -5q0 -2 1.5 -9t1.5 -9h20v-5q-5 -1 -16.5 -3.5t-15.5 -10.5q-1 -1 -4 -10.5t-4 -10.5q0 -1 -2.5 -3t-3.5 -2v-2q0 -5 5 -7t9 -2v-3q-3 1 -11.5 -0.5t-10.5 -3.5
q-2 -1 -7.5 -9t-7.5 -10q-1 -1 -8.5 -8t-8.5 -9v-5v-5q1 -3 3.5 -8.5t5.5 -11t5.5 -10.5t2.5 -6q1 -1 6.5 -5.5t11 -9.5t10 -10t4.5 -7q1 -1 6.5 -16t7.5 -24v-1v-3q0 -1 -2 -3l-2 -2h-82l-3.5 5t-9.5 11.5t-14.5 11.5t-19.5 5q-3 0 -9.5 -1.5t-13 -4.5t-11.5 -7t-5 -9
q0 -12 13.5 -19t34.5 -12.5t44.5 -11.5t44.5 -17t34.5 -29t13.5 -46q0 -31 -12.5 -52t-32.5 -34t-45.5 -19t-51.5 -6q-27 0 -53.5 6.5t-47.5 20t-34 35t-13 52.5h96q1 -13 8.5 -24.5t19.5 -16.5q2 0 11 -0.5t12 -0.5q7 0 15 0.5t15 3t11.5 7.5t4.5 15q0 15 -18 24.5t-42 16
t-47.5 11.5t-33.5 13q-3 2 -14 12.5t-14 14.5q-2 2 -5 9.5t-3 9.5q0 3 -1 10.5t-2 16t-2 16.5t-1 11q-4 -3 -5.5 -8t-2.5 -9h-88v-235h-100v238h-89v70q-18 0 -30.5 -3t-31.5 -8v-10l104 -287h-99q0 1 -1 3t-4 5q0 2 -4 11t-5 11t-1 3t-1 3l-2 4h-103l-14 -40h-97l88 238
q1 5 -3.5 4t-5.5 -1q-18 0 -39 -3t-38 -5v-32h-91q-1 4 -5.5 15t-6.5 13q-8 11 -20.5 14.5t-23.5 3.5q-17 0 -29 -8.5t-19 -21.5t-10 -28.5t-3 -29.5q0 -16 3 -32t10 -28.5t19 -20.5t31 -8q25 0 36.5 13t17.5 38h91q4 0 4 -6v-1q0 -27 -12.5 -50t-32 -39.5t-44.5 -26
t-50 -9.5q-82 0 -125.5 45t-43.5 125zM492 222h55q0 4 -3 18.5t-7.5 31t-9.5 29.5t-9 15l-26 -80v-14zM66 616q0 -21 5.5 -43.5t15 -43.5t23 -40t28.5 -33q2 -1 9 -6.5t15 -12t15.5 -13t11.5 -9.5q25 -19 59 -32q21 -6 44 -12t47 -6q28 0 52.5 4.5t48 12t47 16t50.5 17.5
q35 12 73 24t76 12q56 0 99.5 -19t89.5 -49q1 0 2 -1q0 -1 2 -1q1 0 1 -1h30q5 0 9.5 9.5t4.5 14.5q0 12 -9 20t-18 13q-5 4 -17 10.5t-15 8.5q-5 3 -16.5 8.5t-24.5 12t-24.5 12t-15.5 8.5q-2 2 -7 3t-7 1h-5.5h-9.5h-10h-6q-1 1 -6 4.5t-7 3.5q-13 5 -28 5.5t-28 0.5
q-63 0 -123.5 -17t-118.5 -37q-24 -8 -47 -18t-49 -10q-27 0 -48.5 5t-40 15.5t-34.5 25.5t-33 36q-14 16 -26 38t-12 42v14q3 -2 6.5 -8.5t4.5 -8.5q0 -2 1.5 -7.5t1.5 -6.5q20 -38 51 -69.5t72 -47.5h44h41q12 0 32 5t40.5 12.5t38.5 17t26 19.5q3 4 9 12.5t12.5 17
t11.5 15.5t7 9q13 20 22 36t9 39q0 13 -5 27t-13 27.5t-17.5 25.5t-18.5 21v5h4q1 0 6.5 -5t13 -12.5t14.5 -15t12 -12.5q1 -1 5.5 -10t7.5 -14q2 -2 5.5 -9t3.5 -8q4 -11 4.5 -17.5t0.5 -17.5q0 -13 -5.5 -26t-13 -25t-16.5 -23.5t-16 -21.5l-3 -4q-2 -2 -2 -5.5v-4.5h6
t5 1q1 0 8 1t14.5 2.5t14 3t8.5 2.5q7 1 27 2t42.5 2.5t42 2.5t27.5 1q4 5 9 6t5 7q0 8 -3 18t-11 15l-4 2l-4 2q0 1 1 2t1 3h11q8 27 20 53t35 46q8 1 8 -10v-3q-1 -2 -7 -9.5t-7 -9.5q-3 -6 -7 -14.5t-7.5 -18t-6 -19t-2.5 -15.5q36 0 72 -2.5t74 -6.5q5 -1 7 -2.5t2 -7.5
q0 -7 -6 -10.5t-13 -3.5q-12 0 -25.5 6.5t-27.5 7.5q-2 0 -11 0.5t-19.5 1.5t-21 1.5t-16.5 1.5h-14q0 -7 1 -14t3 -12h4q23 0 46 4t46 4h13q0 -6 3 -8t6 -3l6 -2t3 -5q0 -11 -13 -13q-1 -1 -6 -1.5t-10 -1.5t-10 -1.5t-6 -1.5q-2 0 -7.5 -1.5t-11.5 -2.5t-11 -2.5t-6 -1.5
t-2.5 -2t-1.5 -4q10 -5 28.5 -13.5t37.5 -19t35.5 -21.5t24.5 -21h103q2 0 12.5 3.5t15.5 5.5q2 1 8.5 4t8.5 4l4 -4q2 -2 -1.5 -6.5t-6.5 -6.5q-4 -3 -18 -10l-18 -9q7 -8 20 -15.5t23 -7.5h1q2 0 3 1q2 0 3 1q1 0 2.5 3t1.5 5q2 -1 5.5 -2.5t4.5 -2.5h2q6 0 8.5 5.5
t2.5 10.5q0 8 -4 13.5t-8.5 10.5t-8 10t-3.5 11q0 4 6 7.5t13.5 7.5t15 8.5t11.5 10.5q0 4 -12 5t-26 1.5t-27 2.5t-16 8q-1 3 1 7.5t2 5.5q20 0 37.5 -6.5t36.5 -6.5q13 0 18.5 10.5t8.5 21.5q-2 0 -8.5 0.5t-7.5 0.5q-17 0 -35 -4.5t-35 -4.5h-4q-3 0 -9 2q-3 1 -5 2
q-1 2 2 7.5t3 7.5q3 0 9 -0.5t13 -0.5h13t9 1q3 0 11 0.5t16.5 1t16.5 1t11 0.5l2.5 2.5t1.5 2.5q0 2 1 9.5t1 9.5q-28 0 -54.5 -5t-54.5 -5q-2 0 -8.5 3.5t-6.5 8.5q0 4 4.5 6.5t10.5 3.5t12 1h9q15 0 29.5 -2.5t30.5 -2.5h10.5t12 1.5t9.5 4.5t4 10v2q0 1 -2.5 6.5
t-3.5 7.5q-1 3 -3 8.5t-4 11.5l-3.5 10.5t-1.5 5.5q-4 5 -8.5 15t-5.5 11q0 1 -4.5 3t-4.5 3q-1 1 -5 5.5t-9 9.5t-9 10t-5 6q-1 2 -8 7t-9 6q-5 2 -18.5 9.5t-18.5 9.5q2 9 -3.5 21.5t-14.5 25t-18.5 23.5t-16.5 16h-2h-4l-8 -19v-58q-3 0 -9 -1t-13.5 -2t-14 -2t-9.5 -1
q-1 0 -6.5 -1.5t-7.5 -1.5q0 -1 -1 -1q-1 -1 -3 -1q-6 0 -8 5t-7.5 15.5t-6.5 12.5q-4 9 -8 26.5t-14 23.5q-6 -5 -14 -17.5t-16.5 -26t-16 -24t-12.5 -10.5q0 1 -0.5 4t-0.5 4q0 15 9 29.5t9 25.5v1q0 1 -1.5 2t-2.5 3q-31 22 -60.5 40t-66.5 31q-5 2 -15 5.5t-21 7.5
t-20 7t-11 4q-30 7 -65 10t-66 3q-66 0 -135.5 -19t-125.5 -54q-29 -17 -55.5 -44t-48.5 -50q-1 -1 -5.5 -7t-10 -13t-10.5 -13t-6 -8q-17 -23 -31.5 -50t-14.5 -56zM893 515q6 -8 12.5 -9.5t14.5 -1.5q17 0 25 13.5t8 30.5q0 7 -3 10.5t-6.5 5t-6.5 3.5t-3 6q0 11 7.5 20
t18.5 9q6 0 12.5 -2.5t6.5 -10.5v-2q-2 -1 -3 -4.5t-2 -4.5v-3v-2q1 0 2 -3.5t3 -5.5v-2v-2q-2 -2 -3 -4l-2 -4q1 -2 5 -7.5t4 -7.5l6.5 -13t6.5 -15q4 -5 7 -4t10 1q11 0 11.5 2.5t8.5 2.5q0 -12 -10 -20t-21 -8q-14 0 -23 8t-19 18q0 -2 -3.5 -10.5t-5.5 -10.5
q-2 -5 -7 -5h-10q-14 0 -23.5 4.5t-17.5 18.5v3v6zM735 533q16 -2 31 -8t30 -6q3 0 15 2.5t24.5 7t22.5 9t10 9.5h-6q-7 0 -25 -2t-38 -4.5t-38.5 -4.5t-25.5 -3zM974 666q0 21 20 21q8 0 14.5 -6.5t6.5 -14.5q0 -1 -1 -2q-1 -3 -4 -8t-4 -7h-8q-8 0 -16 3.5t-8 13.5z
M893 671q0 8 5 12t13 4t15.5 -5t7.5 -13q0 -10 -8 -12.5t-16 -2.5q-17 0 -17 17zM1002 667v11h-6z" />
    <glyph glyph-name="trademark" unicode="&#x2122;" horiz-adv-x="645" 
d="M565 378q-6 -18 -44 -18q-14 0 -16 4q-5 62 -11 169q-1 2 -2 2t-3 -2l-40 -81q-24 -48 -26 -50q-7 -12 -18 -12q-18 -1 -24 8t-15 28q-22 51 -41 90q-22 -112 -37 -136q-10 -21 -31 -20q-19 -1 -23 10q11 106 62 311q4 4 21 6t22 -2q23 -47 63 -155q60 102 108 161
q17 2 25 2q20 0 26 -16q2 -7 2 -34q0 -14 4 -133q3 -82 -2 -132zM228 697q2 -15 2 -30q0 -16 -2 -31q-24 0 -73 -4q-4 -2 -6 -24l-27 -252q-4 -4 -20 -4l-23 3q-2 1 -3 2q-9 107 2 259l1 14l-33 1q-47 1 -45 15l6 50q56 3 118 3q50 0 103 -2z" />
    <glyph glyph-name="P" unicode="P" horiz-adv-x="645" 
d="M10 838v27q2 4 12.5 14.5t14.5 12.5q6 3 21.5 7.5t32.5 9t32.5 7.5t21.5 3q12 1 43 1.5t65.5 0.5t65 -0.5t42.5 -1.5q4 0 18.5 -3t31.5 -7.5t33.5 -9t24.5 -7.5q4 -1 12.5 -4.5t17 -8t16 -8.5t9.5 -6l10.5 -10.5t16 -16.5t16.5 -16.5t11 -10.5q1 -2 4.5 -9.5t7.5 -16
t8.5 -16.5t6.5 -12q3 -7 7.5 -20l9 -26t7.5 -23t3 -12q1 -9 1 -32.5v-49v-48.5t-1 -32q-6 -36 -12 -61.5t-17.5 -46t-30 -39.5t-48.5 -43q-6 -4 -30 -16t-51.5 -25.5t-51.5 -25t-30 -14.5q-3 -2 -7.5 -6t-9 -8.5t-7.5 -8t-3 -4.5v-216q0 -2 -3 -6t-7.5 -8.5t-9 -8t-7.5 -4.5
q-4 -1 -15.5 -1.5t-25 -0.5t-25 0.5t-15.5 1.5q-4 2 -14.5 12.5t-12.5 14.5zM280 514q1 -8 4.5 -27.5t8 -41.5t8.5 -41t6 -26q1 -1 5 -1.5t8.5 -0.5t8.5 0.5t5 1.5q8 3 24.5 11t34 16.5t31.5 16t18 10.5q7 4 18.5 13.5t21 21t14.5 24t0 23.5q-14 30 -34.5 42t-45 15
t-52.5 0.5t-57 -3.5q-2 0 -6 -3t-8.5 -7.5t-8 -9t-4.5 -7.5v-27z" />
    <glyph glyph-name="R" unicode="R" horiz-adv-x="609" 
d="M108 0q-2 6 -6 24.5t-8.5 40t-8 41.5t-4.5 29q-3 23 -7.5 70t-10 106t-11.5 123.5t-11 123t-9 104.5t-5 68q-1 10 -1.5 37t-0.5 57.5t0.5 57.5t1.5 37q9 1 32 1.5t49 0.5t49 -0.5t32 -1.5q46 -10 81 -20.5t62.5 -22.5t51 -27t47.5 -35.5t50 -47.5t60 -63
q23 -44 37.5 -102.5t7.5 -119.5t-42.5 -117t-111.5 -94l163 -243q1 -1 -2 -4.5t-7 -8t-9 -8.5t-9 -6q-5 -2 -15 -2t-12 2q-4 2 -18.5 12t-32 23t-34 26t-24.5 20q-11 9 -38 32t-57 49t-57 49t-37 32l-40 -27v-243q0 -2 -7.5 -3t-18 -1t-22.5 1t-20 3q-4 2 -14.5 12.5
t-12.5 14.5zM243 378h216q14 0 20.5 14.5t8.5 33.5t0.5 37t-2.5 24q-20 33 -47 51.5t-58.5 26t-66.5 7t-71 -3.5v-190z" />
    <glyph glyph-name="O" unicode="O" horiz-adv-x="746" 
d="M194 54q-42 32 -78.5 72t-56.5 90q-1 4 -5 15.5t-8.5 24.5t-8.5 24.5t-5 16.5q-3 10 -7.5 27.5t-9 34.5t-7.5 30.5t-3 15.5q-1 13 -1.5 44.5t-0.5 66t0.5 65t1.5 41.5q0 2 3 12t7.5 23l9 26t7.5 20q1 3 4.5 10.5t8 16.5t8.5 16.5t6 10.5q20 45 54.5 74.5t77 46.5t90.5 21
t95 -2t91 -21.5t79 -37.5q4 -3 15 -14t24 -23.5t25 -25t17 -18.5q4 -5 12 -16.5t16.5 -24.5t16 -24t9.5 -16q38 -76 51 -155t3 -170q0 -2 -3 -12t-7.5 -23l-9 -26t-7.5 -20q-1 -3 -4.5 -10.5t-8 -16.5t-8.5 -16.5t-6 -10.5q-4 -6 -12.5 -18.5l-17 -25t-15.5 -23.5t-9 -14
q-3 -4 -10.5 -12.5t-16.5 -17t-16.5 -15.5t-10.5 -9q-36 -30 -73 -42.5t-77 -15t-83 0.5t-92 3q-3 0 -10.5 3t-16.5 7.5t-16.5 9t-10.5 7.5zM167 459q24 -31 42 -49.5t38 -27t45.5 -9t63.5 4.5q3 1 10.5 4.5t16.5 8t16.5 8.5t10.5 6q46 35 70.5 60.5t35 53.5t10 64t-6.5 93
q0 3 -3 10.5t-7.5 16.5t-9.5 16.5t-8 10.5t-10.5 7.5t-16 9t-16.5 7.5t-11 3q-56 6 -92 7t-64 -9.5t-54 -35.5t-60 -70q-21 -32 -27 -64t0 -72q1 -3 4.5 -10.5t8 -16t8.5 -16.5t6 -11z" />
    <glyph glyph-name="D" unicode="D" horiz-adv-x="678" 
d="M125 -27q-3 15 -9.5 46.5t-14.5 71t-17 83.5t-17 84.5t-14 72t-9 47.5q-5 27 -13.5 74t-17 94.5t-15.5 85t-8 44.5q-1 8 -1.5 21t-0.5 26t0.5 23t1.5 11q2 2 12 6t23 8.5t26 8t20 4.5q8 1 30.5 1.5t48.5 0.5t49.5 -0.5t33.5 -1.5q61 -3 119.5 -16.5t111 -40t97 -66
t78.5 -93.5q2 -2 6 -15.5t8.5 -30.5t8 -34.5t4.5 -27.5q1 -5 1 -16.5v-24.5v-24.5t-1 -16.5t-4.5 -20t-8 -32t-8.5 -33t-6 -23q-1 -4 -4.5 -12t-8 -16.5t-8.5 -16t-6 -9.5q-43 -51 -79.5 -85t-75.5 -59.5t-86 -48t-111 -50.5q-7 -3 -23 -7.5t-33 -9t-32 -7.5t-20 -3
q-6 0 -16.5 10.5t-10.5 16.5zM206 108q2 -4 12.5 -14.5t14.5 -12.5q2 -2 12.5 -2t14.5 2q55 27 112.5 55.5t102 65.5t69 86t14.5 117q-6 11 -19 24.5t-28 25.5t-31.5 21t-30.5 11q-14 1 -48.5 1h-73h-73t-48.5 -1q-4 -2 -14.5 -12.5t-12.5 -14.5q-1 -2 -1.5 -12.5
t-0.5 -23.5t0.5 -26t1.5 -20q1 -10 3 -31t4.5 -47.5t5.5 -56t5.5 -56t5 -48t3.5 -31.5z" />
    <glyph glyph-name="U" unicode="U" horiz-adv-x="676" 
d="M162 27q-3 2 -10.5 12t-16.5 23t-16.5 26t-10.5 20q-2 4 -6 15.5t-8.5 24.5t-8 24.5t-4.5 16.5t-4.5 29.5t-8 54.5t-8.5 59.5t-6 45.5q-2 15 -5 38t-6 49t-5.5 52.5t-5 48.5t-4 37t-1.5 19q-1 19 -2 46.5t-1.5 57t-0.5 59t0.5 53t1.5 38.5t2 16l27 27l257 -32v-644
q0 -2 5 -12l11.5 -23l13 -26t10.5 -20q5 -6 15 -16.5t12 -10.5q6 -1 18.5 -1.5t25.5 -0.5t23.5 0.5t13.5 1.5q1 0 8 6t15.5 15l17 18t13.5 15q5 5 12 14t13.5 17.5t11 15t4.5 7.5v622q2 1 7.5 1.5t12.5 0.5t13 -0.5t8 -1.5q6 -2 15 -6t18 -8.5t15 -8t6 -4.5v-649q0 -2 -3 -9
t-7.5 -15.5l-9 -17t-7.5 -12.5q-5 -7 -20 -23t-32.5 -33t-33.5 -32t-23 -20q-2 -2 -9 -6t-15.5 -8.5t-17 -8t-12.5 -4.5q-7 -2 -22.5 -6t-33 -8.5t-32.5 -8t-20 -4.5q-6 -1 -18.5 -1.5t-25 -0.5t-23.5 0.5t-14 1.5q-7 2 -23 9t-33 15.5t-32 17t-20 12.5z" />
    <glyph glyph-name="C" unicode="C" horiz-adv-x="624" 
d="M67 135q-1 2 -5 9.5t-8.5 16t-8.5 16.5t-5 12q-3 7 -7.5 20l-9 26t-7.5 23t-3 12q-1 12 -1.5 37.5t-0.5 57.5v67.5v67.5t0.5 57.5t1.5 37.5q0 5 3 16.5t7.5 24.5t9 24.5t7.5 15.5q20 25 36.5 41.5t34 28.5t39 21t52.5 17q42 3 78.5 3.5t71 -2.5t70.5 -9.5t77 -18.5
q9 -3 23 -7.5t27 -9.5q15 -5 32 -10v-298q-14 1 -48.5 1.5t-73.5 0.5t-73.5 -0.5t-48.5 -1.5q-5 0 -16.5 -3t-24.5 -7t-24.5 -9t-15.5 -8q-3 -2 -10.5 -9t-16.5 -15.5t-16.5 -17t-10.5 -12.5q-14 -23 -25 -51.5t-2 -56.5q2 -3 9.5 -10.5t16 -16.5t16.5 -16.5t12 -10.5
q7 -5 23 -13.5t33 -17t32 -15.5t20 -8q13 -3 47.5 -7.5t73.5 -9t74 -7.5t49 -3q4 -2 14.5 -12.5t12.5 -14.5q1 -3 1 -10.5v-16.5v-16.5t-1 -10.5q-138 -4 -230.5 3.5t-151 21t-89 29t-43.5 27.5z" />
    <glyph glyph-name="E" unicode="E" horiz-adv-x="636" 
d="M167 54q-1 1 -5.5 17t-12 42t-16 58.5t-17.5 65t-17 62.5t-13 52q-9 37 -23 92t-27 107q-15 61 -31 126l27 27q1 1 25 7.5t61.5 16.5t84.5 22t95 23.5t91.5 21.5t74.5 17q6 1 15.5 1.5t18.5 0.5t15 -0.5t6 -1.5l54 -216q0 -1 -6 -4.5t-15 -8t-18 -8.5t-15 -6t-25 -8.5
t-44 -15t-53 -17.5t-53 -17.5t-44 -15t-25 -8.5q-3 -1 -10.5 -4.5t-16.5 -7.5t-16.5 -8.5t-10.5 -6.5q-2 -1 -6 -5l-8.5 -8.5t-8 -8.5t-4.5 -5q-2 -2 -2 -12t2 -15q2 -8 6.5 -21t8.5 -26t7.5 -23t4.5 -11q2 -1 12.5 -1.5t23 -0.5t25.5 0.5t20 1.5t27.5 5.5t48.5 10t59.5 12
t59.5 12t48.5 9.5t27.5 5h27v-108q-14 -1 -49 -4.5t-74 -7.5t-73.5 -8.5t-47.5 -6.5q-11 -2 -29 -6t-35 -8.5t-30 -8t-14 -4.5q-2 -2 -3 -12t-1 -23t1 -26t3 -20q1 -4 4.5 -11t8 -13.5t8.5 -11t6 -4.5h352v-95h-406l-54 54v0z" />
    <glyph glyph-name="B" unicode="B" horiz-adv-x="734" 
d="M81 189q-1 7 -3 39t-4.5 78.5t-5.5 102t-5.5 110.5t-5 103.5t-3.5 80.5v54q2 4 12.5 14.5t14.5 12.5q54 6 112.5 10.5t112 -4t97.5 -34.5t70 -80v-217q10 -3 35.5 -13.5t53.5 -23.5t53 -25.5t34 -18.5q40 -17 58.5 -45.5t21.5 -62t-5 -69t-21 -66.5q-2 -4 -12.5 -15.5
t-23.5 -24t-25.5 -24.5t-19.5 -17q-8 -6 -24.5 -15t-34 -18t-32 -15t-18.5 -6h-405q-1 0 -4.5 21.5t-8 51.5t-8.5 62.5t-6 53.5zM200 133q49 -6 88.5 -12t76.5 -7.5t75.5 2t86.5 17.5q7 6 16.5 13.5t17 16.5t11.5 19t1 21q-1 4 -4 11t-7 14.5t-7.5 13.5t-4.5 7q-3 4 -9.5 11
t-14 14.5l-14 14t-9.5 8.5q-6 3 -19.5 10t-28.5 14.5t-28 13.5t-17 8q-5 1 -23 4.5t-40.5 7.5t-44 7t-32.5 4q-3 1 -13 1.5t-21.5 0.5t-21.5 -0.5t-14 -1.5v-233zM189 541q-1 -3 -1.5 -11t-0.5 -16.5t0.5 -16.5t1.5 -11q6 -1 21.5 -1.5t32.5 -0.5t32.5 0.5t21.5 1.5
t18.5 4.5t25 8t23.5 9t14 6.5q2 2 2 12t-2 15q-2 6 -12 16.5t-15 10.5q-7 1 -26 1h-40.5h-41t-27.5 -1q-2 0 -6 -3t-8.5 -7.5t-8 -9t-4.5 -7.5z" />
    <glyph glyph-name="Y" unicode="Y" horiz-adv-x="679" 
d="M123 -54q-4 3 -12.5 10.5t-17 16.5t-15.5 16.5t-9 10.5q-2 2 -2 12.5t2 14.5q1 2 4.5 9.5t8 16t8.5 16.5l6 12l15 25t25.5 43t25.5 42.5t15 24.5t7.5 14t9 17.5t7.5 15t3 7.5q1 3 1.5 10.5t0.5 16.5t-0.5 16.5t-1.5 10.5t-4.5 11t-7.5 16.5t-8.5 16t-6.5 10.5
q-4 6 -16.5 22.5t-29 38.5t-35.5 47.5t-35.5 47.5t-29 38.5t-16.5 22.5q-2 3 -6 10.5t-8.5 16.5t-8 16.5t-4.5 10.5q-1 1 -1.5 5t-0.5 8.5t0.5 8.5t1.5 5l4.5 9t8 15.5t8.5 17t6 12.5q4 8 15.5 27.5t24.5 41t24.5 40.5t16.5 26q5 2 14 2t13 -2q1 0 4.5 -3t8 -7.5t8.5 -9
t6 -7.5q7 -9 22.5 -27.5t34 -42.5t39 -50.5t39 -50.5t33 -43.5t21.5 -28.5l54 -27l217 324q2 4 12 4t15 -4q1 -2 5 -9t8.5 -15t8.5 -16.5t5 -13.5v-27q0 -1 -3 -8t-7.5 -15.5l-9 -17t-7.5 -13.5q-12 -23 -34.5 -65t-51.5 -96t-62.5 -117t-68 -127.5t-68 -127.5t-62.5 -117
t-51.5 -96t-34.5 -65q0 -6 -10.5 -16.5t-16.5 -10.5q-2 0 -9 3t-15.5 7.5l-17 9t-12.5 7.5z" />
    <glyph glyph-name="J" unicode="J" horiz-adv-x="428" 
d="M54 -216q-4 2 -14.5 12.5t-12.5 14.5t-2 13.5t2 13.5q9 -1 32 -1.5t49 -0.5t49 0.5t32 1.5q6 0 16.5 10.5t10.5 16.5q1 12 1.5 43t0.5 65.5t-0.5 65t-1.5 42.5q0 5 -3 26t-7.5 47t-9 51t-7.5 38q-1 4 -4.5 18.5t-8 32t-8.5 34t-6 24.5l-10 35l-17 59.5l-17 59.5l-10 35
q-1 5 -1.5 13.5t-0.5 17t0.5 15.5t1.5 8t11 4.5t23 8t26 8.5t21 6q7 2 23 6t33 8.5t32 8t20 4.5h27q3 -2 7.5 -9.5t8.5 -16t7 -16.5t4 -12q3 -19 7.5 -59t10 -90.5t11.5 -106.5t11 -106.5t9 -91t5 -60.5q1 -15 1.5 -44t0.5 -59.5t-0.5 -55t-1.5 -30.5t-7.5 -21.5t-15 -32.5
t-17.5 -32.5t-14 -21.5q-2 -2 -9 -6t-15.5 -8.5t-17 -8t-12.5 -4.5q-8 -1 -30.5 -1.5t-48.5 -0.5t-49.5 0.5t-33.5 1.5q-4 0 -15.5 3t-24 7.5t-24.5 9t-17 7.5zM54 730q-3 2 -7.5 6t-9 8.5t-7.5 8t-3 4.5q-1 6 -1.5 21.5t-0.5 32.5t0.5 32.5t1.5 21.5q0 1 3 4.5t7.5 8t9 8.5
t7.5 6q4 3 12.5 7.5l17 9t15.5 7.5t9 3q6 1 21.5 1.5t32.5 0.5t32.5 -0.5t21.5 -1.5q2 0 9.5 -3t16 -7.5t16.5 -9t12 -7.5q3 -2 7.5 -6t9 -8.5t7.5 -8t3 -4.5q1 -4 1.5 -12.5t0.5 -17t-0.5 -15.5t-1.5 -9q-3 -5 -14 -16.5t-23.5 -24.5t-25 -24.5t-18.5 -15.5q-2 -1 -12 -4.5
t-23 -8t-26 -8.5t-20 -6h-27q-3 1 -10.5 4.5t-16.5 8t-16.5 8.5t-10.5 6z" />
    <glyph glyph-name="A" unicode="A" horiz-adv-x="662" 
d="M436 -27l-10 20l-17 34l-17 34l-10 20q-2 3 -6 7.5t-8.5 9t-8 7.5t-4.5 3h-189q-4 0 -13 -10.5t-14 -16.5q-1 -3 -4.5 -15.5t-8 -26.5t-8.5 -25.5t-6 -13.5q-1 -1 -7.5 -1.5t-15 -0.5t-17.5 0.5t-14 1.5q-4 1 -12.5 4.5t-17 8t-15.5 8.5t-9 6v27l135 730q0 6 10.5 16.5
t16.5 10.5q8 1 27.5 1.5t41 0.5t40.5 -0.5t26 -1.5q6 -10 16.5 -31.5t24 -48t28.5 -56t28 -56t23 -47.5t15 -31q9 -19 28.5 -59t44 -90.5t51 -106.5t50.5 -107t42.5 -91.5t27.5 -59.5q-2 -4 -12.5 -14.5t-14.5 -12.5q-6 -3 -28 -10.5t-47.5 -16.5t-50.5 -16.5t-37 -10.5
q-4 -2 -14.5 -2t-12.5 2q-4 2 -14.5 12.5t-12.5 14.5zM166 243q6 -1 21.5 -1.5t32.5 -0.5t32.5 0.5t21.5 1.5q5 0 15 10.5t12 16.5q1 3 1.5 10.5t0.5 16.5t-0.5 16.5t-1.5 10.5q-2 9 -9 32.5t-15.5 49t-17 49t-12.5 32.5q-1 1 -5 1h-8.5h-8.5t-5 -1q-3 -1 -7.5 -4.5t-9 -8
t-7.5 -8.5t-3 -6q-1 -3 -4.5 -26.5t-8 -53.5t-8.5 -61t-6 -49v-27z" />
    <glyph glyph-name="V" unicode="V" horiz-adv-x="679" 
d="M-35 730q-1 3 -1.5 14t-0.5 23.5t0.5 25t1.5 18.5q0 1 3 4.5t7.5 8t9 8.5t7.5 6q8 5 24.5 13.5t33.5 16.5t31.5 15t18.5 9q3 1 10.5 1.5t16.5 0.5t16.5 -0.5t10.5 -1.5q1 0 4.5 -3t8 -7.5t8.5 -9t6 -7.5l4.5 -9t8 -15.5t8.5 -16.5t6 -13q7 -16 22.5 -50t34 -76.5t39 -90
t39 -90t33 -76.5t21.5 -50q1 -1 5 -1.5t8.5 -0.5t8.5 0.5t5 1.5q5 2 15.5 12.5t12.5 14.5q6 16 18.5 50t28.5 76.5t33.5 90t33.5 90t29 76.5t19 50q1 4 4.5 12.5t7.5 17t8.5 15.5t6.5 9q1 2 5 6l8.5 8.5t8.5 8t5 4.5t5 1.5t8.5 0.5t8.5 -0.5t5 -1.5v-54q0 -2 -8.5 -28.5
t-22.5 -69t-32 -95.5t-36 -106.5t-34.5 -103t-28.5 -84.5q-4 -12 -12.5 -35t-19.5 -52.5t-22.5 -62t-22.5 -61.5t-19.5 -52t-12.5 -34q-1 -4 -4.5 -12.5t-7.5 -17t-8.5 -15.5t-6.5 -9q-2 -4 -12 -14.5t-15 -12.5q-3 -2 -10.5 -6t-16.5 -8.5t-16.5 -8t-10.5 -4.5
q-4 -2 -14.5 -2t-12.5 2q-4 2 -14.5 12.5t-12.5 14.5z" />
    <glyph glyph-name="I" unicode="I" horiz-adv-x="247" 
d="M57 0q-1 12 -3.5 37.5t-5 57.5t-5.5 67.5t-5.5 67t-4.5 57t-3 37.5q-1 11 -1.5 32t-0.5 43t0.5 39t1.5 21q0 7 10.5 17.5t16.5 10.5q8 1 27.5 1h41h40.5t26 -1q1 -9 1.5 -32.5t0.5 -49t-0.5 -49t-1.5 -32.5q-1 -13 -4.5 -47.5t-8 -73t-8.5 -73.5t-6 -49q-1 -6 -4.5 -21.5
t-8 -32.5t-8.5 -32.5t-6 -21.5q-3 -1 -10.5 -1.5t-16.5 -0.5t-16.5 0.5t-10.5 1.5q-4 2 -14.5 12.5t-12.5 14.5zM57 595q-3 2 -7.5 6t-9 8.5t-7.5 8t-3 4.5q-2 8 -3 24t-1 33.5t1 32t3 18.5q1 2 8 6t15.5 8.5t17 8t13.5 4.5t17 1h24.5h24t15.5 -1q1 0 4.5 -3t8 -7.5t8.5 -9
t6 -7.5q3 -5 7.5 -14t9 -17.5t7.5 -15t3 -7.5t-3 -8t-7.5 -15.5l-9 -17t-7.5 -13.5q-2 -5 -12 -15t-15 -12q-4 -3 -12.5 -7.5l-17 -9t-15.5 -7.5t-9 -3t-8.5 3t-15 7.5l-17 9t-13.5 7.5z" />
    <glyph glyph-name="S" unicode="S" horiz-adv-x="647" 
d="M221 0q-5 2 -20 9t-32 15.5t-33 17t-23 12.5l-27 27q-5 7 -13.5 20l-17 26t-15.5 23t-8 12q-2 6 -3 18.5t-1 25t1 23.5t3 14q3 5 14 11t23.5 10t25 6t18.5 0q8 -10 30.5 -33.5t48.5 -49.5t49.5 -48.5t33.5 -30.5q2 -2 9.5 -6t16 -8.5t16.5 -8t12 -4.5t12.5 -1.5t17 -0.5
t15.5 0.5t9 1.5q4 2 15.5 12.5t24.5 23t24.5 25.5t16.5 20q2 2 2 12.5t-2 14.5q-2 5 -6 14t-8.5 17.5t-8 15t-4.5 7.5q-3 2 -20 12.5t-38.5 23t-43 25.5t-33.5 20l-162 81q-7 4 -20 12.5l-26 17t-23 15.5t-12 9q-4 5 -12.5 20t-17 32.5t-15.5 33.5t-9 23q-1 4 -1.5 18
t-0.5 31.5t0.5 34t1.5 24.5q1 7 4.5 23t8 33t8.5 32t6 20t9 16.5t15.5 24.5t17 24.5t12.5 15.5q3 3 10.5 7.5t16.5 9t16.5 7.5t10.5 3q16 1 52 1.5t75 0.5t72 -0.5t44 -1.5q5 -1 29.5 -8t54.5 -15.5t59.5 -17t46.5 -13.5q6 -2 15 -6t18 -8.5t15 -8t6 -4.5q1 -2 1 -15.5
v-30.5v-34.5t-1 -27.5q-1 -12 -4.5 -37t-8 -50.5t-8.5 -47t-6 -27.5q-2 -5 -12.5 -15t-14.5 -12q-2 -1 -9.5 -1.5t-16 -0.5t-16.5 0.5t-12 1.5l-30 5t-51.5 8.5t-51.5 8.5l-30 5q-9 1 -32 1h-48.5h-49t-32.5 -1v-54q11 -4 32.5 -14t48.5 -23t56.5 -28t56 -28.5t47 -25
t29.5 -17.5q10 -6 27.5 -21.5t35 -32.5t31 -32.5t15.5 -21.5q2 -4 3 -24.5t1 -46.5t-1 -51.5t-3 -39.5q0 -2 -3 -9t-7.5 -15.5l-9 -17t-7.5 -12.5q-2 -4 -12.5 -14.5t-14.5 -12.5q-4 -3 -12.5 -7.5l-17 -9t-16 -7.5t-9.5 -3q-7 -1 -25.5 -1.5t-40.5 -0.5t-41.5 0.5
t-27.5 1.5q-6 1 -21.5 4.5t-32.5 8t-32.5 8.5t-21.5 6z" />
    <glyph glyph-name="N" unicode="N" horiz-adv-x="658" 
d="M394 54q-4 5 -16.5 22t-29 39t-35.5 47t-35.5 47.5t-29 39t-16.5 21.5q-2 3 -6 7.5t-8.5 9t-8 7.5t-4.5 3q-2 1 -7.5 1.5t-12.5 0.5t-12.5 -0.5t-7.5 -1.5v-270q0 -2 -5 -6t-11.5 -8.5t-13.5 -8t-11 -4.5q-5 -1 -16 -1.5t-24 -0.5t-24.5 0.5t-16.5 1.5q-3 9 -7.5 32
t-9 49t-7.5 49t-3 32q-1 28 -1.5 87.5t-0.5 134v157v157t0.5 133.5t1.5 88q5 5 20 10.5t32 10t33 6.5t23 0q3 -1 14 -11t23.5 -22.5t25 -26t18.5 -21.5q5 -8 22 -33t39 -58.5t47 -71t47.5 -70.5t39 -58t21.5 -33q2 -5 12.5 -15t14.5 -12l41 27v351q0 2 4.5 6t11 8.5t13.5 8
t12 4.5t16.5 1.5t24.5 0.5t24.5 -0.5t15.5 -1.5q4 -2 14.5 -12.5t12.5 -14.5v-54q-2 -34 -4 -87.5t-5 -114t-6 -122t-5.5 -113t-4.5 -87.5t-2 -44q-1 -10 -3 -31t-4.5 -47.5t-5.5 -56t-5.5 -56t-5 -48t-3.5 -31.5q-4 -2 -15.5 -6t-24.5 -8.5t-25 -8t-17 -4.5q-4 -2 -14.5 -2
t-12.5 2q-4 3 -15 14t-24 23.5t-25 25t-17 18.5z" />
    <glyph glyph-name="M" unicode="M" horiz-adv-x="1157" 
d="M-24 27q-2 2 -2 13.5t2 13.5q6 20 18.5 62.5t28.5 96t34 112t34 112t28.5 96t18.5 62.5q5 15 17 50t24.5 74t24 73t15.5 46q2 5 6.5 13.5t8.5 17t7.5 15.5t4.5 8q2 1 9.5 1.5t16 0.5t16.5 -0.5t12 -1.5t12.5 -4.5t17 -8t15.5 -8.5t9 -6q1 -1 5 -8t8.5 -15.5t8.5 -17
t5 -13.5q4 -10 10.5 -31.5t14.5 -48t17 -56t17 -56t13.5 -47.5t8.5 -31h55q6 14 18.5 41.5t28.5 62t33.5 73t33.5 73t29 61.5t19 40q1 3 4.5 10.5t7.5 16.5t8.5 16.5t6.5 10.5q4 -2 14.5 -12.5t12.5 -14.5q3 -4 14 -21.5t23.5 -39t25 -42.5t18.5 -32q12 -21 37.5 -65
t57.5 -100t67 -118t67 -118t57.5 -100.5t37.5 -66.5q2 -3 3 -10.5t1 -16.5t-1 -16.5t-3 -10.5t-12 -14t-23 -23.5l-26 -25t-20 -18.5t-23 -18.5t-33.5 -25t-32 -23.5t-19.5 -14q-4 -2 -14.5 -2t-12.5 2q-1 1 -4.5 8t-8 15.5t-8.5 17t-6 13.5l-10 25t-17 43t-17 42.5
t-10 24.5l-10 20l-17 34l-17 34l-10 20l-15 35t-25.5 60t-25.5 59.5t-15 34.5q-2 5 -12.5 15.5t-14.5 12.5q-1 1 -5 1h-8.5h-8.5t-5 -1q-5 -2 -15 -12.5t-12 -15.5q-3 -8 -15 -39.5t-25.5 -68t-25.5 -68.5l-15 -40q-4 -10 -12.5 -30.5t-17 -42t-15.5 -39.5t-9 -23
q-1 -3 -4.5 -10.5t-8 -16.5t-9 -16.5t-6.5 -10.5q-4 2 -14.5 12.5t-12.5 14.5q-3 7 -13 30t-24 53.5t-29 65t-29 65t-25 53.5t-15 30q-2 4 -9 12.5t-15.5 17t-17 15.5t-12.5 9l-27 -27q-5 -12 -15 -37.5t-23.5 -57t-28 -67t-28 -67.5t-24.5 -57.5t-16 -37.5l-54 -108
q-2 -2 -13.5 -2t-13.5 2q-4 2 -14.5 12.5t-12.5 14.5z" />
    <glyph glyph-name="G" unicode="G" horiz-adv-x="730" 
d="M231 0q-5 2 -14 6t-18 8.5t-15.5 8t-7.5 4.5q-9 7 -25.5 23.5l-34.5 34.5t-32.5 33t-18.5 20q-5 7 -14 23.5t-18 34.5t-16 33.5t-8 20.5q-1 11 -2.5 35t-1.5 54t-0.5 63.5t0.5 63.5t1.5 54t2.5 35q1 4 8 19t16 32.5t18 34.5t14 25q9 20 29 36.5t44.5 30t49.5 24.5t43 20
q7 3 20.5 8t27 9.5t24 7.5t12.5 3q13 1 41 1.5t63.5 0.5h74.5h75t64.5 -0.5t42.5 -1.5q2 -1 6 -4.5t8.5 -8t8 -9t4.5 -6.5t1.5 -9t0.5 -16t-0.5 -17.5t-1.5 -12.5q-1 -8 -4.5 -28t-8 -42.5t-8.5 -42t-6 -26.5q-2 -8 -6.5 -19.5l-9 -23t-8 -19.5t-4.5 -8h-445
q-27 -10 -47.5 -30t-34 -44.5t-21 -52t-8.5 -53.5q0 -3 3 -17t7.5 -32t9.5 -35.5t8 -26.5q1 -4 4.5 -12.5t8 -17.5t9 -16.5t6.5 -9.5q3 -4 11 -12.5t16.5 -17.5t16.5 -16t11 -9q7 -4 23.5 -12.5t34.5 -17.5t33.5 -16.5t20.5 -9.5q6 -2 18.5 -3t26 -1t24.5 1t14 3
q1 0 4.5 6.5t8 15.5t9 18.5t6.5 15.5q2 5 6 17l8.5 25.5t8 25t4.5 15.5q2 6 2 17t-2 11l-166 55q-2 0 -2 11t2 17q1 3 4.5 7.5t8 9t9 8t6.5 3.5q5 1 20 1.5t33 0.5t34 -0.5t24 -1.5q15 -2 50.5 -9.5t75.5 -16.5t75 -17.5t49 -12.5q4 -2 14.5 -12.5t12.5 -14.5v-56
q-2 -17 -6 -47.5t-8.5 -61.5t-8 -55.5t-4.5 -29.5q-1 -2 -5 -6.5t-8.5 -9t-8.5 -8t-6 -4.5q-19 -1 -66 -1.5t-100.5 -0.5t-100.5 0.5t-66 1.5q-2 0 -12.5 3t-24 7.5t-27 9.5t-20.5 8z" />
    <glyph glyph-name="F" unicode="F" horiz-adv-x="563" 
d="M67 389q-3 17 -8.5 44t-11.5 59t-12 65t-11 61.5t-8.5 49t-4.5 26.5q-1 5 -1.5 14t-0.5 18t0.5 16t1.5 8t11 4.5t23.5 8l27 9t21.5 6.5q5 1 20.5 5t33 8.5t34 8.5t23.5 5q13 3 35 8t44 9.5t39.5 7.5t20.5 3q9 1 29 1.5t42 0.5t41.5 -0.5t26.5 -1.5q2 -3 6.5 -11t9 -16.5
t8 -16.5t4.5 -11q2 -8 6.5 -27.5t9 -41.5t8 -42t4.5 -28q1 -5 1.5 -19t0.5 -30t-0.5 -30t-1.5 -19h-306q-2 0 -6 -4.5t-8.5 -11t-8.5 -13.5t-5 -12t-1.5 -17t-0.5 -25t0.5 -25t1.5 -17q1 -4 5 -11t8.5 -13.5t8.5 -11.5t6 -5h278v-97h-292v-306h-69q-16 84 -32 162
q-7 33 -14 68.5t-14 69t-13 63.5t-10 54z" />
    <glyph glyph-name="L" unicode="L" horiz-adv-x="546" 
d="M33 833q0 1 16 4.5t38 8t45.5 9t39.5 6.5q6 1 21.5 1.5t33.5 0.5t34 -0.5t22 -1.5q1 -6 1.5 -22t0.5 -33.5t-0.5 -33.5t-1.5 -22q-2 -17 -8.5 -68t-15 -119.5t-18.5 -146t-18.5 -146t-15 -119.5t-8.5 -68q-1 -4 -1.5 -16t-0.5 -25.5t0.5 -25.5t1.5 -16q6 -1 22 -1.5
t34 -0.5t34 0.5t22 1.5q7 1 35.5 5t61.5 9t61.5 9t35.5 5h28q1 -3 1.5 -11t0.5 -17t-0.5 -17t-1.5 -11q-1 -2 -4.5 -6t-8 -8.5t-9 -8.5t-6.5 -5q-14 -3 -49 -11t-75 -16.5t-75.5 -16.5t-50.5 -11q-14 -3 -36.5 -8t-44.5 -9.5t-39 -7.5t-19 -3q-5 -1 -17 -1.5t-24.5 -0.5
t-24.5 0.5t-17 1.5v972v0z" />
    <glyph glyph-name="T" unicode="T" horiz-adv-x="556" 
d="M145 722q-9 -1 -33 -1.5t-50 -0.5t-50 0.5t-33 1.5q-2 0 -6.5 3t-9 7.5t-8 9.5t-4.5 8q-2 5 -3.5 13.5t-1.5 17.5t1.5 16t3.5 8q16 6 32 11q14 5 27.5 9.5t23.5 7.5q13 4 41.5 12.5t59.5 17.5t58 16t36 9q21 5 56.5 14l71 18t63 16t31.5 8q6 1 22 1.5t33.5 0.5t33.5 -0.5
t22 -1.5v-83l-139 -56q-2 -1 -3 -30t-1 -69t1 -82t3 -69q1 -11 5 -45t9.5 -80t12.5 -97t12.5 -97t10 -80t6.5 -45q1 -8 1.5 -27.5t0.5 -41.5t-0.5 -42t-1.5 -28q-3 -2 -11 -6.5t-17 -9t-17 -8t-11 -4.5q-6 -1 -15.5 -1.5t-18 -0.5t-15 0.5t-6.5 1.5l-195 722z" />
    <glyph glyph-name="H" unicode="H" horiz-adv-x="626" 
d="M20 833h194l28 -28q-1 -13 -3.5 -41t-5.5 -63.5t-6 -74.5t-5.5 -75t-4.5 -64.5t-3 -42.5v-83q0 -2 3 -6.5t7.5 -9t9.5 -8t8 -4.5q15 -7 38 -17t45 -19t38.5 -14.5t17.5 -4.5l28 27q-1 13 -3.5 39t-5.5 59t-6 69t-5.5 69t-4.5 59l-3 39q-1 9 -1.5 33t-0.5 50t0.5 50
t1.5 33q9 2 33 6.5t50.5 9t50.5 8t33 4.5h28q3 -1 7.5 -4.5t9 -8t7.5 -9t3 -6.5v-166q-1 -24 -2.5 -74.5t-4 -114t-5.5 -133t-6 -132t-5.5 -112.5t-3.5 -73q-6 -3 -22 -8t-34 -9.5t-34 -7.5t-22 -3q-4 0 -14.5 10.5t-12.5 17.5q-2 5 -6 25.5t-8.5 44t-8 44t-5.5 25.5
q-1 3 -4.5 7.5t-8 9t-9 7.5t-6.5 3h-194q0 -9 -3.5 -33t-8 -50t-9 -50t-7.5 -33q-2 -5 -12 -15.5t-16 -12.5q-2 -2 -12.5 -2t-15.5 2q-9 2 -23.5 6.5t-27.5 9t-22.5 8t-9.5 4.5v833z" />
    <glyph glyph-name="W" unicode="W" horiz-adv-x="1170" 
d="M423 56q-2 2 -9.5 12.5t-16.5 24t-17.5 26.5t-12.5 20q-5 8 -15.5 25t-24 38.5t-29 45.5t-29 46t-25 40t-16.5 27t-17 29t-25.5 42t-25 41.5t-15.5 26.5q-8 13 -24 41.5t-33.5 59.5t-33 58t-20.5 36q-2 5 -6.5 14t-9 17.5t-8 15.5t-4.5 8q-2 2 -2 14t2 14q7 8 26.5 28
t42 42t42.5 41.5t28 27.5q3 3 11.5 7.5t17.5 9t16.5 8t9.5 3.5q5 0 14.5 -11t13.5 -17l222 -445q1 -2 5 -6l8.5 -8.5t8.5 -8t6 -4.5q5 -2 15.5 -2t12.5 2q1 1 4.5 7.5t8 15.5l9 18t6.5 14q5 15 16.5 45.5t25 69t28.5 80.5t29 80.5t24.5 68.5t15.5 45q2 -1 6 -4.5t8.5 -8
t8 -9t4.5 -6.5q4 -8 17 -31t30 -54.5t36.5 -67t36.5 -67t30 -55t17 -30.5q2 -5 12.5 -15.5t15.5 -12.5q6 -2 17 -2t11 2l166 444h56q1 -6 1.5 -21.5t0.5 -33.5t-0.5 -34t-1.5 -22q-1 -5 -8 -32.5t-16 -62.5t-18 -70.5t-14 -56.5q-7 -27 -19 -71.5t-26 -96.5t-29.5 -106.5
t-28.5 -101t-23 -80.5t-13 -44q-2 -5 -5.5 -14t-8 -18t-8 -15.5t-5.5 -7.5t-9.5 -1.5t-16.5 -0.5t-17.5 0.5t-12.5 1.5t-12.5 4.5t-17.5 8t-16 8.5t-9 6q-1 1 -5 8t-8.5 16t-8.5 18t-6 14q-3 7 -11 26.5t-17 42l-17 42.5t-11 28l-5 15t-9 26.5t-9 26.5l-5 15q-1 2 -4.5 6.5
t-8 9t-8.5 8t-6 4.5q-2 2 -14 2t-14 -2l-11 -22l-17 -34t-17 -33.5t-11 -21.5q-4 -10 -12.5 -32t-19.5 -49.5l-23 -57.5l-23 -57.5t-20 -49.5t-13 -32q-2 -2 -14 -2t-14 2l-4.5 4.5l-8 8t-8.5 9t-6 6.5z" />
    <glyph glyph-name="K" unicode="K" horiz-adv-x="852" 
d="M111 28q-3 23 -7.5 73t-10.5 112.5t-12 132t-11 132.5t-9 113.5t-5 74.5q-1 11 -1.5 35t-0.5 54v63.5v63.5t0.5 54t1.5 36h250v-306l28 -27l333 305q4 -2 12.5 -9.5t17.5 -16.5t16 -17.5t9 -11.5q6 -9 19 -30t26 -43t24.5 -41t14.5 -25q2 -4 3 -12.5t1 -17.5t-1 -16.5
t-3 -9.5q0 -1 -6.5 -4.5t-15.5 -8t-18.5 -9t-15.5 -6.5q-12 -6 -38.5 -17t-59 -24.5t-69 -28.5t-69 -28.5t-59 -24t-38.5 -15.5q-2 -2 -2 -14t2 -14q1 -1 4.5 -5t8 -9t9 -9t6.5 -5q4 -3 22.5 -14t41 -24.5t43.5 -26t32 -18.5q9 -6 28.5 -17t44 -25t51.5 -29t52 -28.5
t44.5 -24t29.5 -15.5q1 -3 1 -11v-17v-17t-1 -11q-8 -19 -21 -47t-26.5 -54.5t-24 -45.5t-12.5 -19h-55l-389 333q-2 -9 -6.5 -33t-9 -50.5t-8 -50.5t-4.5 -33q-2 -12 -6.5 -44t-9 -67t-8 -67t-4.5 -44q-6 -2 -21.5 -3.5t-33.5 -1.5t-34 1.5t-22 3.5q-4 2 -9 9.5t-9.5 16.5
t-7.5 17t-2 13z" />
    <glyph glyph-name="X" unicode="X" horiz-adv-x="647" 
d="M30 26q-1 5 -1.5 16t-0.5 23.5t0.5 23.5t1.5 16q6 8 18.5 26.5t28 42t33 49t33 49t27.5 42.5t18 28q2 3 6 10.5t8.5 16t8 16t4.5 10.5q2 4 2 14t-2 12q-1 1 -7.5 11t-15 23t-17 25.5t-13.5 19.5q-3 4 -13.5 18.5t-24 33.5t-28.5 40t-28.5 40t-24 33t-13.5 19
q-2 3 -6 10.5t-8 16t-7.5 16t-4.5 10.5q-2 4 -2 14t2 12l132 132q4 4 13 4t13 -4q1 -1 7.5 -10.5t15 -22t17 -25.5t13.5 -21q8 -12 27 -42t40 -63.5t39 -63.5t25 -42h26l185 237q5 -4 16.5 -15t24 -23.5t23.5 -24t15 -16.5q2 -2 2 -12t-2 -14l-208 -295l155 -310q2 -5 2 -15
t-2 -12q-2 -4 -9 -12t-15.5 -16t-16.5 -15t-12 -9q-1 -1 -4.5 -1.5t-8 -0.5t-8.5 0.5t-5 1.5q-7 9 -25.5 31t-39.5 47.5t-40 48t-27 31.5q-4 5 -12 13.5t-16 16.5t-15 14.5t-9 7.5q-2 2 -12 2t-15 -2q-2 -2 -12 -11t-14 -15q-7 -8 -22 -26.5t-33 -42t-38 -49t-38 -49
t-32.5 -42.5t-20.5 -28q-4 -2 -13 -2t-13 2q-3 1 -7.5 4.5t-9 7.5t-7.5 8t-3 6z" />
    <glyph glyph-name="period" unicode="." horiz-adv-x="378" 
d="M54 54q-3 5 -7.5 13.5l-9 17t-7.5 15t-3 8.5t3 9t7.5 15.5l9 17t7.5 12.5q2 5 12.5 15t14.5 12q4 3 12.5 7.5l17 9t15.5 7.5t9 3q9 1 26 1.5t34 0.5t31 -0.5t17 -1.5q7 -3 20 -14t26 -23.5t23 -25t12 -18.5q0 -1 -3 -7.5t-7.5 -15t-9 -17.5t-7.5 -14q-2 -4 -12 -14.5
t-15 -12.5q-4 -3 -12 -7.5t-16.5 -9t-16 -7.5t-9.5 -3q-8 -1 -27.5 -1.5t-41 -0.5t-40.5 0.5t-26 1.5q-1 0 -4.5 3t-8 7.5t-8.5 9t-6 7.5z" />
    <glyph glyph-name="Z" unicode="Z" horiz-adv-x="626" 
d="M304 56q-4 1 -22.5 4t-42 6.5t-46.5 7t-36 5.5q-14 2 -35 6t-41 8q-23 4 -48 9v206q36 33 57.5 73t39 82.5t37.5 85t54 79.5q0 2 0.5 8t0.5 13.5t-0.5 14.5t-0.5 10q-2 4 -10 12.5t-12 10.5q-5 2 -23 5.5t-39 7t-39.5 6.5t-23.5 4q-3 1 -9 4t-12.5 6.5t-12 7t-7.5 5.5
q-2 7 -3 23.5t-1 34.5t1 34t3 22q0 3 5 10t12 14.5t13.5 13.5t10.5 8q5 3 17 6.5t25 7.5t24.5 6.5t16.5 2.5h440q2 -11 3 -40.5t1 -62.5t-1 -62.5t-3 -40.5q-1 -5 -10 -18.5t-20 -28.5t-20.5 -28.5t-12.5 -16.5q-23 -47 -49.5 -84t-52 -73t-48.5 -75t-38 -88q-2 -5 -2 -14
t2 -9l209 -46q1 0 6.5 -15.5t12.5 -37.5t13.5 -45.5t9.5 -38.5q0 -5 0.5 -12t0.5 -14.5t-0.5 -13t-0.5 -6.5q-3 -3 -11.5 -6.5t-18.5 -7.5t-19.5 -6.5t-13.5 -2.5q-5 0 -33.5 2.5t-65 6.5t-73.5 7.5t-58 6.5z" />
    <glyph glyph-name="Q" unicode="Q" horiz-adv-x="816" 
d="M543 33q-11 -7 -17 -7q-45 -9 -75.5 -15.5t-58 -7.5t-57 4t-72.5 19q-41 13 -72 43t-60 62l-4.5 9t-7.5 15.5t-8 16.5l-6 12q-6 15 -15 40t-17.5 50.5t-14.5 45t-6 22.5q-7 49 -9 104.5t4.5 110.5t22 107t44.5 94t71.5 71t103.5 39q63 8 120 -4.5t107 -41t92 -71
t76 -93.5q26 -49 38 -86.5t16 -75t2 -80t-3 -101.5q-8 -38 -27 -77.5t-42 -67.5q1 -4 16.5 -21.5t33 -37.5t32 -37.5t13.5 -21.5q0 -1 -12 -10.5t-29 -22t-34.5 -25.5t-29.5 -21q-5 -3 -13.5 -7.5t-17 -8.5t-15 -7t-7.5 -3q-3 2 -10 15.5t-15 30t-15 31t-10 17.5zM184 421
q3 -5 10.5 -13.5t16 -17t16 -15t10.5 -7.5q9 -3 32.5 -2t49 4.5t46.5 7.5t24 7q4 3 -1 15t-12.5 26.5t-13.5 28t-4 18.5q9 6 19 13.5t23.5 14.5t31 13.5t41.5 11.5q4 -2 12 -12t15.5 -20.5t11.5 -18t0 -4.5q2 0 8 7.5t13 17t12.5 18.5t6.5 12q8 42 2.5 81.5t-28.5 76.5
q-12 18 -35 33t-44 19q-19 0 -45 2t-52 0.5t-49.5 -7.5t-37.5 -21q-21 -18 -38 -34.5t-30 -34.5t-22 -39.5t-15 -49.5q-9 -31 1.5 -66.5t24.5 -64.5z" />
    <glyph glyph-name="copyright" unicode="&#xa9;" horiz-adv-x="932" 
d="M193 -54q0 2 -4.5 6t-6.5 5q-5 1 -16.5 1t-16.5 -1q1 2 5 6t6 5q1 0 7 0.5t9 0.5q4 0 10 -0.5t7 -0.5q2 -1 6 -5t5 -6q0 -1 0.5 -7.5t0.5 -9.5t-0.5 -9t-0.5 -7q-2 -4 -10.5 -16.5t-11.5 -16.5l22 -10h-55q2 3 7 9t10 12.5t9.5 12.5t6.5 9q2 4 6.5 12.5t4.5 9.5zM224 -76
q0 7 0.5 19.5t0.5 13.5q0 2 4.5 6t7.5 5q1 0 6.5 0.5t9.5 0.5q3 0 9 -0.5t7 -0.5q2 -1 6.5 -5t4.5 -6q0 -1 0.5 -13.5t0.5 -19.5t-0.5 -19.5t-0.5 -13.5q0 -2 -4.5 -5.5t-6.5 -4.5q-1 0 -7 -0.5t-9 -0.5q-4 0 -9.5 0.5t-6.5 0.5q-3 1 -7.5 4.5t-4.5 5.5q0 1 -0.5 13.5
t-0.5 19.5zM302 -54q2 4 10 12t12 10q2 1 5.5 2t4.5 1v-90h-10q0 3 -1.5 11t-3.5 16.5t-4 16t-3 10.5q-1 2 -4.5 6t-5.5 5zM366 -76q0 5 0.5 13t0.5 9q1 5 5 13t6 9h6q2 0 4.5 0.5t4.5 0.5q4 0 10 -0.5t8 -0.5q2 -1 6.5 -5t4.5 -6q0 -1 0.5 -13.5t0.5 -19.5t-0.5 -19.5
t-0.5 -13.5q0 -2 -4.5 -5.5t-6.5 -4.5q-2 0 -8 -0.5t-10 -0.5h-9q-3 0 -6 1q-2 1 -6 9t-5 13q0 1 -0.5 9t-0.5 12zM487 -43q1 2 5 6l5 5q2 0 8.5 0.5t10.5 0.5q2 0 7.5 -0.5t7.5 -0.5q3 -2 11 -10t10 -12q-1 4 3.5 12t8.5 10q1 1 9.5 1.5t12.5 0.5t12 -0.5t9 -1.5t4.5 -13.5
t5.5 -19.5v-11v-11q-2 -6 -5.5 -18.5t-4.5 -13.5t-9.5 -2.5t-12.5 -1.5t-12 1.5t-9 2.5q-3 1 -6.5 7t-7 12.5t-6 13.5t-2.5 10l-33 -37h33l-55 -6q0 1 -0.5 2.5t-0.5 3.5v2q0 1 1 2q2 2 11 11.5t11 10.5q2 2 6 11t4 11q1 2 0 11t-1 11h-31zM639 -54q2 4 10.5 12t11.5 10
q2 1 5.5 2t5.5 1v-90h-11q0 3 -1.5 11t-3 16.5t-3 16t-2.5 10.5l-6 6t-6 5zM705 -54q2 4 10.5 12t11.5 10q1 1 4.5 2t5.5 1v-90h-10q0 3 -1.5 11t-3.5 16.5t-3.5 16t-2.5 10.5q-1 2 -5 6t-6 5zM247 -109h11v66h-11v-66zM389 -111q2 0 5.5 0.5t5.5 1.5t6.5 5.5t4.5 6.5
q0 1 0.5 6.5t0.5 9.5q0 1 -0.5 3.5t-0.5 5.5v7q-2 3 -5.5 11.5t-5.5 10.5h-2h-2q-1 0 -1 1q-2 0 -3.5 -0.5t-2.5 -0.5v-68zM573 -76q0 -4 0.5 -12t0.5 -9q0 -2 4.5 -6.5t6.5 -5.5q3 1 7 5.5t4 6.5q0 1 0.5 9t0.5 12q0 5 -0.5 13t-0.5 9q0 2 -4 6t-7 5q-2 -1 -6.5 -5t-4.5 -6
q0 -1 -0.5 -9t-0.5 -13zM476 -87q-4 -5 -16 -5t-16 5q-2 3 3.5 4t12.5 1t12.5 -1t3.5 -4zM258 98q3 0 11.5 0.5t10.5 0.5q5 0 13 -0.5t9 -0.5q2 0 6 -4t4 -6q1 2 5.5 6t6.5 4h2q1 0 1.5 0.5t1.5 0.5t2 -0.5t2 -0.5h1q2 -1 5.5 -10.5t5.5 -11.5q2 -1 3 -1h3h3q1 0 2 1
q2 3 6.5 11.5t4.5 10.5h77v-65h-17v55q-2 0 -8.5 -4.5t-7.5 -7.5q-2 -2 -3.5 -8t-3.5 -13t-3 -13t-1 -9h-17v43q-1 -3 -5 -10.5t-8.5 -16t-8.5 -16t-5 -10.5q0 -2 -4.5 -6.5t-6.5 -5.5t-4 -1h-7q-1 0 -5 0.5t-5 0.5q2 1 5.5 5.5t4.5 6.5v4q0 2 0.5 3t0.5 2q0 2 -0.5 6.5
t-0.5 5.5q0 2 -1.5 7l-3 10t-3 9.5t-2.5 5.5q0 -3 -3 -9l-6.5 -13t-7 -13t-5.5 -8q-1 -1 -5.5 -2.5t-10.5 -3t-11 -3t-6 -1.5q-3 -2 -11.5 -6t-10.5 -6h11v87zM497 17q-2 2 -10.5 8t-10.5 8t-6.5 6t-4.5 5t-0.5 9t-0.5 13t0.5 13t0.5 9q0 2 4.5 6t6.5 4q3 0 10 1t14.5 2
t14.5 1.5t9 0.5q0 -4 -0.5 -14t-1.5 -21t-2 -21t-1 -14t-4 -12.5t-6 -9.5q-3 -1 -9 -0.5t-13 1.5t-13 2t-9 3h32zM682 66q0 5 0.5 13t0.5 9q0 2 4.5 10t6.5 11q1 2 5 6.5t6 5.5v-110q-2 1 -6 5.5t-5 6.5q-2 3 -6.5 11t-4.5 10q0 1 -0.5 9t-0.5 13zM803 76q0 3 -1.5 9
t-3 13.5t-3.5 13.5l-3 9h6h5q2 -3 6.5 -12t4.5 -11v-13q0 -5 0.5 -10.5t0.5 -8.5q0 -7 -0.5 -19.5t-0.5 -13.5q0 -2 -4.5 -10.5t-6.5 -11.5l-5 -1q-1 0 -3 0.5t-3 0.5l3 9t3.5 13t3 13.5t1.5 8.5v11v10zM83 89q0 4 1 9t9.5 13.5t11.5 9.5h21h23q2 0 6 -4.5t5 -7.5
q1 -1 1.5 -6t0.5 -6q-1 0 -6.5 0.5t-6.5 0.5l-22 11h-5h-5q-3 -1 -7.5 -5t-4.5 -6q-1 -5 -1 -9v-13q0 -3 0.5 -11.5t0.5 -9.5q0 -2 4.5 -6t7.5 -5h5h5l22 11q1 0 6.5 1t6.5 1q0 -2 -0.5 -7t-1.5 -6q-1 -2 -5 -6.5t-6 -4.5q-1 0 -9.5 -0.5t-13.5 -0.5q-4 0 -12 0.5t-9 0.5
q-3 1 -11.5 9.5t-9.5 12.5q0 1 -0.5 9.5t-0.5 11.5v13zM181 66q0 5 0.5 13t0.5 9q0 2 4.5 6t6.5 4q1 0 7 0.5t9 0.5q4 0 9.5 -0.5t6.5 -0.5q3 0 7.5 -4t4.5 -6q0 -1 0.5 -9t0.5 -13t-0.5 -13t-0.5 -9q0 -2 -4.5 -6t-7.5 -5q-1 0 -6.5 -0.5t-9.5 -0.5q-3 0 -9 0.5t-7 0.5
q-2 1 -6.5 5t-4.5 6q0 1 -0.5 9t-0.5 13zM542 121q0 -2 4 -6l6 -6q4 -2 16.5 -6t16.5 -5v-65q0 3 -1.5 9t-3.5 13t-3.5 13t-2.5 8t-4.5 6.5t-5.5 5.5q-2 -3 -6.5 -11.5t-5.5 -10.5q-2 -4 -6 -16t-4 -17v88zM607 98q0 4 4 12.5t6 10.5q3 -2 7.5 -10.5t4.5 -12.5q0 -3 1 -12.5
t1.5 -20t1 -19.5t0.5 -13h-16q-1 0 -3 7.5t-3.5 18t-2.5 21.5t-1 18zM726 66q0 5 0.5 13t0.5 9q0 2 4 6t6 4q4 1 17 3t17 2v-15h-22v-44h22v-16q-4 0 -17 2t-17 3q-2 1 -6 5t-4 6q0 1 -0.5 9t-0.5 13zM192 59q0 -2 1 -4t5 -6t6 -5q1 -1 5.5 -1.5t5.5 -0.5v48q-1 0 -5.5 -0.5
t-5.5 -1.5q-2 -1 -6 -5.5t-5 -6.5t-1 -4v-6v-7zM269 66q0 -4 4.5 -12t6.5 -10q2 1 5.5 5t5.5 6v4q0 2 0.5 3.5t0.5 3.5q0 1 -0.5 2.5t-0.5 3.5v4q-2 2 -5.5 6.5t-5.5 5.5q-2 -2 -6.5 -10t-4.5 -12zM475 59q0 -2 1 -4t5 -6t6 -5q2 1 5.5 5t4.5 6q0 2 1 4q0 2 0.5 3.5t0.5 3.5
q0 1 -0.5 2.5t-0.5 3.5q-1 2 -1 4q-1 2 -4.5 6.5t-5.5 5.5q-2 -1 -6 -5.5t-5 -6.5t-1 -4v-6v-7zM444 121q-2 -5 -6 -5t-6 5q-1 2 1 3t5 1t5 -1t1 -3zM215 382q0 1 2.5 6.5t6 12t7 13.5t6.5 11q2 2 5.5 6.5t4.5 4.5h87q2 0 10 -8t12 -13q2 -4 6.5 -12t4.5 -10v-142
q0 -2 -4.5 -10t-6.5 -12q-4 -5 -12 -13t-10 -8h-97l-22 43v131zM193 436v-16h-76v-60q4 0 16.5 -4t15.5 -7q1 0 1.5 -2t0.5 -3t-0.5 -3.5t-1.5 -2.5q-2 -1 -7 -3t-11 -3.5t-11.5 -2.5t-8.5 -1v-110h-16v218h98zM389 436l10.5 -10.5t11.5 -10.5q1 -2 7.5 -10.5t13.5 -17.5
t13.5 -17t8.5 -10q2 -4 13 -12t14 -10v98h28v-218q-2 1 -6 5l-6 6q-4 6 -15.5 22t-24.5 33t-25 32.5t-16 21.5v-120h-27v218zM531 420v16h136q0 -2 -2 -5.5t-4 -5.5q-1 -1 -5.5 -2.5t-10 -3t-10.5 -3t-6 -1.5q-5 -2 -11 -6.5t-6 -5.5v-185h-32v202h-49zM676 287
q2 0 14.5 -1.5t14.5 -1.5q1 0 5 -4.5t6 -6.5q1 -2 5 -11.5t6 -10.5q3 -1 6 -1h9q4 0 10 0.5t7 0.5q3 1 7.5 5t4.5 6q0 1 0.5 11.5t0.5 15.5q0 4 -0.5 14t-0.5 13q-4 0 -13.5 1t-20 3t-19.5 4t-13 4q-2 1 -7 5t-10.5 9.5t-10 10.5t-5.5 7q-1 3 -1 6v10q0 2 0.5 9t0.5 8
q1 3 5 11.5t6 10.5q4 4 16.5 12t16.5 9q1 0 14 1.5t19 1.5t18.5 -1.5t13.5 -1.5q3 -1 11.5 -9t10.5 -12q1 -2 2 -8.5t2 -13.5t1.5 -13t0.5 -7q-2 0 -14 3t-14 6q-1 1 -2 5.5t-2.5 10.5t-3 11t-2.5 6q0 1 -6.5 1.5t-9.5 0.5t-9.5 -0.5t-8.5 -1.5q-3 -2 -11 -9.5t-10 -12.5
q-1 -2 -1 -4v-7q0 -2 0.5 -6t0.5 -5q1 -2 5 -6t6 -5t10 -2.5t17 -3t17 -3t10 -2.5q3 -1 8 -5.5t10.5 -9.5t9.5 -10t5 -8q1 -1 1.5 -11t0.5 -16q0 -5 -0.5 -15.5t-1.5 -11.5q-1 -4 -5.5 -10.5t-9.5 -13.5t-10 -13t-8 -7q-1 -1 -13 -2t-18 -1q-7 0 -20 1t-14 2q-2 1 -7 5
t-10.5 9t-10 10.5t-5.5 8.5q-1 2 -2 7.5t-2 11.5t-2 10.5t-1 6.5zM258 240q2 -1 10.5 -2t12.5 -1q3 0 7.5 0.5t9.5 1t9 1t5 0.5q4 1 12.5 9.5t9.5 12.5q0 1 1.5 10.5t3.5 21.5t3.5 24.5t2.5 19.5v13v9l-5 10l-6 12q-1 2 -5 6.5t-5 4.5t-13.5 0.5t-19.5 0.5t-19 -0.5
t-14 -0.5t-6.5 -4.5t-4.5 -6.5v-120zM171 708q2 0 11 1t11 1q4 0 12.5 -1t9.5 -1t4.5 -3.5t5.5 -6.5q3 -3 7.5 -11.5t4.5 -10.5q0 -1 0.5 -10t0.5 -14q0 -2 -0.5 -5t-0.5 -6v-8q-1 -2 -9.5 -10.5l-12.5 -12.5q-2 -1 -7.5 -4t-11.5 -7t-11.5 -7t-8.5 -4v-97l-16 -11v16
t-0.5 25t-0.5 24.5v16.5v21t0.5 26t0.5 23v11q0 4 1.5 13.5t3 20t3.5 19.5t3 12zM710 546q-1 0 -1.5 -0.5t-1.5 -0.5h-2q-1 -1 -5 -9t-6 -13q-2 -3 -6 -15.5t-5 -16.5q-3 0 -13.5 -0.5t-13.5 -0.5q-6 0 -16 0.5t-11 0.5t-5.5 4t-6.5 7q-2 2 -8 11.5t-13 21t-13.5 21
t-8.5 11.5t-8 6t-8 5v-87h-27v217h108q5 0 12.5 -8t9.5 -13q0 -1 0.5 -12.5t0.5 -18.5q0 -6 -0.5 -19t-0.5 -15t-4 -10.5t-6 -11.5l-12 -12q-2 -2 -10.5 -5.5t-11.5 -4.5l6.5 -13t10 -19.5t10.5 -20t7 -12.5q1 -2 4.5 -6t5.5 -5q2 2 6 10.5t5 10.5q1 3 3 14.5t3.5 24t3 24
t1.5 14.5q1 5 2.5 15t3.5 20.5t3.5 19t1.5 10.5q0 3 1.5 9t3.5 13t3.5 13t2.5 8q1 0 2.5 1t2.5 1q0 -1 1 -1h2q1 -1 3 -1q2 -1 6 -4.5t5 -5.5q1 -10 4.5 -34.5t7 -52.5t6.5 -53t4 -35q0 -3 0.5 -9t1 -12.5t0.5 -12.5v-9h-14q0 3 -1.5 9t-3.5 12.5t-3.5 12.5t-1.5 9
q-2 4 -5.5 12t-5.5 10h-3h-2q-1 0 -1 1zM0 560q3 0 15 -1t15 -3q1 0 4.5 -4.5t5.5 -6.5q1 -2 5.5 -11.5t6.5 -10.5t5 -1h9q4 0 10.5 0.5t7.5 0.5q2 1 6.5 5.5t4.5 6.5q0 1 0.5 11t0.5 16q0 3 -0.5 13.5t-0.5 12.5q-4 0 -13 1t-19.5 3t-20 4t-12.5 4q-3 1 -8 5.5t-10 9.5
t-9.5 10t-5.5 8t-1 6v9q0 3 0.5 9.5t0.5 7.5q1 4 5 12t6 10q4 4 16.5 12t15.5 9q1 0 14 1.5t19 1.5t18.5 -1.5t13.5 -1.5q4 -1 12 -9t10 -12q1 -2 2 -8t2 -13t2 -13t1 -7q-2 0 -14 3t-15 6q-1 0 -2 5t-2.5 10.5t-3 10.5t-2.5 6q0 1 -6 1.5t-10 0.5q-2 0 -9 -0.5t-8 -1.5
q-4 -2 -12 -10t-10 -12q-1 -2 -1 -4v-6q0 -2 0.5 -6.5t0.5 -5.5q1 -2 5.5 -6t6.5 -4q1 -1 9 -2.5t17.5 -3t17 -3t9.5 -2.5q3 -2 8 -6.5t10.5 -9.5t9.5 -10t5 -8q2 -1 2.5 -11t0.5 -15t-0.5 -15.5t-2.5 -11.5q-1 -4 -5.5 -11t-9.5 -14t-10 -12.5t-8 -6.5q-1 -1 -12.5 -2
t-18.5 -1t-20 1t-14 2q-2 1 -6.5 5t-10 9t-10 10t-5.5 8q-2 4 -5 18.5t-3 18.5zM269 698l-22 10h77l-22 -10v-196l22 -11h-77l22 11v196zM345 708q3 0 11.5 1t10.5 1q5 0 13 -1t9 -1t5 -3.5t6 -6.5t6.5 -11.5t4.5 -10.5v-6t0.5 -13.5t0.5 -15v-11.5v-13.5t-0.5 -17
t-0.5 -14.5v-7q-1 -5 -2.5 -16.5t-3 -23.5t-3 -22t-2.5 -14q-1 -3 -5 -7t-6 -4q-3 0 -9 -1t-13 -1.5t-13 -1t-9 -0.5v221zM509 703h-55v-97h33q-3 0 -8 -1.5t-10 -4.5t-9.5 -6.5t-5.5 -5.5q-1 -1 -2.5 -7.5t-3 -15l-3 -17t-1.5 -13.5q-1 -5 -0.5 -11.5t1.5 -12.5q1 -7 1 -15
h63l-87 -5v22v22q0 10 1.5 34.5t3 52t3 52t2.5 34.5zM857 518v49q-4 0 -13 1.5t-19.5 3t-19.5 3.5t-13 3q-1 0 -5 4l-6 6q-2 4 -6 12.5t-4 9.5q-1 6 -2 20t-1.5 29.5t-1 29.5t-0.5 19h42v-108h55v113q4 0 14 -1.5t14 -3.5q1 -1 5 -4.5t5 -5.5v-10.5t0.5 -16.5t0.5 -17v-11
v-13.5t-0.5 -17.5t-0.5 -16v-8q0 -6 -1.5 -17.5t-3.5 -23.5t-3.5 -22t-1.5 -12q-2 -5 -11 -13.5t-12 -8.5h-97v27h86zM367 513l11 10v164h-11v-174zM705 588q-2 1 -3.5 -0.5t-1.5 -4t1.5 -4.5t3.5 -1q5 2 5 5t-5 5zM564 610h53v77h-53v-77zM197 688q-1 0 -1 -0.5t-1 -0.5h-2
l-11 -65q1 0 2.5 -1t3.5 -1h1q1 0 2 1q1 0 2 1q4 2 12.5 10.5t9.5 10.5q0 1 0.5 7t0.5 8q0 4 -0.5 10.5t-0.5 7.5q0 2 -4.5 6t-6.5 5h-3h-3q-1 0 -1 1z" />
    <glyph glyph-name="a" unicode="a" horiz-adv-x="465" 
d="M303 -36q-1 3 -6.5 14t-12 23.5t-12 23.5t-6.5 14q-2 2 -4.5 5t-5.5 6l-5.5 5.5t-3.5 2.5h-131q-3 0 -9 -7.5t-9 -11.5q-1 -2 -3.5 -10.5t-5.5 -18.5t-6 -18t-4 -9t-5.5 -1.5t-10.5 -0.5t-12 0.5t-10 1.5q-2 0 -8 2.5t-12 6t-11 6t-6 3.5v19l94 506q0 4 7 11.5t11 7.5
q6 0 19.5 0.5t28.5 0.5t28 -0.5t18 -0.5q4 -7 11 -22t16.5 -33.5t20 -39t19.5 -38.5t16 -33t10 -21q7 -14 20.5 -41.5t30 -62.5t35 -74t35 -74t29.5 -63t19 -42q-1 -2 -8.5 -9.5t-9.5 -8.5q-5 -2 -20 -7.5t-32.5 -11.5t-35 -11.5t-25.5 -7.5q-3 -1 -10.5 -1t-8.5 1
q-3 2 -10 9t-9 10zM116 151q4 -1 15 -1h22.5h22.5t15 1q4 0 10.5 7.5t8.5 11.5q0 2 0.5 7t0.5 11.5t-0.5 11.5t-0.5 7q-2 6 -6.5 22.5t-10.5 34t-12 34t-9 22.5q0 1 -3 1h-6h-6t-3 -1q-2 -1 -5.5 -3t-6.5 -5.5t-5 -6t-2 -4.5q-1 -2 -3.5 -18t-5.5 -37t-5.5 -42.5t-4.5 -33.5
v-19z" />
    <glyph glyph-name="b" unicode="b" horiz-adv-x="487" 
d="M26 124q-1 5 -2.5 27.5t-3 54.5t-3.5 70.5l-4 77t-3.5 72t-2.5 55.5v38q1 3 8.5 10t10.5 9q37 4 78 7t78 -3t67.5 -24t48.5 -55v-151q7 -2 24.5 -9.5t37 -16.5t37 -17.5t23.5 -12.5q28 -12 41 -32t15 -43t-3.5 -48t-14.5 -46q-2 -3 -9 -11t-16 -16.5l-18 -17t-13 -11.5
q-6 -5 -17.5 -11t-23.5 -12.5t-22 -10.5t-13 -4h-281q-1 0 -3.5 15t-5.5 36t-6 43.5t-4 36.5zM108 85q34 -4 61.5 -8t53.5 -5t52.5 1.5t60.5 11.5q4 5 11 10t12 11t8 13t1 15q-1 3 -3 8t-5 10t-5.5 9t-2.5 5l-7.5 7.5t-9.5 10t-9.5 10t-6.5 5.5q-4 2 -13.5 7t-20 10.5
t-19.5 9.5t-12 5t-15.5 3.5t-28 5t-30.5 5t-23 2.5q-2 1 -9 1.5t-15 0.5t-15 -0.5t-10 -1.5v-162zM101 369q-1 -2 -1.5 -7.5t-0.5 -11.5t0.5 -11.5t1.5 -7.5q4 -1 14.5 -1.5t22.5 -0.5t23 0.5t15 1.5q4 0 12.5 2.5t17.5 5.5t16.5 6.5t9.5 4.5q1 1 1 8t-1 11t-8 11.5t-11 7.5
h-18h-28h-28.5h-18.5q-2 0 -4.5 -2.5t-6 -5.5t-6 -6t-2.5 -5z" />
    <glyph glyph-name="c" unicode="c" horiz-adv-x="432" 
d="M50 100l-3.5 7t-6 11t-6 11.5t-3.5 8.5q-2 5 -5 14l-6 18t-5.5 15.5t-2.5 8.5q0 8 -0.5 25.5t-0.5 40v47v46.5t0.5 39.5t0.5 26.5q0 3 2.5 11t5.5 17t6 17t5 11q14 17 25.5 28.5t23.5 19.5t27 14.5t36 11.5q29 2 54.5 2.5t49 -1.5t48.5 -6.5t53 -12.5q7 -3 16.5 -6
t18.5 -6q10 -4 22 -7v-206q-10 1 -33.5 1h-50.5h-51t-34 -1q-3 0 -11 -2t-17 -5t-17 -6.5t-11 -5.5q-2 -1 -7 -6l-11 -11l-11.5 -11.5t-7.5 -8.5q-10 -16 -17.5 -36t-1.5 -39l7 -7t11 -11.5t11.5 -11.5t8.5 -7q5 -4 16 -9.5t22.5 -11.5t22 -11t13.5 -6q9 -2 33 -5t51 -6
t51 -5t34 -2q3 -2 10 -9t9 -10q1 -2 1 -7v-11.5v-11.5t-1 -7q-96 -3 -160 2t-104 14.5t-61.5 20t-30.5 19.5z" />
    <glyph glyph-name="d" unicode="d" horiz-adv-x="481" 
d="M87 -35q-2 11 -7 34t-10.5 51.5t-12 60t-12.5 60.5t-10.5 52t-6.5 34q-3 20 -9.5 53.5t-12.5 68t-11 61.5t-6 32q0 5 -0.5 14.5t-0.5 19t0.5 16.5t0.5 8q2 2 9 4.5t16.5 6t19 6t14.5 3.5q6 0 22 0.5t34.5 0.5t35.5 -0.5t24 -0.5q44 -3 86.5 -12.5t80 -28.5t69.5 -47.5
t57 -67.5q1 -1 4 -11t6.5 -22t6 -25t2.5 -20q1 -3 1 -11.5v-18v-17.5t-1 -12q0 -3 -2.5 -14t-6 -23.5t-6.5 -24t-4 -16.5q-1 -3 -3.5 -8.5t-5.5 -11.5t-6 -11.5t-5 -7.5q-31 -36 -57 -60.5t-54 -43t-62 -34.5t-80 -37q-5 -2 -16.5 -5t-24 -6.5t-23 -5.5t-14.5 -2t-11.5 7.5
t-7.5 11.5zM145 63q1 -3 9 -10.5t10 -9.5q2 -1 9.5 -1t10.5 1q39 20 80.5 40.5t73.5 47t50 62t11 84.5q-5 7 -14.5 17t-20 18.5t-22.5 15t-22 8.5h-35h-52.5h-52.5h-35q-3 -2 -10.5 -9.5t-8.5 -10.5q-1 -1 -1.5 -8.5t-0.5 -17t0.5 -19t1.5 -14.5q0 -7 1.5 -22t3.5 -34.5
t4 -40.5t4 -40t3.5 -34.5t2.5 -22.5z" />
    <glyph glyph-name="e" unicode="e" horiz-adv-x="433" 
d="M115 37q-1 0 -4 11t-8 28.5t-11 39.5l-12 44t-11.5 42.5t-8.5 35.5q-6 25 -15.5 62.5t-18.5 72.5q-10 41 -21 85l18 18q1 1 17.5 5.5t41.5 11t57 15t64.5 16t62 14.5t50.5 12q4 0 10.5 0.5t12.5 0.5t10 -0.5l4 -0.5l37 -147l-4 -2.5t-10 -5.5t-12.5 -6t-10.5 -4
t-16.5 -5.5t-29.5 -10.5t-36 -12t-36 -11.5t-30 -10t-17 -6.5q-2 0 -7 -2.5t-11 -5t-11.5 -6t-7.5 -4.5l-3.5 -3.5l-5.5 -5.5t-5.5 -6t-3.5 -3q-1 -2 -1 -8.5t1 -10.5q1 -5 4.5 -14t6 -17.5t5 -15.5l2.5 -7q2 -1 9 -1.5t15.5 -0.5t17.5 0.5t13 1.5q5 0 19 3t33 7t40 8.5
t40 8t33 6.5t19 3h18v-73q-9 -1 -33 -3t-50.5 -5t-49.5 -6t-32 -4q-8 -2 -20 -4.5t-23.5 -5.5t-20.5 -5.5t-9 -3.5q-2 -1 -2.5 -8t-0.5 -15.5t0.5 -17.5t2.5 -14q0 -2 2.5 -7t5.5 -9.5t6 -7.5t4 -3h239v-64h-276z" />
    <glyph glyph-name="f" unicode="f" horiz-adv-x="372" 
d="M47 248q-2 12 -5.5 29.5t-7.5 39t-8 43.5t-7 40.5t-5.5 32.5t-3.5 18q0 3 -0.5 9t-0.5 12t0.5 10.5t0.5 5.5q1 0 7.5 2.5t15.5 5.5l18 6t14 4l14 3.5t21.5 5.5t22.5 5.5t16 3.5q9 2 23.5 5.5t29 6.5t26 5t13.5 2q6 0 19.5 0.5t28 0.5t27.5 -0.5t17 -0.5q1 -2 4 -7.5
l6 -11t5.5 -11t3.5 -7.5q1 -5 4 -18t6 -27.5t5.5 -28t2.5 -18.5q1 -3 1.5 -12.5t0.5 -20t-0.5 -20t-1.5 -12.5h-203q-1 0 -3.5 -3t-5.5 -7t-5.5 -9t-3.5 -8t-1 -11v-16.5v-16.5t1 -12l3.5 -7t5.5 -9t5.5 -7.5t3.5 -3.5h185v-64h-194v-203h-46q-10 56 -21 107q-4 22 -9 45.5
t-9.5 46t-8.5 42t-7 35.5z" />
    <glyph glyph-name="g" unicode="g" horiz-adv-x="510" 
d="M162 -9q-3 1 -9.5 4l-13 6t-11 5.5t-4.5 3.5q-7 5 -18 16.5t-24 24t-23 22.5t-13 14q-3 5 -9.5 16.5t-12.5 24t-11 23t-6 14.5q0 8 -1 24.5t-1 37.5t-0.5 44t0 44t1 38t1.5 24q1 3 6 13.5t11 22.5t12.5 24t9.5 18q7 13 21 24.5t31 21t34 17.5t30 14q5 2 14.5 5.5
t18.5 6.5t16.5 5t9.5 2q9 1 28.5 1.5t44 0.5h51.5h52t45 -0.5t30 -1.5q1 0 4 -2.5t6 -6t5.5 -6.5t3.5 -4q0 -2 0.5 -6.5t0.5 -11t-0.5 -12.5t-0.5 -8q-1 -6 -3.5 -20t-5.5 -29.5t-6 -29t-4 -18.5q-2 -6 -5 -14l-6 -16t-5.5 -13.5t-3.5 -5.5h-309q-19 -7 -33.5 -21t-24 -31
t-14.5 -36t-6 -37q0 -2 2 -12t5.5 -22.5t7 -24.5t5.5 -19q0 -2 2.5 -8t6 -12.5t6.5 -11.5t4 -7q2 -2 7.5 -8t11.5 -12.5t11.5 -11t8.5 -6.5q4 -3 15.5 -8.5t24 -12t23.5 -11.5t15 -7q4 -1 12.5 -2t18 -1t17 1t9.5 2q1 0 3.5 4.5t5.5 11l6 13t5 10.5q1 4 4 12t6 17.5
t5.5 17.5t3.5 11q1 4 1 11.5t-1 7.5l-116 39q-1 0 -1 7.5t1 11.5q1 2 3.5 5.5t5.5 6.5t6 5.5t5 2.5q3 0 13.5 0.5t23 0.5t23.5 -0.5t17 -0.5l35 -7t52.5 -11.5t52 -12t34.5 -8.5q3 -2 10 -9t9 -10v-39q-2 -12 -4.5 -33t-6 -43t-5.5 -39t-3 -20q-1 -2 -3.5 -5t-6 -6t-6 -5.5
t-4.5 -3.5q-13 0 -45.5 -0.5t-70 -0.5t-70 0.5t-45.5 0.5q-2 0 -9.5 2.5l-16.5 5.5t-18.5 6.5t-14.5 5.5z" />
    <glyph glyph-name="h" unicode="h" horiz-adv-x="417" 
d="M12 548h130l19 -18q-1 -9 -2.5 -28t-3.5 -42.5t-4 -50t-4 -50.5t-3 -43t-2 -28v-56q0 -1 2 -4t5 -6t6.5 -5.5t5.5 -3.5q10 -4 25.5 -11t30 -13t25.5 -9.5t12 -3.5l19 18q-1 9 -2.5 26.5t-3.5 39.5t-4 46.5t-4 46.5t-3 39.5t-2 25.5q-1 6 -1 22v33.5v34t1 22.5q6 1 22 4
t34 6t34 5.5t22 2.5h19q2 0 5 -2.5t6 -5.5t5 -6t2 -4v-112q-1 -16 -2 -49.5t-2.5 -76.5t-3.5 -89.5t-4 -88t-4 -75t-2 -49.5q-4 -2 -15 -5.5t-23 -6.5t-22.5 -5t-14.5 -2q-3 0 -10 7t-9 12q-1 3 -3.5 17t-5.5 29.5t-5.5 29.5t-3.5 17q-1 2 -3.5 5t-5.5 6t-6 5t-4 2h-130
q0 -6 -2.5 -22t-5.5 -33.5t-6 -33.5t-5 -22q-1 -3 -8 -10t-11 -9q-1 -1 -8 -1t-10 1q-6 2 -16 5t-18.5 6t-15 5t-6.5 3v558z" />
    <glyph glyph-name="i" unicode="i" horiz-adv-x="177" 
d="M49 -8q-1 9 -3 28t-3.5 42.5t-4 49.5t-4 49t-3 42t-2.5 28q-1 8 -1.5 23.5t-0.5 31.5t0.5 28.5t1.5 15.5q0 5 7.5 13t12.5 8h20h30h30h19q1 -7 1.5 -24.5t0.5 -36t-0.5 -36t-1.5 -23.5q-1 -10 -3.5 -35.5t-5.5 -53.5t-6 -54t-5 -36q0 -4 -3 -15.5t-6 -24t-6 -24t-5 -16.5
q-2 0 -7.5 -0.5t-12 -0.5t-12 0.5t-7.5 0.5q-3 2 -11 9.5t-9 10.5zM49 430q-2 2 -5.5 4.5t-7 6t-5.5 6t-2 3.5q-2 6 -2.5 17.5t-0.5 24.5t0.5 23.5t2.5 13.5q1 2 6 5t11 6t12.5 6t10.5 3q3 1 12 1h18h17.5t11.5 -1q1 0 3.5 -2t6 -5.5l6.5 -6.5t4 -6q2 -3 5.5 -10t7 -13
t5.5 -11l2 -5q0 -1 -2 -6t-5.5 -11.5t-7 -12.5t-5.5 -10q-1 -4 -8.5 -11t-11.5 -9q-3 -2 -9 -5.5t-12.5 -6.5t-11.5 -5.5t-6 -2.5q-2 0 -7 2.5l-11 5.5t-12.5 6.5t-9.5 5.5z" />
    <glyph glyph-name="j" unicode="j" horiz-adv-x="320" 
d="M45 -225q-3 1 -10 8t-9 10q-1 3 -1 9.5t1 9.5q7 -1 22.5 -1.5t33 -0.5t33.5 0.5t22 1.5q4 0 11 7t7 11q1 8 1.5 29.5t0.5 45t-0.5 44t-1.5 28.5q0 4 -2 18t-5 32t-6 35t-5 26q-1 3 -3.5 12.5t-5.5 21.5t-5.5 23.5t-4.5 16.5q-1 5 -6.5 24t-11.5 40.5t-11.5 40.5t-6.5 24
q-1 4 -1.5 9.5t-0.5 11.5t0.5 10.5t1.5 5.5q0 1 7 3t16 5.5t17.5 6t14.5 3.5q5 2 15.5 4.5t22.5 5.5l22 5.5l14 3.5h18q2 -2 5 -7t6 -10.5t5 -11t2 -8.5q2 -13 5.5 -40.5t7 -61.5t7.5 -72.5t7.5 -73t6.5 -62t3 -41.5q1 -10 1.5 -29.5t0.5 -40.5t-0.5 -37.5t-1.5 -21.5
q0 -4 -4.5 -14.5t-10.5 -22t-12 -22t-10 -14.5q-1 -2 -6 -4.5t-10.5 -5.5t-11.5 -5.5t-8 -3.5q-6 0 -21.5 -0.5t-33 -0.5t-33.5 0.5t-23 0.5q-3 0 -10.5 2t-16 5.5t-17 6.5t-11.5 5zM45 420q-2 1 -5 4t-6.5 6t-5.5 5.5l-2 2.5q0 5 -0.5 15.5t-0.5 22t0.5 22t0.5 14.5
q0 1 2 3.5t5.5 5.5t6.5 5.5t5 4.5q3 2 8.5 5t11.5 6t10.5 5t6.5 2q4 1 14.5 1h22h22t14.5 -1q2 0 7 -2t10.5 -5l11 -6t8.5 -5q2 -2 5 -4.5t6 -5.5l5.5 -5.5t2.5 -3.5q0 -3 0.5 -8.5t0.5 -11.5t-0.5 -10.5t-0.5 -6.5q-3 -3 -10.5 -11t-16 -17t-17 -16.5t-12.5 -10.5
q-1 -1 -8 -3t-15.5 -5.5t-17.5 -6t-14 -3.5h-18q-2 0 -7.5 2.5t-11.5 5.5t-11 6t-7 4z" />
    <glyph glyph-name="k" unicode="k" horiz-adv-x="468" 
d="M44 0q-2 13 -4.5 42t-6 65t-7 76t-6.5 76t-5 65.5t-3 42.5q0 7 -0.5 20.5t-0.5 31v36.5v36.5t0.5 31.5t0.5 21h144v-177l16 -15l192 175q2 -1 7 -5t10 -9.5t9 -10t6 -6.5l10.5 -17.5l15 -25t14 -23.5t8.5 -14q1 -3 1.5 -7.5t0.5 -10t-0.5 -9.5t-1.5 -5q0 -1 -4 -3
l-9 -4.5t-10.5 -5t-8.5 -4.5q-7 -3 -22.5 -9.5t-34 -14t-39.5 -16.5t-40 -16.5t-34 -13.5t-22 -9q-1 -1 -1 -8t1 -8l3 -3t4.5 -5t5 -5.5t3.5 -2.5q2 -2 13 -8.5t24 -14t25 -15t18 -10.5q5 -4 16.5 -10t25.5 -14t29.5 -17t30 -16.5t25.5 -13.5t17 -9q1 -2 1 -6.5v-9.5v-10
t-1 -6q-5 -11 -12.5 -27t-15 -31.5t-13.5 -26.5t-7 -11h-32l-224 192q-1 -5 -3.5 -19t-5 -29.5t-4.5 -29t-3 -18.5q-1 -7 -3.5 -25.5t-5.5 -38.5t-5 -38.5t-2 -25.5q-4 -1 -12.5 -2t-19 -1t-20 1t-12.5 2q-2 1 -5 5.5t-5.5 9.5t-4.5 9.5t-1 7.5z" />
    <glyph glyph-name="l" unicode="l" horiz-adv-x="383" 
d="M24 525q0 1 11 3.5t26 5.5t31 6t27 5q4 0 14.5 0.5t23 0.5t23.5 -0.5t15 -0.5q1 -4 1 -15v-23v-23t-1 -15q-1 -12 -5.5 -47t-10.5 -81.5t-13 -100t-12.5 -100t-10 -81.5t-5.5 -47q-1 -2 -1.5 -10.5t-0.5 -17.5t0.5 -17.5t1.5 -11.5q4 0 15 -0.5t23 -0.5t23 0.5t15 0.5
q5 1 24.5 4t42 6t42 6t24.5 4h19q1 -2 1 -7.5v-12v-12t-1 -7.5q-1 -1 -3 -4t-5.5 -6t-6.5 -5.5t-4 -3.5q-10 -2 -34 -7.5t-51 -11t-51.5 -11t-34.5 -7.5q-10 -3 -25 -6t-30.5 -6.5t-27 -5.5t-12.5 -2q-4 0 -12 -0.5t-16.5 -0.5t-17 0.5t-11.5 0.5v665z" />
    <glyph glyph-name="m" unicode="m" horiz-adv-x="699" 
d="M-25 16q-1 1 -1 8t1 8q4 13 11.5 39t17.5 59t21 69t21 69t17.5 59t11.5 39q3 9 10.5 30.5t15 45.5t14.5 45t10 28q1 3 4 8.5t5.5 10.5t4.5 9.5l2 4.5q2 1 6.5 1.5t9.5 0.5t10 -0.5t8 -1.5q2 0 7.5 -2.5t10.5 -5t9.5 -5t5.5 -3.5t3 -5.5t5 -9.5t5.5 -10t3.5 -9q2 -6 6 -19
t9 -29.5t10.5 -34.5t10.5 -34.5t8.5 -29.5t4.5 -19h34q4 9 11.5 26t17.5 38t21 45t20.5 45t17.5 37.5t12 24.5q1 2 3 6.5t4.5 10t5 10.5t4.5 7l8.5 -8.5t7.5 -8.5l9 -13.5t14.5 -24t15 -26t11.5 -19.5q7 -13 23 -40t35.5 -61.5t41 -73t41.5 -72.5t35.5 -61.5t23.5 -41.5
q1 -2 1.5 -6.5t0.5 -10t-0.5 -10t-1.5 -6.5q-2 -2 -8 -8.5t-14 -14.5t-16 -15.5t-12 -11.5q-5 -4 -14.5 -11.5t-20.5 -15t-20 -14.5t-12 -9q-2 -1 -8.5 -1t-7.5 1t-3 5t-5 9.5t-5.5 10.5t-3.5 8q-1 4 -6 16t-10.5 26t-10.5 26t-6 16q-2 2 -6.5 12t-10 21l-10.5 21t-7 12
q-1 4 -8.5 21.5t-16 37t-16 36.5t-8.5 21q-2 3 -8.5 9.5l-8.5 8.5h-3.5h-5h-5h-3.5q-3 -2 -9 -8.5t-7 -9.5q-2 -5 -9.5 -24t-15.5 -41.5t-15.5 -42.5t-9.5 -25q-3 -6 -8 -18.5t-10.5 -25.5t-9.5 -24.5t-5 -14.5q-1 -2 -3 -6.5t-5 -10t-5.5 -10t-4.5 -6.5q-2 1 -8.5 7.5
t-7.5 9.5q-2 4 -8 18t-15 33t-18 40t-17.5 40t-15.5 33t-9 19q-2 2 -6 7t-9.5 10.5t-10.5 10t-8 5.5l-16 -17q-3 -7 -9.5 -23t-14.5 -35t-17 -41t-17.5 -42t-15 -35.5t-9.5 -22.5l-34 -67q-1 -1 -8 -1t-8 1q-3 1 -9.5 7.5t-7.5 9.5z" />
    <glyph glyph-name="n" unicode="n" horiz-adv-x="406" 
d="M249 22q-3 3 -10.5 13.5t-18 24t-22 29t-22 29.5l-18 24t-9.5 14q-2 1 -4.5 4l-5 6t-4.5 4.5t-3 1.5q-1 1 -4.5 1h-8h-8t-4.5 -1v-166q0 -2 -3 -4.5t-7 -5t-8.5 -4.5t-6.5 -3q-3 -1 -10 -1h-15h-15t-10 1q-2 5 -5 19.5t-5.5 30.5t-4.5 30t-2 20q0 17 -0.5 54t-0.5 83
v96.5v96.5t0.5 82.5t0.5 54.5q3 3 12.5 6.5t20 6.5t20.5 4t14 0q2 -1 8.5 -7t14.5 -14t15.5 -16t11.5 -13q3 -5 13.5 -20.5t24 -36t29 -44t29.5 -43.5t24 -35.5t13 -20.5q1 -3 7.5 -9.5t9.5 -7.5l25 17v216q0 2 3 4.5t7 5t8 4.5t7 3q4 1 11 1h15h15t9 -1q3 -1 9.5 -7.5
t7.5 -9.5v-33q-1 -21 -2.5 -54t-3 -70.5t-3.5 -75.5t-3.5 -69.5t-3 -54t-1.5 -26.5q0 -7 -1.5 -20t-3 -29t-3 -34.5t-3 -34.5t-3.5 -29.5t-2 -19.5q-3 -1 -10 -3.5t-15 -5.5t-15.5 -5t-10.5 -3q-2 -1 -8.5 -1t-7.5 1q-3 2 -10 9t-15 14.5t-15 15.5t-10 11z" />
    <glyph glyph-name="o" unicode="o" horiz-adv-x="457" 
d="M118 41q-25 19 -47 43t-34 55q-1 2 -3.5 9t-5 15t-5 14.5t-3.5 9.5q-1 7 -4 17.5t-5.5 20.5l-4.5 18t-2 10q0 7 -0.5 26t-0.5 40t0.5 39.5t0.5 25.5q0 1 2 7l4.5 13.5t5.5 15.5t4 12q1 2 3 6.5t5 10t5.5 10t3.5 6.5q12 27 32.5 45t46.5 28t55 12.5t57 -1t54.5 -13
t48.5 -22.5l8.5 -8.5t14.5 -14t15 -15t10 -11.5q3 -3 7.5 -10t10 -15t10 -14.5t5.5 -9.5q23 -46 31 -93.5t2 -102.5q0 -1 -2 -7t-5 -14t-5.5 -16t-4.5 -12q0 -2 -2.5 -6.5t-5 -10t-5 -10t-3.5 -5.5q-2 -4 -7.5 -11.5t-10.5 -15t-9 -14t-6 -8.5q-1 -3 -5.5 -8t-10 -10
t-10 -9.5t-6.5 -5.5q-22 -18 -44.5 -25.5t-46.5 -9t-50 0.5t-55 2q-2 0 -6.5 1.5t-10 4.5t-10 5.5t-6.5 4.5zM102 285q14 -19 25 -30t23 -16t27.5 -5.5t38.5 2.5q2 1 6.5 3t10 5t10 5t5.5 4q28 21 43 36t21 32t6 39t-4 56q0 2 -1.5 6.5t-4.5 10t-6 10t-5 6.5q-1 1 -6 4
t-10 5.5t-9.5 4.5t-6.5 2q-34 4 -55.5 4.5t-38.5 -6t-33 -21.5t-36 -42q-13 -20 -16.5 -39t0.5 -43q0 -2 2 -6.5t5 -9.5t5.5 -10z" />
    <glyph glyph-name="p" unicode="p" horiz-adv-x="405" 
d="M10 499v17q1 2 7.5 8.5t8.5 7.5q4 2 13.5 5t20 5.5t20 4.5t12.5 2q8 0 26.5 0.5t39.5 0.5t40 -0.5t26 -0.5q2 0 11 -2t19.5 -4.5t20.5 -5.5t15 -5q2 0 7.5 -2.5t10.5 -5t9.5 -5t5.5 -3.5l6.5 -6.5l10 -10l10 -10l6.5 -6.5q1 -1 3 -5.5t4.5 -10t5 -10.5t4.5 -7q1 -4 4 -12
t5.5 -16t4.5 -14t2 -7q1 -6 1 -20v-30v-30t-1 -19q-4 -22 -7.5 -37.5t-10.5 -28t-18 -24t-30 -26.5q-3 -2 -18 -9.5t-31.5 -15.5t-31 -15t-18.5 -9q-2 -1 -4.5 -3.5l-5.5 -5.5l-5 -5t-2 -3v-131q0 -2 -1.5 -4t-4.5 -5t-5.5 -5t-4.5 -3q-2 0 -9 -0.5t-15.5 -0.5t-15.5 0.5
t-9 0.5q-3 1 -9.5 7.5t-7.5 9.5zM175 302q0 -5 2 -17t5 -25.5t5.5 -25t3.5 -15.5q1 -1 3 -1h5h5.5t2.5 1q5 2 15 7t21 10t19.5 9.5t10.5 6.5q5 2 12 8t12.5 13t8.5 14.5t0 14.5q-8 18 -20.5 25.5t-27.5 9.5t-32 0t-35 -2q-1 0 -3.5 -2t-5.5 -4.5t-5 -5.5t-2 -5v-16z" />
    <glyph glyph-name="q" unicode="q" horiz-adv-x="496" 
d="M344 3q-7 -5 -11 -5q-29 -6 -49 -10t-37.5 -4.5t-37 2.5t-46.5 12t-47 28t-39 40q0 1 -2.5 5.5t-5 10l-5 11t-4.5 7.5q-3 10 -9 26t-11.5 32.5t-9.5 29.5t-4 14q-4 32 -5.5 68t2.5 71.5t14 69t29 61t46.5 46t66.5 25.5q41 5 78 -3t69.5 -26.5t59.5 -46t49 -60.5
q17 -32 24.5 -56t10 -48.5t1.5 -52t-2 -65.5q-5 -25 -17.5 -50.5t-26.5 -43.5q0 -2 10 -13.5t21.5 -24.5t21 -24t8.5 -14q0 -1 -8 -7t-19 -14t-22 -16.5t-19 -13.5q-3 -2 -8.5 -5t-11 -5.5t-10 -4.5l-4.5 -2q-2 1 -6.5 10t-10 19.5t-10 20t-6.5 11.5zM111 254q2 -4 7 -9.5
t10.5 -11t10.5 -9.5t7 -5q6 -2 21 -1t31.5 3t30 4.5t15.5 4.5q3 2 -0.5 10t-8 17.5t-8.5 18t-3 11.5q6 4 12.5 9t15 9.5t20 8.5t26.5 8q3 -2 8 -8.5l10 -13t7.5 -11.5t0.5 -3q1 0 5 5t8.5 11t8 12t4.5 8q5 27 1.5 52.5t-18.5 49.5q-8 11 -23 21t-28 12q-13 0 -29.5 1.5
t-33.5 0.5t-32 -5t-24 -13q-14 -12 -25 -22.5t-19.5 -22.5t-14 -26t-9.5 -32q-6 -20 0.5 -43t15.5 -41z" />
    <glyph glyph-name="r" unicode="r" horiz-adv-x="383" 
d="M68 -9q-1 4 -3.5 15t-5.5 24.5t-5 25.5l-3 18q-2 14 -4.5 42.5t-6 65t-7 76t-6.5 75.5t-5.5 64t-3.5 41q0 7 -0.5 23.5t-0.5 35t0.5 35t0.5 22.5q6 1 20 1.5t30 0.5t30 -0.5t20 -1.5q28 -6 49.5 -12.5t38 -13.5t31 -16.5t29.5 -22t30.5 -29t36.5 -38.5q14 -27 23 -63
t5 -73.5t-26 -71.5t-69 -57l100 -149q1 -1 -1 -3t-4.5 -5t-5.5 -5.5t-5 -3.5q-3 -1 -9 -1t-8 1t-11 7t-19.5 14l-21 16t-15.5 13q-6 5 -22.5 19t-35 30t-35 30t-22.5 20l-25 -17v-149q0 -1 -4.5 -1.5t-11 -0.5t-14 0.5t-12.5 1.5l-8.5 8.5t-7.5 8.5zM151 223h132q9 0 13 8.5
t5 20.5t0 23t-1 15q-13 20 -29.5 31t-35.5 16t-40.5 4.5t-43.5 -2.5v-116z" />
    <glyph glyph-name="s" unicode="s" horiz-adv-x="411" 
d="M141 -11q-3 2 -12.5 6t-20.5 9.5t-21 11t-14 7.5l-18 18q-3 4 -8 12t-10.5 16.5t-10 15t-5.5 7.5q-1 4 -1.5 11.5t-0.5 15.5t0.5 15t1.5 9q2 3 9 7t15 6.5t16 3.5t12 0q5 -6 19 -21t30.5 -31.5t31.5 -30.5t21 -19q1 -2 6 -4.5l10 -5t10.5 -5t7.5 -2.5q3 -1 8 -1.5
t10.5 -0.5t10 0.5t5.5 1.5q3 1 10 7.5t15.5 14.5t15.5 16t10 13q2 1 2 7.5t-2 9.5q-1 3 -3.5 8.5t-5.5 11t-5 9.5t-3 5t-12 8t-24.5 14.5t-27 16t-21.5 12.5l-102 51q-5 3 -13 8.5t-16.5 10.5t-14.5 9.5t-8 6.5q-2 3 -7.5 12.5t-11 20.5t-9.5 21t-6 14q0 3 -0.5 12t-0.5 20
t0.5 21.5t0.5 15.5q1 4 3 14t5 21t5.5 20.5t3.5 12.5q2 3 6 10.5t9.5 15.5t11 15.5t7.5 9.5t7 5t10.5 6t10.5 4.5t7 1.5q10 1 32.5 1.5t47.5 0.5t45.5 -0.5t27.5 -1.5q3 0 18.5 -4.5t34.5 -10l38 -11t29 -8.5q4 -1 10 -3.5t11.5 -5.5t9.5 -5t4 -3v-9.5v-19.5v-22v-17
q-1 -8 -3 -23.5t-5 -32t-5.5 -30t-4.5 -17.5q-1 -3 -7.5 -9t-9.5 -8q-1 0 -5.5 -0.5t-10 -0.5t-10.5 0.5t-8 0.5q-4 1 -19 3.5t-32.5 5.5t-32.5 5.5t-19 2.5q-5 1 -20 1h-31h-31t-20 -1v-34q7 -2 20.5 -8.5t30.5 -14.5t35.5 -17.5t35.5 -18t30 -16t18 -11.5q7 -4 18 -13.5
t22 -20.5t19.5 -20.5t9.5 -13.5q2 -3 2.5 -15.5t0.5 -29t-0.5 -33t-2.5 -24.5q0 -2 -1.5 -6.5t-4.5 -9.5t-6 -10.5t-5 -8.5q-1 -2 -7.5 -8.5t-9.5 -8.5q-2 -2 -7.5 -4.5t-11 -5.5t-10 -5t-6.5 -2q-4 0 -15.5 -0.5t-25.5 -0.5t-26.5 0.5t-17.5 0.5q-4 1 -13.5 3t-20.5 5
t-20.5 5.5t-13.5 3.5z" />
    <glyph glyph-name="t" unicode="t" horiz-adv-x="359" 
d="M77 415q-6 -1 -20.5 -1h-30h-30.5t-20 1q-1 0 -4 1.5t-5.5 4.5t-4.5 6t-3 5q-1 3 -2 8t-1 10.5t1 10t2 4.5q10 4 19 7t17 5.5t14 4.5q8 3 25.5 8t36 10.5t35 9.5t22.5 5q12 3 33.5 8.5l43 11t38.5 10t19 4.5q4 1 13.5 1.5t20 0.5t20.5 -0.5t13 -1.5v-50l-84 -34
q-1 0 -1.5 -18t-0.5 -42t0.5 -49.5t1.5 -41.5q1 -7 3.5 -27.5t5.5 -48.5t7.5 -59t7.5 -59t6 -48.5t4 -27.5q1 -4 1 -16v-25.5v-25.5t-1 -17q-2 -1 -6.5 -3.5t-10 -5.5t-10.5 -5t-7 -3q-3 0 -9 -0.5t-11 -0.5t-9 0.5l-4 0.5l-118 438z" />
    <glyph glyph-name="u" unicode="u" horiz-adv-x="442" 
d="M111 6q-2 2 -7 8t-10.5 14t-10.5 16.5t-6 12.5q-2 3 -4.5 10t-5 15.5t-5 15.5t-2.5 10q-1 3 -3.5 18.5t-5 34.5t-5 37.5t-3.5 28.5q-2 10 -4 24.5t-3.5 30.5t-3 33t-3.5 31t-2.5 23t-0.5 12q-1 12 -1.5 29.5t-1 36t-0.5 37t0.5 33t1 24t1.5 10.5l17 17l161 -20v-406
q0 -1 3.5 -7.5t7.5 -14.5l8 -16t7 -13q3 -3 9 -10t8 -7q3 0 11 -0.5t16 -0.5t15 0.5t9 0.5l4.5 4t10 9.5t10.5 11.5t9 9q3 3 7.5 9t8.5 11t6.5 9.5l2.5 4.5v392q2 1 5.5 1h7.5h8t5 -1q4 -1 9.5 -3.5t11.5 -5.5t9.5 -5t3.5 -3v-409q0 -1 -2 -5.5t-4.5 -9.5t-5.5 -10.5
t-5 -8.5q-3 -4 -12.5 -14t-20.5 -21t-21 -20.5t-14 -12.5q-2 -1 -6.5 -3.5t-9.5 -5.5t-10.5 -5t-7.5 -3q-5 -1 -14.5 -3.5t-20.5 -5.5t-20.5 -5t-12.5 -3q-4 0 -12 -0.5t-16 -0.5t-15 0.5t-8 0.5l-15 6t-20.5 9.5t-20 11t-12.5 7.5z" />
    <glyph glyph-name="v" unicode="v" horiz-adv-x="459" 
d="M-12 450q0 1 -0.5 8t-0.5 15t0.5 16t0.5 12l2 2.5t5 5t5.5 5l4.5 4.5q5 3 15.5 8.5t21.5 10.5t20 9t11 6q2 0 7 0.5t10.5 0.5t10.5 -0.5t6 -0.5t3 -2l5 -5l5.5 -5.5t3.5 -4.5l3 -6t5 -9.5t5.5 -10.5t3.5 -8q5 -10 14.5 -31.5t21.5 -48.5t25 -57t24.5 -56.5t20.5 -48
t14 -31.5q0 -1 2.5 -1.5t5.5 -0.5t5.5 0.5t3.5 1.5q3 1 9.5 7.5t7.5 9.5q4 10 12 31.5t18 48t21 56.5t21 57t18.5 48.5t11.5 31.5q1 2 3.5 7.5l5 11t5 9.5t3.5 6l3.5 3.5l5.5 5.5t5.5 5t3.5 3l2.5 0.5t5.5 0.5t5.5 -0.5t3.5 -0.5v-34q0 -2 -5.5 -18.5l-14.5 -43.5t-20.5 -60
t-22.5 -67t-21.5 -65t-18.5 -53q-2 -8 -7.5 -22.5t-12.5 -33t-14 -39t-14 -39t-12.5 -33t-7.5 -21.5q-1 -2 -3 -7.5t-4.5 -11t-5.5 -9.5t-4 -6q-2 -2 -8 -8.5t-9 -8.5l-7 -3.5t-10.5 -5.5t-10.5 -5t-6 -3q-3 -1 -9.5 -1t-7.5 1q-3 2 -9.5 8.5t-7.5 8.5z" />
    <glyph glyph-name="w" unicode="w" horiz-adv-x="661" 
d="M243 43q-1 1 -5.5 7t-9.5 14t-10 15t-7 11q-3 5 -9 14.5t-13.5 22t-16.5 26t-16.5 26t-14 23t-9.5 15.5t-10 16.5t-14.5 24t-14 23.5t-9.5 15q-4 8 -13 24t-19 33.5t-19 33t-12 20.5q-1 3 -3.5 8l-5 10l-4.5 9t-3 5t-1 7.5t1 8.5q4 4 15 15.5t24 24t24.5 23.5t15.5 16
q2 2 7 4.5l10 5t9.5 4.5t5.5 2q3 0 8 -6.5t8 -9.5l126 -254q1 -1 3 -3.5t4.5 -5t5 -4.5t3.5 -2q3 -1 9 -1t7 1q1 0 3 4l4.5 9l5 10t3.5 8q3 9 9.5 26t14 39t16.5 46t16.5 46t13.5 39t9 26q1 -1 3.5 -3t5 -4.5t4.5 -5t3 -3.5q2 -5 9.5 -18t17 -31t20.5 -38t21 -38l17.5 -31.5
t9.5 -17.5q1 -3 7 -9t9 -7t9.5 -1t6.5 1l94 253h32q1 -3 1 -12v-19v-19.5t-1 -12.5q0 -3 -4 -18.5t-9.5 -35.5t-10.5 -40.5t-8 -32.5q-4 -15 -10.5 -40.5t-14.5 -55t-17 -60.5t-16.5 -57.5t-13 -46t-7.5 -25.5q-1 -2 -3 -7.5t-4.5 -10.5t-4.5 -8.5t-3 -4.5t-5.5 -1h-9.5h-10
t-7 1t-7 3t-10 4.5l-9 4.5t-5 3t-3.5 5t-5 9t-4.5 10.5t-3 7.5q-2 4 -6.5 15.5t-10 24t-10 24t-5.5 16.5q-1 1 -3.5 8t-5 15t-5 15t-2.5 9q-1 1 -3 3.5t-4.5 5t-5 4.5t-3.5 3t-8 1t-8 -1q-1 -4 -6 -13t-10 -19l-9.5 -19t-6.5 -12q-2 -6 -7 -18.5t-11 -28.5t-13 -33
t-13 -32.5t-11.5 -28t-7.5 -18.5q-1 -1 -8 -1t-8 1q0 1 -2 3t-5 4.5t-5 5t-3 3.5z" />
    <glyph glyph-name="x" unicode="x" horiz-adv-x="409" 
d="M20 16q-1 3 -1.5 9.5t-0.5 14.5t0.5 15t1.5 10q3 5 11 16.5t17.5 26t20.5 30.5t21 31t17.5 27t10.5 17q2 2 4.5 6.5t5 10t5 10t2.5 6.5q1 3 1 9t-1 8l-4.5 6.5t-9.5 14.5t-10.5 16t-8.5 12q-2 3 -8.5 12t-15 20.5t-18 25t-17.5 25t-15 20.5t-8 12q-2 2 -4.5 6.5t-5 10
t-4.5 10t-3 6.5q-1 3 -1 9t1 8l83 82q2 3 8 3t8 -3q1 -1 5 -6.5t9 -13.5t10.5 -16t8.5 -13q5 -8 17 -26.5t25 -39.5t24.5 -40t15.5 -26h16l116 148q3 -3 10.5 -9.5t15 -14.5t14.5 -15l10 -10q1 -2 1 -8t-1 -9l-131 -184l97 -194q2 -3 2 -9.5t-2 -7.5q-1 -3 -5.5 -8t-9.5 -10
t-10 -9t-8 -6l-2.5 -0.5t-5 -0.5t-5 0.5t-3.5 0.5q-4 6 -15.5 20t-25 29.5t-25.5 30t-17 19.5q-2 3 -7 8.5t-10 10.5t-9.5 9t-5.5 5t-7.5 1t-9.5 -1q-1 -1 -7.5 -7t-8.5 -9q-5 -5 -14 -17t-20.5 -26.5t-24 -30.5t-23.5 -30.5t-20.5 -26.5t-12.5 -18q-3 -1 -8.5 -1t-8.5 1
q-1 1 -4 3t-6 4.5t-4.5 5t-1.5 4.5z" />
    <glyph glyph-name="y" unicode="y" horiz-adv-x="442" 
d="M75 -63q-2 2 -7.5 6.5t-11.5 10.5t-10.5 11t-5.5 7q-1 1 -1 8t1 9t3 6.5t5 10t5.5 11t4.5 8.5t9.5 16t16.5 28l16.5 27.5t9.5 15.5q2 4 5 9.5t6 11.5l5 10t2 5q1 2 1 6.5v10.5v11t-1 7t-3 7t-4.5 10.5t-5.5 10.5t-5 7q-2 4 -10 14.5t-19 25t-23.5 31t-23 31t-19 25
t-10.5 14.5q-1 2 -4 7t-5.5 11t-5 11l-3.5 7l-0.5 2.5t-0.5 5.5t0.5 5.5t0.5 3.5q1 1 3.5 6t5 10.5t5.5 11t4 7.5q2 5 9.5 18t16 27t16 26.5t11.5 16.5q3 2 9 2t8 -2q1 0 3 -2l5 -5t6 -5.5t4 -4.5q4 -6 14.5 -18t22.5 -28t25 -33t25 -32.5t21.5 -28.5t14.5 -19l35 -17
l141 211q2 2 8.5 2t9.5 -2q1 -1 3.5 -6t5.5 -10t5.5 -10.5t3.5 -8.5v-18q0 -1 -2 -5.5t-5 -10l-6 -11t-5 -8.5q-8 -15 -22.5 -42.5t-33.5 -62.5t-40.5 -76t-44 -83t-44.5 -83t-41 -76.5t-33.5 -62.5t-22.5 -42q0 -4 -7 -11t-11 -7q-1 0 -5.5 2t-10 5l-11 6t-8.5 5z" />
    <glyph glyph-name="z" unicode="z" horiz-adv-x="375" 
d="M184 24q-2 1 -13.5 3t-25 4l-27 4t-21.5 3t-21 3.5t-25 4.5q-13 2 -28 5v123q21 19 34 42.5t23.5 49t22.5 50.5t31 46q0 2 0.5 5.5t0.5 7.5t-0.5 9t-0.5 6q-1 3 -5.5 8t-6.5 6q-3 1 -13.5 3t-23.5 4t-24 4t-14 2q-1 1 -4.5 2.5t-7.5 4t-7 4.5t-5 3q-1 4 -1.5 13.5
t-0.5 20t0.5 20.5t1.5 14q0 1 3 5.5t7 8.5t8 7.5t6 5.5q3 1 10 3t15.5 4.5t15 4t9.5 1.5h260q1 -6 1.5 -23.5t0.5 -37.5t-0.5 -37t-1.5 -24q-1 -3 -6 -10.5t-11.5 -17t-12 -17.5t-7.5 -10q-14 -27 -30 -48.5t-31 -43.5t-28.5 -44.5t-21.5 -51.5q-2 -3 -2 -8.5t2 -5.5
l123 -27q1 0 4 -9.5t7 -22t8 -27t6 -23.5v-7v-8.5v-7.5v-4q-2 -1 -7 -3t-11 -4.5t-11.5 -4t-7.5 -1.5q-3 0 -20.5 1.5t-38.5 4t-43 4.5t-34 3z" />
    <glyph glyph-name="bullet" unicode="&#x2022;" horiz-adv-x="765" 
d="M150 -55q-2 1 -8 3.5t-8 3.5h-87q-1 0 -3 1q-2 0 -3 0.5t-2 0.5t-2 0.5t-2 0.5q-2 0 -3 1l-3 3v1q1 0 1.5 1.5t1.5 1.5q0 1 4 2.5t5 1.5q2 1 5.5 2.5t4.5 2.5q2 0 7.5 2t7.5 2l2 2v4q-1 6 -1.5 17.5t-0.5 12.5q0 2 -1.5 5.5t-1.5 4.5v16q1 0 2.5 6t2.5 8l1 2q0 1 1 2
q1 2 3 4t2 3l7 7q2 1 3 2t1.5 1t1.5 1l7 3.5l7 3.5h1q2 0 3 1q2 1 3 2q2 0 9 1t9 1h23q1 0 6 -0.5t11 -0.5t11 -0.5t6 -0.5h50q1 0 5.5 0.5t6.5 1.5t8.5 4t8.5 5q1 0 3.5 3t3.5 4l4 8q1 1 2.5 5.5t3.5 6.5q1 3 3 8.5t4 11.5t4 10.5t2 5.5q1 2 3 10t4 10l4 16t4 14
q1 1 1.5 4.5t1.5 4.5q1 5 3.5 14.5t3.5 11.5q0 1 2 6.5t3.5 12t3.5 12t2 6.5q0 2 2 8.5t3 8.5q-1 0 -1.5 1t-1.5 1h-6q-1 -1 -3.5 -4.5t-3.5 -4.5q-2 -3 -11.5 -12t-12.5 -11l-2 -2q-1 -1 -2 -1t-1 -1l-5 -2.5t-4 -2.5q-2 -1 -6.5 -3t-5.5 -2t-4.5 -1t-4.5 -1q-2 -1 -6 -1.5
t-5 -0.5q-2 0 -10.5 -1.5t-17.5 -2.5t-17.5 -2.5t-10.5 -1.5q-1 0 -3.5 -1t-4.5 -1q-2 -1 -7 -3t-7 -3q-1 0 -1 -0.5t-1 -0.5q-1 -1 -2 -1q-1 -1 -3.5 -4t-3.5 -5q-2 -2 -3 -4t-1 -3v-61q-1 -1 -1.5 -4.5t-1.5 -5.5l-2 -6q0 -1 -1.5 -3t-2.5 -4t-4 -5l-4 -4l-2 -2
q-1 -1 -3.5 -3t-3.5 -2q-1 -1 -4.5 -2.5t-4.5 -2.5q-1 0 -3 -1t-3 -1q-2 0 -6.5 -1t-5.5 -1h-5h-4.5t-4.5 1q-3 0 -6 1q-1 0 -6.5 2.5t-7.5 4.5q-2 1 -5 3.5t-4 3.5q-2 2 -7 9t-6 9l-7 14q0 2 -2.5 8t-2.5 8q-1 2 -1.5 6.5t-0.5 6.5q-1 3 -1 13t1 12q0 2 0.5 8t1.5 8
q0 2 1.5 8.5t3.5 8.5q0 1 2.5 6l4.5 9q0 1 0.5 2.5t0.5 2.5q1 1 4.5 6.5t5.5 7.5q1 2 3.5 4.5t2.5 3.5q2 1 6 5.5t6 6.5q2 1 6.5 5.5l6.5 6.5q2 1 4 2.5t3 1.5q2 2 9.5 4.5t9.5 3.5q1 0 2.5 1t3.5 1q1 0 4.5 1.5t4.5 1.5t3 0.5t4 0.5t4 1q3 0 8.5 0.5t12 0.5t12.5 -0.5
t9 -0.5q2 0 11 -1t11 -1q5 0 14.5 -1.5t10.5 -1.5h7q1 0 6.5 1.5t7.5 1.5q2 1 5 1.5t4 0.5q1 1 4.5 2.5t4.5 2.5v4q-2 2 -7 10t-7 10q-1 0 -1 1v2q-1 1 -1 2q0 2 -1.5 7t-2.5 7t-1.5 5.5t-0.5 4.5q-1 0 -2 8t-2 11v5q1 2 2 7.5t2 7.5q0 2 0.5 6t1.5 6q1 3 2.5 10t1.5 9
q0 1 2 5l3 6t4.5 10.5t3.5 10.5q1 0 1 1t-1 1l-2 2l-3 3q-1 2 -2 5.5t-1 4.5l-2 4t-1 3v44q-2 0 -9 1.5t-9 2.5t-7 2t-6 2q-3 1 -9.5 3.5t-7.5 3.5q-2 1 -10 6.5t-10 7.5t-7 5.5t-7 5.5t-8.5 8t-7.5 8q-1 1 -4 6.5t-4 7.5t-4.5 8.5t-5.5 9.5l-4 12q-2 2 -2 6q-1 1 -1.5 4
t-1.5 5q0 2 -1 6t-1 5q-1 3 -1.5 9t-0.5 7v20q0 3 1 10t1 9q0 1 1.5 8t3.5 10q0 5 2 7q0 2 2.5 8t3.5 8q2 0 2.5 2t1.5 2q1 2 4 7.5t4 6.5t4 5.5t5 6.5t5.5 6t5.5 6l-2 3q-4 -1 -8 -1q-3 -1 -6.5 -1t-5.5 -1q-2 0 -9 -1.5t-9 -2.5t-7.5 -2.5t-7.5 -1.5q-1 -1 -9.5 -4.5
t-10.5 -4.5q0 -1 -2.5 -1.5t-3.5 -0.5q1 2 5 6t6 5q1 0 6.5 2.5t7.5 3.5q1 0 2.5 1t3.5 1q1 1 5 1.5t5 1.5q2 0 8.5 1.5t7.5 1.5h30l2 2l2 2l4 2q2 2 2 5h2q1 0 2 1q1 0 1.5 0.5t1.5 0.5t1.5 1t2.5 2q1 1 3 2q0 1 1 5t1 5q1 3 2.5 10.5t1.5 8.5q1 1 3 5l3 6t4 9.5t5 9.5
q0 2 1 3t1 1.5t1 1.5q2 3 4.5 6t3.5 3q2 2 8 8.5t8 8.5q1 1 5 4t5 4q2 1 7 5t7 4q1 0 2.5 1t3.5 1q1 1 3.5 1.5t4.5 2.5q3 1 6 3q5 2 12.5 4.5t9.5 3.5q3 1 7 1h6.5t6.5 1h2q2 -1 9 -1q3 0 7 -1q2 -1 6.5 -3.5t7.5 -4.5q0 -1 2.5 -3t3.5 -4q1 -1 3.5 -5.5t3.5 -5.5l3 -2
q3 2 13 6.5t13 4.5q1 1 4 1.5t4 0.5q2 1 9 2.5t9 2.5q2 0 6 1t5 1h29q2 0 6 -1t6 -1q1 0 2.5 -1t2.5 -1q2 -2 6.5 -4t5.5 -2q2 -2 4.5 -5.5t3.5 -4.5q0 -1 1 -4t1 -5v-15q0 -1 -1 -4.5t-1 -5.5q-1 -1 -1.5 -3t-1.5 -3q-1 -4 -3 -11t-2 -8q-1 0 -4 -6t-4 -7q-1 -2 -2.5 -6.5
t-1.5 -5.5t1 -1.5t1 -1.5l2 -1q1 -1 2 -1h6q1 2 5.5 6.5l9.5 9.5t9.5 9t6.5 5t6.5 4t6.5 5q2 1 8 3.5t8 3.5t5.5 2t4.5 1t3.5 -1t4.5 -2q0 -1 1 -1l1 -1q-4 -2 -16.5 -7l-17.5 -7q-3 -1 -11.5 -5t-10.5 -6q-1 -1 -4.5 -3t-5.5 -4l-4 -4l-4 -4q-3 -3 -4 -6v-2q3 2 16 8t18 8
q1 0 2 1q1 0 2 0.5t2 0.5q2 2 8.5 3.5t7.5 1.5q2 0 7.5 1t6.5 1h18q1 0 4 -1.5l5 -2.5q0 -1 1.5 -1.5t1.5 -1.5q-2 0 -7 -1t-7 -1q-1 0 -5.5 -0.5t-9.5 -0.5t-9.5 -0.5t-5.5 -0.5q-2 0 -8 -1t-8 -1t-8.5 -2t-9.5 -4q-1 0 -3.5 -1t-3.5 -1q-2 -1 -7 -3t-7 -3q1 0 3.5 -3
t3.5 -4q2 -3 11.5 -13.5t12.5 -13.5q1 -1 5.5 -8.5t6.5 -9.5l5 -2q2 -1 4.5 -3t2.5 -3q2 -1 5.5 -4t4.5 -4q0 -1 1.5 -4l2.5 -5q0 -2 0.5 -4t0.5 -3q1 -1 1 -5.5t-1 -6.5q0 -1 -0.5 -4.5t-0.5 -4.5v-1q0 -2 0.5 -7.5t0.5 -6.5q1 -5 1 -18.5t-1 -17.5q0 -1 -0.5 -6.5
t-0.5 -8.5q0 -2 -1 -6t-1 -5t-1.5 -5t-3.5 -6q-2 -4 -5.5 -10.5t-3.5 -8.5q-1 0 -5.5 -5t-6.5 -7q-1 -2 -3.5 -4.5l-3.5 -3.5q0 -1 -4 -3.5t-5 -3.5l-2 -2v-2q2 0 9 -1.5t9 -1.5l12 -4q1 0 4.5 -1.5t4.5 -2.5q2 -1 4 -2.5t3 -1.5q1 -2 6 -6.5t7 -5.5q2 -3 5 0q1 0 8 2.5
t8 3.5q2 1 4.5 2t3.5 1q4 1 12.5 1t11.5 -1q3 0 6 -3l9 -9l9 -9q1 -1 2.5 -3.5t2.5 -4.5t3.5 -9.5t3.5 -9.5q0 -1 2 -5q1 -2 1 -4v-40q-1 -2 -2.5 -7.5t-2.5 -7.5q-1 -1 -3 -5q-1 -2 -2 -3q-2 -3 -6.5 -7.5l-6.5 -6.5q-2 0 -7 -3.5t-7 -3.5q0 -1 -1 -1t-1 -1t1 -4.5t1 -4.5
q1 -2 1 -8t-1 -8t-1 -3q0 -2 -0.5 -2.5t-0.5 -1.5q-1 -2 -3 -5t-2 -4q-1 -2 -3.5 -5.5t-3.5 -4.5q-3 -4 -11.5 -12t-10.5 -10t-14 -10t-14 -10q-4 0 -4 -4q-1 -2 -5.5 -10t-6.5 -12q-2 -3 -7 -13.5t-7 -12.5q-1 -2 -4 -9t-7 -16t-7.5 -17t-5.5 -12q-2 -2 -4 -8.5t-4 -8.5
q-1 -2 -4 -11.5t-5 -13.5q-2 -5 -6 -18t-5 -16q-1 -2 -2.5 -9.5t-1.5 -9.5v-6q0 -1 1 -1l1 -1q1 -1 5 -1t5 -1q2 -3 4 -5l4 -4q0 -1 1.5 -1t2.5 1q2 0 9 1.5t14.5 3t14 3t8.5 1.5t4 0.5t4 0.5q3 0 5 1h49q1 0 8 -1.5t10 -3.5q2 -1 7 -2.5t7 -1.5q2 -2 4 -3q2 -2 3.5 -2.5
t3.5 -1.5l4 -2q2 -1 3 -2q1 -2 4 -5.5t4 -4.5q1 -2 2 -3q3 -3 2 -3q1 0 1.5 -2t2.5 -3q0 -2 1 -4t1 -3v-16q0 -1 -2.5 -6.5t-3.5 -6.5q-1 -2 -2.5 -9.5t-1.5 -9.5v-4q3 -1 15 -1.5t16 -0.5q1 -1 4.5 -1.5t6.5 -1.5q1 0 3.5 -0.5t2.5 -2.5q1 0 2 -1q2 -3 0 -5l-2 -2l-4 -2
q-1 0 -4.5 -1t-5.5 -1q-1 -1 -5 -1.5t-6 -0.5q-4 -1 -16 -3t-15 -3q-2 0 -8 -0.5t-13 -1.5t-13 -1.5t-7 -0.5q-3 -1 -11 -1q-4 0 -8 -1q-2 -1 -6.5 -2.5t-6.5 -2.5h-55q-2 0 -4 1t-3 1v5l11 12v2l-1 1q-1 0 -1 1q-2 0 -10 -0.5t-10 -1.5q-2 0 -7 -1t-7 -1q-2 -1 -10 -2.5
t-10 -3.5h-28q-2 0 -4.5 1.5t-3.5 2.5q-2 0 -2 2q-1 1 -1.5 4t-0.5 5h-3q-1 -1 -9 -1.5t-9 -1.5h-5q-2 0 -6 -0.5t-5 -1.5l-2 -4q0 -1 -2 -1q-1 0 -1 -1q-2 -1 -6.5 -4t-6.5 -4q-1 0 -3.5 -1t-3.5 -1q-2 -1 -9.5 -2.5t-9.5 -2.5q-1 0 -14.5 -2t-21.5 -4q-2 -1 -12 -2.5
t-12 -2.5q-1 0 -3 -0.5t-2 -1.5q-1 -1 -1.5 -4.5t-1.5 -5.5l-6 -6q-1 0 -2.5 -1t-2.5 -1q-2 -1 -3.5 -1.5t-2.5 -1.5q-2 0 -5 -1t-4 -1q-4 -1 -13 -3t-10 -2q-2 0 -8.5 -0.5t-8.5 -0.5q-1 -1 -8.5 -0.5t-9.5 0.5q-2 -1 -9 -1.5t-9 -1.5q-1 -1 -2 -1t-2 -1q-1 0 -3.5 -2
t-3.5 -2q-1 -1 -4 -2.5l-5 -2.5q-1 0 -3 -2q-1 -1 -3 -1h-24q-1 0 -2.5 1.5t-3.5 1.5zM148 -48q2 -2 6 -2h24q1 0 5 1.5t5 2.5q0 1 4 3t5 3q1 0 2.5 2.5t2.5 2.5q0 1 2 3.5t2 3.5q1 2 3 5.5t3 4.5t1 3q0 4 1 5q0 2 1 7t1 7q0 -2 1 -6t1 -5v-21q2 -2 5 -2q0 -1 2.5 -1.5
t3.5 -1.5q2 0 5 -1t4 -1h10q1 0 5 1t6 1q0 1 3 1.5t3 1.5q2 0 6 2q2 1 3 2l12 12q1 1 3.5 4.5t3.5 4.5l1 2q3 1 10 2.5t14.5 3t14.5 3t9 2.5t8.5 2.5t8.5 1.5q3 2 10.5 4.5t9.5 3.5t7.5 3.5t6.5 3.5l5 5l6 6q2 0 2 4v12q0 3 -2 5q-1 2 -3.5 5t-3.5 3q-1 2 -7.5 7t-8.5 7
l-9.5 9.5t-8.5 9.5q-1 1 -2.5 3t-1.5 3q-1 3 -1 13.5t1 13.5q0 2 1.5 10t2.5 13q1 4 2.5 11.5t2.5 8.5q0 1 1.5 7.5t4 15t4.5 16t3 12.5l2.5 7.5t3 9.5t3 9t1.5 5q1 4 5.5 16.5t5.5 17.5q0 2 1.5 6t2.5 5q2 5 7 16t7 14v-4q0 -1 -1 -6t-1 -6v-4q1 1 3.5 3t3.5 3q1 2 2.5 7
t1.5 7v-14q0 -3 -2 -5q-1 0 -2.5 -1.5t-2.5 -1.5l-7 -2q-3 -3 0 -6q2 1 9 1.5t9 2.5q4 0 15 1.5t13 2.5t10 2t10 1q2 1 14.5 4.5t17.5 5.5q2 0 3 1q1 0 1.5 0.5t1.5 0.5q4 2 11.5 4.5t8.5 2.5t10 5t14 7l2 1q1 0 2 1q5 2 15.5 9t12.5 9q2 1 6 4t6 5q2 3 10 10.5t10 10.5
q1 2 2 3t1 1.5t1 1.5q2 2 4 8t3 6q1 4 1 11.5t-1 8.5l-2 2q-4 1 -15 1.5t-14 1.5q-2 0 -7 0.5t-7 1.5q-2 0 -6.5 1.5t-5.5 1.5q-2 0 -4.5 1t-3.5 1q-1 1 -7 2.5t-7 2.5h-3q-1 0 -1 -1l-2 -2q-1 -1 -4.5 -6t-4.5 -6t-3.5 -4.5t-4.5 -3.5q-1 -1 -6.5 -4.5t-7.5 -4.5
q0 -1 -2 -1.5t-3 -0.5q-2 -2 -6.5 -3.5t-5.5 -1.5q-2 0 -10 -1t-12 -1h-12q-3 0 -10 1t-9 1t-5 1t-5 1q-2 1 -7 2.5t-6 2.5q-4 1 -14.5 6t-12.5 7q-1 1 -5 4t-6 5t-7.5 7t-7.5 6q-1 0 -4 -1.5t-4 -1.5q-3 -3 -5 0q-2 0 -3 1q-1 0 -1 0.5t-1 0.5t-1 1l-2.5 2.5t-2.5 1.5v4
l12 -9q2 0 2.5 0.5t1.5 0.5l1 2q0 1 1 2q0 1 -2 4t-4 4v2q2 -1 6.5 -4.5t5.5 -5.5q2 -1 7.5 -5t7.5 -5q1 0 4 -3t5 -4q1 -1 3.5 -2.5t2.5 -2.5q3 -2 14 -7t13 -7q2 0 4 -1t3 -1t4 -0.5t5 -0.5q8 -2 12 -2q5 -1 19.5 -1t18.5 1q1 0 4.5 0.5t4.5 1.5q1 0 6.5 2t7.5 3t4 3l3 3
l8 8t7 8q1 1 3 4.5t4 5.5q1 2 3 5.5t2 4.5q1 2 2.5 7t2.5 7q1 3 2.5 9.5t1.5 8.5q0 1 1 10.5t1 14.5v3q0 3 -1 14t-1 13v4l5 -2q2 2 4 3t4 3q2 0 4 3t3 4q-2 2 -6 7t-6 7q-1 1 -6.5 3t-7.5 4q-1 0 -4 1t-4 1q-2 1 -5.5 1.5t-4.5 0.5q-2 1 -7 1t-7 -1q-4 0 -8 -2l-5 -2.5
t-4 -1.5q-1 -1 -5 -5.5t-6 -6.5q0 -1 -1.5 -3.5t-2.5 -3.5t-2.5 -4.5t-1.5 -4.5q-1 -1 -2.5 -6t-2.5 -8q-1 -1 -2.5 -5.5t-3 -10t-3 -10t-1.5 -5.5t-1.5 -5.5t-2.5 -6.5q-3 -3 -3 -6q-2 -2 -5.5 -5t-4.5 -4q-3 -3 -10 -5q-1 0 -3.5 -1t-3.5 -1h-11q-1 0 -4 2t-5 3t-4 3l-3 3
q-1 1 -2 1q-2 1 -3 0q-1 0 -7 -2.5t-8 -2.5q-2 -1 -9 -1t-10 1q-1 1 -2 1q-2 0 -2 1q-2 0 -5 3.5t-4 5.5q-1 1 -1 2q-1 1 -1 2t-1 3.5t-1 3.5t-1 6t-1 6q-1 1 -4.5 1.5t-5.5 0.5q-1 0 -2 0.5t-2 0.5q-2 0 -3 1q-1 0 -4 4t-5 5t-3 4.5t-1 4.5q-1 2 -1.5 8t-0.5 8
q-1 0 -3.5 -1t-3.5 -1q-2 0 -5.5 -1t-4.5 -1q-2 -1 -8 -1.5t-7 -0.5q-3 -1 -15 -1t-15 1q0 -1 -2 -1q-1 0 -1 -1q-1 -2 -1 -8.5v-8.5l1 2q0 1 1.5 3.5t1.5 3.5v1q0 1 1 2q0 1 1 2q1 -1 1.5 -4.5t1.5 -5.5q0 -1 1 -7t1 -8t1 -6t1 -6q0 -1 1 -3.5t1 -3.5v21q1 2 1.5 8t0.5 8
l4 -3q1 0 3 -10.5t3 -16.5q1 -4 1 -11t-1 -8l-2 -2l-4 6q-2 -3 -5.5 -8.5t-4.5 -7.5l-7 -14q0 -1 -2 -5.5t-2 -6.5q-1 -2 -2.5 -7t-2.5 -6q0 -1 -0.5 -5t-1.5 -6q0 -2 -0.5 -4t-0.5 -4q-1 -3 -1 -5v-23q0 -1 1 -6.5t1 -7.5q0 -1 0.5 -2t0.5 -3t1 -4t4.5 -9.5t4.5 -9.5
q1 -1 2.5 -3t2.5 -3l4 -4v2q-1 1 -3.5 6t-3.5 6q-1 3 -3 8t-2 7v13q1 -2 4.5 -6.5t6.5 -10t6 -10.5t5 -7q1 -2 4 -9t5 -9v-2h-7q0 -1 1 -1l1 -1q2 -2 7 -5.5t7 -4.5q2 -2 9 -4.5t9 -3.5t6.5 -2.5t6.5 -1.5q2 -5 5 0v4q-2 2 -5 2v16q0 1 1 2l2 2q1 0 1 1l1 1v-18q0 -1 2 -3h2
q1 2 3.5 6.5t3.5 5.5q0 1 1.5 1.5t1.5 1.5q-1 -3 -4 -14t-4 -14q0 -1 -1.5 -5.5l-3 -9t-2.5 -8.5t-1 -5q-1 -3 -3 -10.5t-4.5 -15t-4 -14t-2.5 -9.5q0 -1 -2 -8.5t-2 -8.5q-1 -2 -3.5 -11t-4.5 -13q-1 -3 -3 -10.5t-3 -9.5q0 -1 -2 -5.5t-4 -10.5t-4 -11.5t-3 -8.5
q-1 -2 -2.5 -7t-2.5 -5q-1 -2 -5 -9t-5 -9l-1 -1q0 -1 -1 -1q-2 -1 -8 -5q-3 -2 -5 -4q-1 0 -6 -2.5t-7 -2.5q-3 -1 -7 -2t-5 -1h-102q-2 0 -9.5 -0.5t-10.5 -1.5q-2 0 -5.5 -1t-4.5 -1l-7 -3.5l-7 -3.5q-1 0 -4.5 -4.5t-5.5 -6.5q-1 -1 -2.5 -3t-2.5 -3q0 -1 -1.5 -4
t-1.5 -4q0 -2 -1 -6t-1 -6v-6q0 -1 1 -3t1 -3q1 2 4.5 6.5t5.5 5.5q2 2 8.5 9.5t8.5 10.5q1 0 2.5 1t2.5 1q-2 -2 -8.5 -10.5t-8.5 -11.5q-1 -2 -2 -3t-1 -2v-1q-1 -1 -2.5 -4t-1.5 -4q-1 -1 -1.5 -4t-1.5 -4q0 -2 -1 -5t-1 -4v-13q0 -1 1 -3.5t1 -4.5q1 -1 2.5 -4t2.5 -4
q3 -3 3 -5q2 -2 7.5 -4t6.5 -2q2 -1 10 -1t10 1q1 0 2.5 0.5t2.5 0.5v7q-1 1 -1.5 4.5t-0.5 4.5q-1 3 -1 11t1 10q0 3 2 7q0 1 2 4t3 4q1 2 2.5 4.5t2.5 3.5q1 2 4 5l4 4q2 0 3.5 0.5t2.5 0.5q-2 -2 -7.5 -9.5t-6.5 -10.5q-2 -2 -3.5 -5.5t-1.5 -5.5v-23q0 -1 2.5 -6t4.5 -7
q0 -2 2.5 -3.5t3.5 -3.5q2 0 4.5 -2t3.5 -2zM577 8q2 -2 6 -2h18q2 0 7 1.5t7 2.5l7.5 7.5t8.5 9.5l1 1q0 1 1 2q1 4 1 12t-1 10q0 1 -2.5 6.5t-3.5 7.5l-10 10v2q0 1 1 1t1 -1q1 0 4 -1.5t4 -2.5q0 -1 2.5 -4t3.5 -4q2 -5 3 -5q0 -2 1 -4.5t2 -4.5q1 -3 2 -5v-17l-2 -2
q-1 -1 -1 -4q-2 0 -2 -4v-2h9q4 0 6 2q2 1 7.5 3.5t6.5 3.5q2 1 6.5 5t5.5 6q1 1 2.5 4l2.5 5q0 2 0.5 6t0.5 6v4q0 2 -0.5 6.5t-0.5 6.5q-1 1 -1.5 3.5t-1.5 4.5q-1 1 -1 2t-1 2t-3 3.5t-2 3.5q-1 1 -3.5 4t-3.5 3t-5.5 2.5t-6.5 3.5h6q1 0 4 -2t4 -2q2 -2 6 -5.5t6 -5.5
q1 -1 2.5 -3.5t1.5 -3.5t2 -5t2 -5v12q0 3 -2 7q-1 2 -2 5t-1 4q-2 1 -6 5l-6 6q-1 0 -3.5 2t-3.5 3t-5 2.5t-5 1.5q-1 1 -3 1.5t-2 1.5q-2 0 -5.5 0.5t-4.5 1.5q-5 0 -7 1q-2 0 -4 1h-52q-4 -1 -7 -1q-4 -1 -9 -1q-2 -1 -7.5 -1.5t-7.5 -0.5q-1 -1 -5 -1.5t-6 -1.5
q-2 0 -10 -2t-10 -2q-2 -1 -7 -1q-2 0 -4 -1h-11q2 0 3 1q1 0 1.5 0.5t1.5 0.5t5 1t5 1l1 2l-6 7h-19q-2 0 -6 -1t-5 -1l2 2l2 2q1 0 2.5 1.5t2.5 1.5q1 1 3.5 1t3.5 1q1 2 1.5 8t1.5 8q0 1 0.5 4t1.5 5q0 2 3.5 13t5.5 16q0 2 1.5 4t1.5 3q1 4 3 10.5t2 7.5q1 2 4 9
t6.5 14.5t6.5 14.5t4 10t4 9.5t6 13.5t6 13.5t4 9.5v3q-1 1 -2.5 1t-1.5 -1q-2 0 -10.5 -1t-11.5 -2q-2 0 -5.5 -1t-4.5 -1q-4 -2 -7 -2q-2 -2 -11 -6.5l-11 -5.5q-4 -2 -7 -5q-1 0 -1.5 -1.5t-1.5 -1.5l-3.5 -7l-3.5 -7q-2 -4 -9.5 -17t-10.5 -17q-1 -3 -5 -10.5
t-8.5 -16.5l-8.5 -17l-5 -10q0 -1 -3.5 -7t-5.5 -8t-4.5 -6.5t-2.5 -5.5q-2 -1 -3 -3t-2 -3.5t-1 -2.5q-2 -2 -3 -3.5t-3 -3.5t-3 -4q-2 -2 -9.5 -9t-9.5 -9q-1 0 -3.5 -2.5t-4.5 -2.5q0 -1 -0.5 -1.5t-0.5 -1.5v-2q0 -1 0.5 -3t0.5 -3q2 -1 2.5 -2t1.5 -2q2 -3 12 -12.5
t13 -11.5t8.5 -8t6.5 -7t2.5 -4l2.5 -5q0 -1 1 -4t1 -4l3 -2h9q1 0 5 0.5t8.5 0.5t8.5 0.5t5 0.5h5q2 -1 7 -5t6 -6q1 0 3 -1.5t4 -2.5q1 -1 4.5 -2.5t4.5 -2.5q1 0 5 -0.5t6 -1.5h8q1 1 5.5 1.5t6.5 0.5q2 1 4.5 1.5t3.5 1.5h1q1 0 2 1t3 2q2 2 6 6.5t5 5.5t2.5 4.5
t2.5 5.5l2 -2q0 -1 1 -6t1 -6t1.5 -3.5t1.5 -4.5q1 -1 2.5 -4t2.5 -4l5.5 -5.5l6.5 -6.5q1 -1 2 -1t1 -0.5t1 -0.5zM104 133q0 -1 1.5 -4t1.5 -5q0 3 1 9t1.5 13t1.5 13t1 8q0 3 1 8.5t1 7.5q0 1 1 3.5t1 3.5q1 -2 2 -10.5t2 -12.5q0 -2 0.5 -11.5t1.5 -13.5v-9l3 3
q0 1 1.5 7.5t2.5 10.5q1 2 1.5 6.5t1.5 6.5q0 2 1 10.5t1 10.5t0.5 6t1.5 5q1 -2 2.5 -11.5t1.5 -11.5q2 -3 3 -16.5t1 -17.5l2 2q0 2 1 4t1 4l4 63q1 1 1 3q0 3 1 4q0 1 1 2.5t1 2.5l6.5 6.5l5.5 5.5q1 0 6.5 1.5t7.5 2.5q1 0 10 1t14 2q2 1 7.5 1.5t6.5 1.5q2 0 6 0.5
t5 1.5q3 0 11 2.5t10 2.5l1 1l1 1q2 2 3.5 7.5t1.5 7.5v19q0 2 -1 6t-1 5q-1 2 -2.5 6t-2.5 4h-4q-1 0 -6 -2t-6 -2t-4.5 -1t-5.5 -1q-6 -4 -10 -4h-10q-2 1 -5 1.5t-4 2.5q-1 1 -4 3.5t-3 3.5h48l4 3h-7t-11 0.5t-11.5 1t-8.5 0.5q-2 0 -14.5 1t-15.5 1h-24q-2 0 -8 -1
t-8 -1q-2 -1 -8.5 -2.5t-8.5 -2.5q-3 -2 -7 -3q-3 -2 -6 -2.5t-4 -1.5q-1 -2 -3.5 -3.5t-3.5 -2.5q-2 -1 -5.5 -3.5t-4.5 -2.5q-1 -2 -6 -7.5t-7 -7.5q-1 0 -3 -2.5t-4 -4.5q-2 -3 -5.5 -8.5t-3.5 -6.5q-2 -2 -4.5 -9.5t-3.5 -9.5q-1 -3 -2.5 -9t-2.5 -8v-46q0 -1 1 -5t2 -6
q0 -2 1.5 -6.5t1.5 -6.5q0 4 1 17.5t1 18.5q0 2 1 8t1 9q1 -3 2.5 -9.5t3.5 -13.5t4 -13t2 -8q1 -2 2.5 -7.5t2.5 -7.5q0 5 1 17t1 15q0 2 1.5 9.5t1.5 9.5q1 -1 1.5 -4.5t0.5 -4.5q2 -7 5 -21.5t3 -17.5q0 -1 1 -5.5t1 -5.5q1 -1 3 -5q0 3 1.5 14t1.5 14q0 4 1 17t1 17
q1 -4 3.5 -17t3.5 -17q0 -2 2 -13.5t2 -14.5zM364 124h4q1 1 3.5 2.5t2.5 2.5q2 1 8 7.5t9 9.5q1 1 3 5t3 5q2 2 6 8q2 3 3 6q1 2 6.5 12t11.5 21.5t11.5 22t6.5 13.5q2 3 7.5 12t7.5 12q0 1 3.5 7t4.5 8q3 3 8.5 14l7.5 15v2h-2q-2 0 -5.5 -1t-4.5 -1q-2 -2 -7.5 -2.5
t-7.5 -1.5q-3 0 -9 -1t-7 -1q-2 0 -12 -1t-13 -1q-1 0 -1.5 -1t-1.5 -1q0 -1 -1 -2.5t-1 -2.5q-2 -5 -6 -17t-5 -14q0 -2 -2 -10t-4.5 -17t-5.5 -17t-4 -12q-1 -3 -2.5 -10t-3.5 -14.5t-3.5 -14t-1.5 -8.5q-1 -2 -2.5 -12t-3.5 -13v-9zM54 243q0 1 1 3t1 2.5t1 2.5v1
q0 2 1 3q0 2 1 3q1 2 3.5 6t3.5 5q1 2 5.5 5.5t6.5 5.5q0 1 2 2.5t3 2.5q1 0 2.5 1t2.5 1h3q-3 -3 -8.5 -12t-7.5 -12q-1 -2 -6.5 -11t-7.5 -11q0 -1 -1.5 -3t-2.5 -3q-1 1 -2 4t-1 4zM75 249q1 0 2.5 3.5t2.5 5.5l2 4q1 1 1 3q1 1 5 3.5t5 4.5q-1 -4 -5.5 -14t-5.5 -13
l-3 -3t-4 -2v8zM88 244q0 4 3 7q1 1 3 3.5t3 3.5q0 -1 -1.5 -5.5t-2.5 -6.5l-2 -3q-3 0 -3 1zM140 285q2 0 4.5 1t3.5 1h4q-1 -1 -5.5 -3.5t-6.5 -3.5q-1 0 -1 -0.5t-1 -0.5q-1 -1 -2 -1h-2q1 1 3 3.5t3 3.5zM224 285q2 0 4 1q2 0 3 0.5t3 0.5h6q-1 -1 -4 -2.5t-5 -1.5
q0 -1 -3 -1t-4 1v2zM120 287q1 1 3.5 4t3.5 4l7 3.5t6 2.5q3 1 10.5 1t10.5 -1q-2 0 -5.5 -2t-5.5 -2q-2 -1 -10.5 -5t-10.5 -5q-1 0 -3.5 -1t-3.5 -1h-2q-1 0 -1 1t1 1zM218 297q2 0 11.5 2t12.5 2h6q-2 -2 -10.5 -5t-11.5 -4h-10q-2 0 -2 3zM112 303q0 1 2.5 3t2.5 3
q2 0 5.5 2t4.5 2q2 1 4 1h3h34q-1 0 -3.5 -0.5t-3.5 -0.5t-5.5 -1t-5.5 -1q-2 -1 -10 -3.5t-11 -4.5q-1 0 -6 -2t-6 -2q0 -1 -3 -1q-1 0 -2 -1h-5q1 1 2.5 3.5t2.5 2.5zM282 335q-2 0 -2 -2t2 -2t2 2t-2 2zM289 349q-1 0 -2.5 3.5t-2.5 4.5q0 2 -1 6t-1 6v8q1 -1 3.5 -5
t3.5 -5t3.5 -6.5t4.5 -7.5t6 -9t5 -9h-6q-1 0 -6 6t-7 8zM274 343q-2 0 -2 -3t2 -3t2 3t-2 3zM311 345l-2.5 2.5t-2.5 1.5l-3.5 7t-2.5 7q-1 1 -1 4t1 5q0 -1 1.5 -2.5l2.5 -2.5t5.5 -8.5t6.5 -9.5q0 -1 1 -2q0 -1 1 -2v-2h-2q-2 0 -3 1q-1 0 -2 1zM320 353q-1 1 -2.5 5
t-1.5 5v6q0 -1 1 -1l1 -1q2 -2 5 -6.5t4 -5.5q0 -1 1 -2q0 -1 1 -2v-2h-4q-1 0 -2.5 1.5zM331 363q-1 1 -1 2q-1 1 -1 2v5q0 -2 3 -5l4 -4q0 -1 1 -2.5t1 -3.5h-2q-1 2 -2.5 3.5zM297 379q2 0 2 -2.5t-2 -2.5t-2 2.5t2 2.5zM259 387q-1 0 -1 1t1 1v-2zM257 408q-1 2 -1.5 4
t-1.5 3v14q0 1 1 3t1 3t1 2q1 2 2 7.5t1 7.5q2 2 5 8.5t5 8.5q0 1 1.5 3.5t2.5 3.5l1 1q0 1 1 2q0 -3 -1.5 -10t-2.5 -10q0 -2 -1.5 -8.5t-3 -15t-3 -15.5t-1.5 -9q0 -1 -0.5 -4t-2.5 -4q-3 3 -3 5zM270 421q0 2 1 6.5t1 5.5t1 3.5t1 3.5q2 2 5.5 8.5t4.5 8.5v-10
q0 -3 -1 -12.5t-1 -11.5q0 -1 -1 -4.5t-1 -5.5q-2 -1 -2.5 -4t-1.5 -3q0 -2 -2 0q0 2 -1.5 7t-2.5 7v1zM289 411q-1 0 -1.5 3.5t-1.5 5.5v1q1 2 1.5 6.5t1.5 5.5q0 1 2.5 6.5t2.5 7.5l1 1q1 0 2 1q1 -2 1 -8t-1 -8q0 -3 -1 -11.5t-2 -10.5q0 -1 -0.5 -1.5t-0.5 -1.5v-2
q-1 0 -2.5 2t-1.5 3zM306 413q-2 2 -2 5v13l2 4q1 2 1 3t1 2q1 0 1.5 1t1.5 1v-24q0 -4 -3 -7zM321 432q1 0 1 0.5t1 0.5v-13h-3v11zM577 452q2 -1 5.5 -1.5t7.5 -1.5t9 -2h30q1 0 5 1t7 1q1 1 3 1.5t4 1.5q0 1 1 1t2 1q1 0 3.5 1.5t4.5 1.5l2 2q1 2 3.5 5.5t2.5 4.5
q1 1 1.5 2.5t1.5 2.5q1 2 2.5 7.5t1.5 6.5v36q0 2 -1.5 8.5t-2.5 9.5q-1 2 -3.5 8t-3.5 8q0 1 -2 3t-2 4q-2 1 -5.5 4t-4.5 5q-1 1 -2 1q-2 0 -2 1q-2 0 -4 1q-2 0 -3 1h-17q-1 0 -4 -1t-4 -1l-9 -4.5l-9 -4.5q-1 -1 -4.5 -3.5t-5.5 -3.5q-4 0 -4 -4q-1 -1 -3 -4.5t-3 -5.5
q0 -5 -1 -21.5t-1 -21.5q0 -1 -1.5 -6t-1.5 -7q-1 -1 -1.5 -4t-1.5 -5q0 -2 -3 -11t-3 -11v-4q2 -1 3 -1h3q2 -1 5.5 -1.5t4.5 -0.5zM350 467q2 0 2 -2t-2 -2t-2 2t2 2zM347 469q2 0 2 -2t-2 -2t-2 2t2 2zM363 474q1 0 1 -2.5t-1 -2.5q-2 0 -2 2.5t2 2.5zM361 476
q2 0 2 -2.5t-2 -2.5t-2 2.5t2 2.5zM429 488q1 -1 3.5 -1.5t3.5 -0.5q0 -1 1.5 -1t2.5 1q1 0 4.5 0.5t4.5 1.5h1q1 0 2 1q1 0 2 1q2 0 5 3.5t4 5.5q1 1 2.5 3t3.5 3q0 2 1 5.5t2 4.5q0 1 1 3.5t1 3.5q1 2 1.5 6t0.5 5q1 1 1 3.5t-1 2.5q0 5 -2 7q-1 2 -2.5 4.5t-2.5 3.5
q-4 0 -6 2q-1 0 -1.5 0.5t-1.5 0.5t-3 1h-10q-1 0 -3.5 -1t-3.5 -1q-1 -1 -3 -2.5t-4 -1.5q0 -1 -1.5 -2.5t-2.5 -3.5q-1 -1 -2.5 -3t-1.5 -4q-1 -1 -2.5 -4t-2.5 -4q0 -2 -1 -5t-1 -4v-19q0 -1 1 -3t1 -3q1 -2 4.5 -5t4.5 -4zM379 493q0 -1 1 -1h3q2 -1 3 -1q2 0 7 1t7 1
l6 6l2 2l1 2q0 1 1 2q1 2 0.5 7.5t-0.5 7.5q0 1 1 3l2 4q0 2 1 4.5t1 3.5t2 4t3 5q1 1 3.5 6t3.5 6v2q-1 1 -3.5 3t-3.5 4q-1 0 -3.5 1t-3.5 1h-16q-1 -1 -3 -2t-3.5 -2t-2.5 -1q0 -1 -2.5 -2t-4.5 -2q-1 0 -1 -1t-1 -1q-2 -2 -5.5 -7.5t-3.5 -6.5q-1 -2 -2.5 -6t-3.5 -5
v-23q0 -1 1.5 -2.5l2.5 -2.5q0 -1 2.5 -3t3.5 -3q0 -1 2 -2t3 -2zM293 503q-1 1 -1.5 3.5t-0.5 3.5q-1 5 -1 13.5t1 9.5l2 2q1 -2 3.5 -11t3.5 -12v-13q0 -2 -3 -2q-4 2 -4 6zM276 503q-1 1 -1 -2t1 -2q2 1 2 2.5t-2 1.5zM311 501q-2 2 -3.5 5t-1.5 4v23q1 -3 3.5 -11.5
t4.5 -11.5v-11q-2 0 -2 1q-1 0 -1 1zM320 527l7 -19q0 -1 -1 -1t-1 1q-1 0 -3 2l-2 2v15zM260 515q-1 1 -1 -2.5t1 -2.5q2 1 2 3t-2 2zM331 524q1 -1 1.5 -3t1.5 -4v-2h-3v9zM259 526q-1 0 -1 -2.5t1 -1.5v4zM345 531q0 -2 3 -2.5t4 -1.5h5q0 1 1 1.5t1 2.5l2 6q1 2 3 7.5
t4 7.5q0 1 1.5 3t2.5 3q1 2 3.5 3.5t3.5 3.5q3 2 6 3q6 2 8 3q1 1 5 2.5t6 2.5v2q-1 1 -2 3.5t-2 4.5l-2 2q-3 3 -3 2q-1 0 -3 1.5t-4 2.5l-2 1q-1 0 -2 1q-2 0 -5.5 1t-4.5 1t-5 -1t-6 -1q-1 -1 -2 -1t-2 -1q-2 -1 -4 -2.5t-3 -1.5q-1 -1 -4 -3.5t-3 -3.5q-1 0 -2.5 -3
t-2.5 -4l-2.5 -5t-1.5 -4q-1 -1 -1.5 -4.5t-0.5 -4.5q-1 -1 -1 -4t1 -5q1 -1 1 -3q0 -4 1 -4q0 -1 1 -2.5t1 -2.5l3.5 -3.5t3.5 -2.5zM476 554q1 -2 3 0q1 2 5.5 10.5t6.5 11.5l4 7v3h-2q-2 -1 -11.5 -3t-10.5 -3q-2 0 -7.5 -0.5t-6.5 -1.5q-2 -1 -7.5 -5.5t-7.5 -5.5
q0 -2 -4 -2q4 0 4 4q1 1 2.5 3.5t2.5 3.5v2h-3q-2 -1 -6.5 -3.5t-6.5 -3.5q-4 0 -4 -4q1 -1 3 -3.5t3 -3.5h3h1q1 0 1.5 0.5t1.5 0.5q2 0 4 1h17l4 -2q4 -2 6 -2zM240 562q2 -1 7.5 -1.5t6.5 -0.5h48q1 1 4 1h4t4 1q2 0 5 1.5t4 1.5q1 1 2 1t2 1l2 2q0 1 4 6.5t5 7.5l7 7
t7 6q1 0 4 2t5 3q1 1 3.5 1.5t3.5 0.5h11q1 -1 3 -1t2.5 -0.5t1.5 -0.5q2 -1 5 -3t4 -2t4 -3l5 -5q0 -1 1.5 -3.5t2.5 -4.5l2 -4q2 -2 3 -2q1 -1 3.5 -1.5t3.5 -1.5h7q1 1 5 3t6 4q1 1 4.5 3.5t4.5 4.5q2 2 11 9.5t13 9.5q-1 -1 -3 -4.5t-3 -4.5q-2 -2 -3 -4q-2 -2 -2 -3
l-1 -1q-1 0 -1 -1t1 -1h2q3 0 8.5 1t6.5 1q2 0 8.5 1.5t8.5 2.5q1 1 5.5 2.5t6.5 1.5q2 1 6 3.5t6 3.5q1 0 3.5 1.5t4.5 3.5q1 0 4 2.5t4 3.5t3 2.5t4 3.5l4 4q2 1 5 5t4 6q2 2 4.5 5.5t3.5 5.5q0 1 1.5 5.5t2.5 6.5q1 1 1.5 3.5t0.5 3.5q1 1 1.5 4t1.5 4v3t1 4l2 4v40
q0 2 -2 6q-1 2 -1 3h-19q2 0 6 0.5t6 1.5l2 1l2 2q1 0 3 2t3 4q0 1 1 3t1 3v8q0 1 -1 4t-1 5l-2 2q-1 1 -1 3q-1 1 -2.5 3t-2.5 3l-2 2l-2 2q-2 1 -5.5 2.5t-4.5 2.5h-15q-2 -1 -4 -1.5t-3 -1.5q-1 0 -3.5 -2.5l-3.5 -3.5q1 -3 1 -11.5t-1 -10.5q0 -2 -0.5 -9t-2.5 -9
q0 -2 -1 -5.5t-1 -4.5q-1 -1 -3 -6.5t-4 -7.5q0 -1 -1.5 -3.5t-1.5 -3.5q-2 -1 -5.5 -4t-4.5 -4t-6 -4t-8 -5q-1 -1 -2 -1t-2 -1q-2 -1 -7.5 -3t-6.5 -3l-4 -6l-2.5 -2.5t-1.5 -2.5q-1 0 -5 -2t-5 -2t-1.5 -1t-1.5 -1l3 -3q1 0 6 -3t6 -3q2 -2 10 -7t10 -7q0 -1 2.5 -1
t4.5 1q2 0 6.5 3.5t6.5 5.5l9 9l9 9q1 2 4.5 6.5t5.5 6.5q0 1 1.5 5.5t2.5 6.5q2 4 2 7q1 2 2 6t1 5v16q0 2 -1 6t-2 5q0 2 -1.5 7t-2.5 7h2q1 -1 2.5 -1.5t2.5 -1.5h5q1 1 1 3v3l-1 6v3q3 -3 3 -5q1 -1 1 -5.5t-1 -6.5q-3 0 -5 -2v-4q0 -2 1 -8t1 -8v-14q0 -2 -1 -7t-1 -6
t-2.5 -5t-3.5 -6q-1 -3 -3.5 -8t-2.5 -7q-1 -1 -3.5 -4t-4.5 -4q-2 -3 -8.5 -10t-8.5 -9q-1 0 -5 -2.5t-6 -4.5q-2 0 -5.5 -2t-4.5 -2h-2q-3 2 -13.5 10.5t-13.5 10.5l-5 2.5t-5 1.5q-2 -2 -11.5 -8t-12.5 -8q-4 -2 -12.5 -6t-10.5 -6q-2 0 -12.5 -3t-14.5 -5q-2 -1 -6 -1.5
t-5 -0.5h-39q-1 0 -5.5 0.5t-6.5 1.5q-2 0 -3 1q-1 0 -3 1l-7 3.5t-7 2.5q-2 1 -3 2l-3 3q-2 1 -5.5 3.5t-4.5 3.5q-1 0 -1 1l-1 1q-1 1 -2.5 4t-2.5 4q-1 2 -3 6.5t-3 6.5q-1 0 -2 3q-1 1 -1 3v32q0 2 1 6t2 5h-7q-1 1 -2.5 1.5t-1.5 2.5q-4 0 -4 4q1 1 2 3q1 1 1 2t1 2
t1 2t1 2l2 3h2q1 0 2 1q0 -1 -1.5 -3t-2.5 -3q-2 -2 -2 -5v-6q1 -1 3.5 -1t2.5 1q2 0 5 1.5t4 2.5v-2q0 -1 -1.5 -4t-1.5 -4q-1 -2 -1 -6v-5v-25v-4q0 -4 1 -5t1 -1.5t1 -1.5q0 -1 1 -3t3.5 -6t3.5 -5q1 -2 5.5 -6.5t6.5 -5.5q1 -1 5.5 -4.5t6.5 -5.5q1 0 3 -0.5t3 -0.5
q1 -1 3 -1.5t3 -1.5q2 0 6.5 -1t5.5 -1h39q3 1 7 2q8 2 10 3q2 0 7 1.5t7 2.5t6 2.5t6 1.5q2 2 6.5 4t6.5 3q1 1 3 2t4 3t5 4t4 3l4 4q-2 1 -6.5 1.5t-6.5 1.5q-1 1 -3 1q-4 0 -4 1q-1 0 -5.5 2t-5.5 2h-7q-1 0 -4.5 -1t-4.5 -1h-34q-1 0 -6.5 1.5t-7.5 2.5t-6.5 3.5
t-6.5 3.5q-1 0 -3.5 1.5t-3.5 2.5q-2 2 -5.5 4.5t-4.5 3.5q0 4 -4 4q-1 1 -4.5 5t-5.5 6q-1 1 -1.5 2.5t-1.5 3.5t-2 3t-3.5 5.5t-5 9.5t-5 9.5t-3.5 5.5t-3 3.5t-4 3.5q-1 2 -4 3.5t-4 1.5h-17q-4 0 -9 -5q-2 -2 -8.5 -9t-8.5 -9q-1 -1 -1 -2t-1 -2q-1 -5 -1 -14t1 -10
l8 -11h-2q-1 1 -3.5 2.5t-2.5 2.5q-1 2 -3.5 4.5t-2.5 4.5v21q0 1 1 3q0 1 0.5 2t0.5 2q1 0 3 2.5t3 3.5l9 9q2 1 3 2l3 3q1 0 2.5 1t2.5 1h1q1 0 1 0.5t1 0.5t3 1t8.5 1t8.5 -1l6 -2h5q-1 1 -1.5 4.5t-1.5 4.5q0 7 -2 11q0 2 -2 8q-1 3 -1 6v24q0 1 1.5 5.5t1.5 6.5
q0 1 0.5 2t0.5 3t1 4t2.5 6t2.5 5v2q0 1 -1 1.5t-1 1.5h-5l-11 -11v14q0 1 1 4t1 5q2 3 3.5 10.5t2.5 9.5q2 2 6 10.5t6 13.5q1 0 2.5 2t1.5 3q1 1 6 6.5t7 7.5q0 1 2 3t8 7.5t7 6.5q2 2 10.5 6t10.5 6v3h-4q-2 0 -5 -1.5t-4 -1.5l-10.5 -3.5t-9.5 -3.5t-9 -3.5t-9 -3.5
q-2 -2 -8.5 -7.5t-8.5 -7.5t-10 -9.5t-11 -9.5q0 -1 -2.5 -4.5t-4.5 -5.5q-1 -2 -3 -4t-2 -3q-2 -3 -4.5 -9.5t-3.5 -8.5q0 -1 -1.5 -6.5t-2.5 -7.5q0 -1 -1 -4.5t-1 -5.5q-1 -1 -2 -5t-2 -5q-1 -2 -3 -4l-5 -5q-1 -1 -6 -4.5t-6 -4.5q-2 -2 -7.5 -8t-8.5 -8q-2 -2 -6 -7
t-5 -7q-2 -2 -7 -10t-6 -10t-2 -5q-2 -6 -2 -7q-2 -3 -4.5 -10.5t-3.5 -9.5t-1.5 -6t-0.5 -5v-49q1 -2 1 -4v-4t1 -3q0 -2 1 -5t1 -4q1 -2 3 -7.5t3 -6.5q1 -3 5.5 -13t6.5 -13q0 -2 3 -5.5t4 -4.5q2 -2 10.5 -10t10.5 -10q1 0 3.5 -2.5t4.5 -3.5q3 -2 8 -6t6 -4
q2 -2 7.5 -4t6.5 -3q2 -1 10 -4t10 -3zM563 562q2 0 2 -2t-2 -2t-2 2t2 2zM252 565q-2 0 -7.5 1.5t-6.5 2.5t-3.5 2.5t-3.5 2.5h9q7 -1 18 -1t22 -1q12 -1 26 -1l2 -2q-1 -1 -4 -2.5t-4 -1.5q-2 -2 -6 -2.5t-5 -0.5q-3 -1 -13 -1t-13 1q-1 0 -5 0.5t-6 2.5zM263 580
q-2 1 -6.5 3t-6.5 3h39l2 -3q-1 0 -2.5 -1.5t-2.5 -1.5t-5.5 -1t-6.5 -1h-2q-1 0 -4 1t-5 1zM202 586q-2 0 -4 2t-3 2q-2 1 -5.5 5t-7.5 7.5t-7.5 7l-4.5 4.5q-1 2 -4 7t-5 7q0 1 -1 3t-1 4v2q2 -1 5.5 -4t5.5 -5q1 -1 5.5 -5t9.5 -8.5t9.5 -8.5t5.5 -5t6.5 -5.5t7.5 -5.5
l2 -2q1 -1 2.5 -4t1.5 -4h-8q-1 0 -4.5 2t-5.5 4zM276 596l-2 -2h-6q-2 2 -5 2h13zM495 601q2 2 8 6t7 5t5.5 4.5t6.5 5.5q2 1 7 5.5t7 4.5q1 0 2 1q2 2 3 2h1v-4q0 -4 -3 -7q-2 -1 -5.5 -4.5t-4.5 -5.5q-1 0 -3.5 -2t-3.5 -2q-3 -2 -11 -6l-12 -6q-2 -2 -6 -2h-5q1 0 3.5 2
t3.5 3zM202 608q-2 2 -6.5 6t-5.5 6q-2 2 -3.5 5t-3.5 6q-3 4 -5 8v3q2 -2 11 -9t11 -9t10 -10.5t10 -10.5h-12q-2 1 -3 2zM488 610q3 2 11.5 9t10.5 9q1 1 2.5 1.5t2.5 1.5h2q0 -1 -1 -2.5t-1 -2.5q-1 -1 -3.5 -3t-3.5 -3t-2.5 -3t-3.5 -3t-9 -4t-10 -5q1 1 3 2.5t2 2.5z
M491 624q0 1 2.5 2.5t3.5 1.5v-4l-11 -4q1 0 2.5 1.5zM208 626l-4 4t-4 5q-1 1 -2.5 3.5t-2.5 3.5v2q2 -2 10.5 -7t10.5 -6q0 -1 1 -1.5t1 -1.5q2 0 2 -4q1 0 1 -1t-1 -1h-2q-2 0 -5.5 2t-4.5 2zM156 642q1 -2 0 -3q-2 0 -2 1.5t2 1.5zM206 651q3 0 6 -3q0 -1 2 -3t2 -3
t-1 -1t-1 1q-1 0 -4 2.5t-4 3.5v3zM556 662q1 2 1.5 9t1.5 9q0 5 1 18.5t1 17.5l2 4q1 -2 2.5 -3.5t1.5 -2.5q3 -3 3 -7v-15q-1 -2 -1.5 -7t-1.5 -7q0 -2 -1.5 -7t-2.5 -6q-1 -2 -4.5 -9.5t-5.5 -9.5l-2 -2q1 2 3 9t2 9zM204 656q2 0 2 -2.5t-2 -2.5t-2 2.5t2 2.5zM544 662
q1 3 1.5 11.5t1.5 10.5q0 2 2 4h2v-19q0 -2 -1 -3.5t-1 -3.5q-1 -1 -2.5 -4t-2.5 -4v8zM144 665l-4 4q0 1 -1 3.5t-1 3.5q-1 2 -1.5 6.5t-0.5 5.5v15q0 3 1 11t1 10q0 1 2 6t4 8l2 4l2 4v-41q0 -2 1 -11.5t1 -11.5v-24l-3.5 3.5t-2.5 3.5zM541 673v-6q0 -1 -1 -2.5t-1 -2.5
v11h2zM161 669q-1 1 -3 4t-2 5q-1 1 -1.5 5t-0.5 5q-1 2 -1 10.5t1 11.5q0 1 0.5 6.5t1.5 7.5q0 1 1.5 4t1.5 5q0 -2 1 -5t1 -4q1 -6 2.5 -18t2.5 -14v-25q-4 0 -5 2zM410 671q2 0 5.5 -1t4.5 -1h16q1 0 3 1q2 0 3 0.5t2 0.5q2 0 4 1t4 1q1 1 2.5 1.5t2.5 1.5l2 2v6
q-1 2 -2.5 3.5l-2.5 2.5q-1 0 -2 1h-2q-1 0 -1 1q-2 1 -5 1.5t-4 0.5h-7q-2 0 -7 -1t-6 -1l-7 -3.5t-7 -4.5q-2 0 -2 -4q1 -1 1 -2q0 -2 1 -2q0 -1 2 -3zM345 676q1 -1 2 -1t3 -1t4 -1h32q1 0 3 1l4 2l2 1q1 0 2 1l2 2q1 1 1 2q1 1 2 4t2 4l2 2l4 2q1 0 4 1t4 1q1 1 4.5 1.5
t4.5 1.5q4 0 4 2l1 1l1 1q2 1 2.5 3t0.5 4v2h-16q-5 0 -18.5 -1t-17.5 -1q-1 -1 -4.5 -2.5t-5.5 -2.5h-20l-7 2q-2 1 -6 1.5t-5 1.5h-5t-9 0.5l-10 1t-8 0.5h-4q-1 0 -1 -1t1 -1q0 -1 1.5 -3.5t2.5 -3.5q1 -2 5.5 -5.5t6.5 -5.5q1 -1 3 -2q2 -2 4 -2q1 -1 5 -4t6 -4l4 -2
q1 0 3 -1t4 -1zM174 688q-1 1 -1 2q-1 1 -1 2q0 2 -1 5t-1 4v9q0 2 1 7t1 7q0 -1 0.5 -1t0.5 -1t1 -2q2 -5 4.5 -15.5t3.5 -12.5v-8l-2 -2q-1 1 -2.5 3t-3.5 3zM457 694q2 -2 4 -3q3 -3 4 -3q1 -1 4 0q3 0 5 2q1 1 4.5 2.5t4.5 1.5q1 1 4 2.5t4 2.5l11 11q1 2 2 3l3 3
q0 2 1.5 5.5t1.5 4.5q2 2 0 5h-2q-1 -1 -13 -4.5t-14 -4.5q-1 -1 -4.5 -1.5t-4.5 -0.5q-1 -2 -7.5 -5t-7.5 -3q-2 -1 -7.5 -1.5t-7.5 -0.5q-1 0 -1 -1t-1 -2t-1 -2q-1 -1 -1 -2v-2q1 -1 2 -1q1 -1 2 -1q2 -1 7.5 -2.5t7.5 -2.5zM223 694q1 0 6 1t7 1q1 1 3.5 1.5t2.5 1.5v-3
h6l-2 -2q-1 0 -3 -1t-3 -1q-2 0 -9 1t-8 1zM186 720q1 -3 2 -10t2 -9v-5l-4 5v19zM224 714l1 1l1 1v-4h-2v2zM297 716q2 0 9.5 -1t9.5 -1h65q2 0 14 1t18 1q5 1 14 1.5t9 2.5l2 2v26q0 1 -1 6.5t-1 7.5t-0.5 5t-2.5 5q0 2 -2.5 10t-3.5 10t-2.5 5.5t-2.5 5.5q0 2 -2.5 6.5
t-4.5 6.5l-3 6t-4 6q-1 2 -4 7t-4 7q-3 3 -4 5l-3 3q-2 3 -10.5 11t-10.5 10q-1 1 -3.5 3t-4.5 2q-1 2 -6 4t-6 2q-1 1 -5.5 1.5t-6.5 0.5q-2 1 -7.5 1t-7.5 -1q-1 0 -4 -0.5t-5 -1.5q-1 0 -4 -1t-4 -1t-4.5 -1.5t-3.5 -2.5q-2 -1 -5 -3.5t-4 -3.5q-2 -2 -6 -7t-5 -7
q-2 -1 -4.5 -6l-3.5 -7q-1 -1 -1 -3q-1 -1 -1 -3v-1q-1 -2 -1.5 -5t-0.5 -4q-1 -2 -1.5 -9t-1.5 -9v-7q1 -3 1.5 -10t1.5 -9q0 -2 1.5 -8.5t2.5 -8.5t3.5 -9.5t4.5 -9.5q1 -3 6 -13.5t7 -12.5q1 -2 2.5 -2.5t1.5 -1.5zM442 756q1 -5 1.5 -17.5t0.5 -16.5q2 -1 5.5 -1t4.5 1
q1 0 6 0.5t9 1.5q1 0 4.5 1t5.5 1q1 1 4.5 1.5t4.5 0.5q3 1 11 3.5t9 3.5q1 0 2.5 1.5t2.5 1.5q0 1 1 2q0 1 0.5 1t0.5 1v27q-1 2 -1 4q-1 2 -1 7q-1 2 -1.5 5.5t-1.5 4.5q0 2 -1.5 6.5t-1.5 6.5l-3 6t-2 5q-2 2 -6 11.5t-5 11.5t-4 6t-4 5q-1 2 -3.5 5t-3.5 5q-1 1 -4 4.5
t-6.5 7t-7 6.5t-4.5 4q0 1 -3 2.5t-4 1.5q-3 2 -7.5 4.5t-6.5 2.5h-27q-1 0 -5 -1.5t-6 -2.5q-3 -3 -7 -5l-2 -2q-1 -1 -2 -1q0 -1 -1.5 -2.5t-1.5 -3.5v-2q2 -2 7 -8t7 -8t5 -6t4 -5q2 -2 7.5 -10t6.5 -10t5 -10.5t6 -12.5q1 -2 2.5 -5.5t1.5 -5.5q2 -2 3 -8t2 -8
q0 -3 2 -11q1 -4 2 -7zM226 733h-2l2 2v-2zM549 735q0 -1 -1 -1t-1 1q-1 1 0.5 1t1.5 -1zM559 746l2 -2v-2l-5 2zM246 748q-1 0 -1 1t1 1q0 1 2 3v-7q-1 0 -1 1zM192 758q0 1 1.5 3t1.5 4q0 1 1 2q0 1 0.5 1t0.5 1q1 2 2.5 4t2.5 3l16 16q-1 -2 -3 -8t-3 -8q-2 -2 -5 -7.5
t-3 -6.5q-1 -1 -3 -3.5t-4 -2.5q0 -3 -5 0v2zM174 765q1 1 2 3q1 1 1 2t1 2q0 2 2 4t5 7.5t3 6.5q1 1 6.5 6t7.5 7q1 1 4.5 3.5t5.5 3.5v-2q-1 0 -2 -2t-2 -3q-2 -3 -5 -8.5t-3 -7.5q-2 -4 -7 -11t-7 -9q-1 -2 -4 -5l-4 -4h-4v7zM216 767q1 0 1 1t1 2l2 2v-3q0 -1 -0.5 -3.5
t-1.5 -3.5l-2 -2h-2q0 1 1 3.5t1 3.5zM156 772q0 1 1.5 3t1.5 3l3 6t4 6q1 2 4 5.5t4 5.5q3 2 9.5 8.5l8.5 8.5t5 4.5t5 3.5q1 1 4.5 2.5t5.5 1.5q-2 -2 -7.5 -9t-7.5 -9q-1 -2 -7 -10t-8 -10t-4 -5.5t-4 -4.5q-1 -1 -4.5 -6.5t-3.5 -6.5l-7 -7h-3v10zM561 765v-3h-2v3h2z
M539 769q2 0 2 -2t-2 -2t-2 2t2 2zM542 782v-4h-1v2zM517 787q0 -1 1 -2.5t1 -2.5q2 1 5 4t5 4t6 2.5t6 1.5v2q0 1 -1 2.5t-1 2.5q-1 1 -4.5 5t-5.5 6l-3.5 3.5t-3.5 2.5v-2q1 -1 3 -4t2 -4v-5l-3.5 3.5t-4.5 3.5q-2 2 -7 9t-7 9v-4q0 -7 3 -10l11 -11l2 -2q0 -1 1 -2
q1 -2 0 -3l-9 10q-1 0 -1 -2.5t1 -2.5q0 -2 1.5 -7t2.5 -7zM529 801q1 0 1 -1t-1 -1q-1 -1 -1 0.5t1 1.5zM519 824q-2 0 -2 -3t2 -3t2 3t-2 3zM93 830q1 1 3.5 2.5t3.5 2.5l2 1q1 0 2 1q2 1 6.5 1.5t5.5 0.5h22q2 0 8 -0.5t8 -1.5q2 0 9 -1.5t9 -2.5q1 -1 3 -1.5t3 -1.5
q-4 0 -12.5 0.5t-18 0.5t-18 -0.5t-12.5 -0.5q-3 -1 -7 -1q-2 -1 -6 -1h-2h-11l1 1zM497 837q1 0 4.5 -1.5t5.5 -2.5q0 -1 0.5 -1t0.5 1q-1 1 -2.5 3t-3.5 3q-2 2 -5 4t-4 3v-2q0 -1 1.5 -4t2.5 -3zM567 839q-1 0 -7 1.5t-9 1.5q-2 1 -11 1.5t-11 0.5l10 2h51q1 0 3.5 -1
t3.5 -1q5 0 10 -5q1 -1 3.5 -3t2.5 -3q-1 -1 -5.5 -1t-6.5 1q-1 0 -6 1t-10.5 2t-10.5 2t-7 1zM184 837q0 -1 -1 -1t-1 1t1.5 1t0.5 -1zM163 844q-1 0 -5 0.5t-6 1.5t-8.5 1.5t-7.5 0.5q-5 0 -20.5 1t-20.5 1v2q2 2 2 3q1 0 2.5 1.5t2.5 1.5h27q1 0 5 -1.5t6 -1.5
q5 -1 11 -3t8 -2q1 0 8 -3t11 -5q0 -1 1 -1q0 -1 0.5 -1t0.5 -1h-2q-2 2 -7.5 3.5t-7.5 1.5zM525 842q-2 -2 -6 0q0 2 3 2t3 -2zM259 858q2 0 3 1q1 0 1.5 0.5t1.5 0.5h9q2 2 8.5 8t8.5 8q0 1 2 2.5t4 1.5l5 2.5t4 1.5q1 1 4.5 1.5t5.5 1.5q2 0 7 0.5t6 1.5h7q1 -1 6.5 -1.5
t7.5 -0.5q1 -1 4.5 -1.5t4.5 -1.5h2l2 -2q1 0 2.5 -1t2.5 -1h4q0 1 1 4t1 5q1 3 1.5 8t0.5 6q1 2 1 10t-1 10q0 1 -0.5 6.5t-1.5 7.5q0 1 -1 3.5t-1 4.5q-1 1 -1 2q-1 1 -1 2v-31q0 -1 -1 -6t-1 -7q-1 -2 -2.5 -7t-2.5 -7q0 5 -1 18.5t-1 18.5q0 2 -1 11t-1 11
q-1 -1 -2.5 -7t-2.5 -8q0 -2 -2 -8l-2 -6q-1 -2 -3.5 -6.5t-4.5 -7.5q0 -1 -1.5 -3t-2.5 -3q0 -1 -1 -1t-1 -1v4q0 1 0.5 5.5t1.5 9.5t1.5 9.5t0.5 5.5v6l-2 -2q-2 -2 -6.5 -10.5t-6.5 -10.5q-2 -1 -7.5 -10.5t-6.5 -11.5q-1 0 -1.5 -1.5t-1.5 -1.5v3q1 2 4 13.5t4 13.5v4
q-1 0 -1 -1t-1 -1q-2 -2 -8.5 -10t-8.5 -10q-1 -1 -4 -5t-6.5 -8.5t-6.5 -8.5t-4 -5l-1 -1q0 -1 -0.5 -1t-0.5 -1q1 2 2.5 7t3.5 7q0 1 1.5 5.5t2.5 6.5t3.5 8.5t3.5 7.5q1 3 3 6l2 4t1 3q1 0 1 1t-1 1h-3q-2 -3 -5 -6q-5 -5 -7 -9q-1 -2 -5 -7t-5 -7t-3.5 -7.5t-3.5 -6.5
l-3.5 -10.5t-2.5 -9.5v-9zM459 882l11.5 -11.5l12.5 -12.5l3 2q2 2 5 8.5t4 7.5q1 2 3.5 7.5t3.5 7.5q2 5 4 12.5t2 9.5q1 2 1 8.5t-1 8.5q0 -2 -1 -7t-2 -7q-2 -2 -6 -10.5t-6 -11.5q-1 -2 -5.5 -8.5t-6.5 -9.5l-1 -1q-1 -1 -1 -2q1 5 5.5 20t6.5 20q0 1 0.5 4.5t1.5 5.5v2
q-1 0 -1 -1t-1 -1q-2 -2 -7.5 -9t-7.5 -9q-1 -2 -3.5 -5.5t-3.5 -5.5q-2 0 -2.5 -1.5t-1.5 -1.5v3q2 3 6 12.5t5 11.5t2.5 6.5t2.5 5.5v3q-3 -3 -11.5 -10.5t-10.5 -9.5t-6.5 -5.5t-5.5 -4.5q-1 0 -1 1t1 1q0 1 1.5 4.5t3.5 5.5q1 0 3.5 4.5t3.5 5.5q0 2 1 3q0 1 1 2v3h-2
q-1 -1 -4.5 -3.5t-5.5 -4.5q-1 -1 -5.5 -4.5t-5.5 -4.5q-2 -1 -9.5 -6l-10.5 -7q-1 -1 -3 -1q-1 0 -2 -1q1 1 3.5 4.5t3.5 5.5q2 2 6.5 7t6.5 7v3l-2 -2q-1 -1 -2 -1q-2 -2 -6 -5t-5 -4q-4 -2 -13.5 -11.5t-11.5 -13.5h2q1 0 3.5 1.5t3.5 1.5t2 0.5t3 0.5t3 1q3 1 11 1
t10 -1q1 0 5 -1.5t6 -3.5l5 -2.5t5 -1.5q4 -2 7 -5zM272 871q2 0 2 -2t-2 -2t-2 2t2 2zM381 891h3q4 4 15.5 15t15.5 15q2 1 6 4.5t6 4.5q2 2 6.5 5t6.5 4t7 4t7 4q2 0 7.5 1.5t7.5 1.5l1 1q1 0 1 0.5t1 0.5q-2 1 -13.5 1t-14.5 -1q-2 -1 -4 -1t-4 -0.5t-3 -0.5
q-2 0 -9 -1.5t-9 -1.5q-1 -1 -5 -3l-6 -3t-9 -4t-9 -4q0 -1 -1 -1.5t-1 -1.5q0 -5 -1.5 -18.5t-1.5 -17.5v-3zM444 901q2 0 2 -2.5t-2 -2.5t-2 2.5t2 2.5z" />
    <glyph glyph-name="at" unicode="@" horiz-adv-x="804" 
d="M138 307q0 46 18.5 92t51.5 82.5t78 59t99 22.5h11.5t17.5 -0.5t17.5 -0.5h11.5q22 -17 35 -28.5t20.5 -24.5t10 -29t2.5 -40q0 -44 -19.5 -93.5t-53.5 -91t-80 -68.5t-99 -27q-35 0 -58.5 12t-37.5 32.5t-19.5 47t-5.5 55.5zM561 354q0 28 9.5 62.5t29 64t48 49.5
t67.5 20q17 0 33.5 -13t25.5 -24q0 -3 0.5 -9.5t1 -14.5t0.5 -14.5v-9.5q0 -31 -11 -63.5t-31.5 -59t-50.5 -43.5t-68 -17q-16 0 -26.5 7.5t-16.5 18t-8.5 23t-2.5 23.5zM33 525q0 21 8 43t23 40t36.5 29.5t47.5 11.5q31 0 38.5 -18.5t7.5 -42.5q0 -20 -7 -42t-20.5 -40
t-33.5 -30t-46 -12q-35 0 -44.5 17t-9.5 44zM497 586q0 3 -0.5 10.5t-1 16.5t-1 16.5t-0.5 10.5q0 30 11.5 62t32.5 57.5t50.5 42t66.5 16.5q43 0 55.5 -19.5t12.5 -56.5q0 -31 -10 -64.5t-30 -62t-50 -47t-70 -18.5q-21 0 -38 11t-28 25zM246 659v10t-0.5 14.5t-0.5 14.5
v10q0 30 11.5 60t33 55t51.5 40.5t66 15.5q23 0 36 -9.5t19 -24t7.5 -32t1.5 -33.5q0 -27 -10 -55.5t-29 -51.5t-46 -37.5t-61 -14.5q-26 0 -44.5 9t-34.5 29z" />
    <glyph glyph-name="exclam" unicode="!" horiz-adv-x="230" 
d="M78 686q2 16 11 24t20 8t19 -7.5t10 -23.5v-536q-4 -14 -12.5 -20.5t-18.5 -6.5q-9 0 -17.5 6t-11.5 20v536zM89 1q-23 11 -23 30q0 12 12 27.5t32 15.5q18 0 26 -14.5t8 -25.5q0 -20 -10.5 -29t-25.5 -9q-7 0 -19 5z" />
    <glyph glyph-name="quotedbl" unicode="&#x22;" horiz-adv-x="317" 
d="M62 672q2 16 11 24t20 8q15 0 22.5 -24t11 -58t4 -70t0.5 -61q-4 -14 -12.5 -20.5t-18.5 -6.5q-15 0 -23 23.5t-11 56.5t-3.5 68.5t-0.5 59.5zM195 655q2 16 11 24t20 8t19 -7.5t10 -23.5q0 -23 1.5 -56t-0.5 -64t-9.5 -52.5t-24.5 -21.5q-9 0 -17.5 6t-11.5 20
q0 42 1 83.5t1 83.5z" />
    <glyph glyph-name="numbersign" unicode="#" horiz-adv-x="520" 
d="M102 197q-15 2 -22.5 10t-7.5 19q0 9 5.5 17t17.5 13q14 2 28 3t28 3l3 18q5 35 8 69.5t6 69.5q-37 -1 -73 -6q-15 2 -22.5 10t-7.5 19q0 9 5.5 17t17.5 13q21 2 42.5 4t42.5 3q5 51 13 100t22 99q5 9 12.5 13.5t15.5 4.5q12 0 21 -9t8 -26q-13 -45 -20.5 -90t-12.5 -91
h42t42 -1q3 20 6.5 39t7.5 39q5 26 9.5 58t17.5 55q10 18 27 18q14 0 24 -12.5t3 -32.5q-4 -4 -9 -25.5t-10 -47.5t-8.5 -49.5t-4.5 -31.5q-1 -3 -1 -6t-1 -5q13 -1 26 -1h26q13 -4 19.5 -12.5t6.5 -18.5t-7 -18t-21 -11h-30.5t-30.5 1q-8 -37 -14.5 -73.5t-13.5 -73.5
q19 1 38 1h38q13 -4 19.5 -12.5t6.5 -18.5t-7 -18t-21 -11h-42t-42 -1q-3 -22 -3 -44t-4 -45q-3 -26 -10 -52t-12 -52q-9 -23 -29 -23q-8 0 -16.5 5t-13.5 16v1q-1 3 -0.5 6.5t0.5 6.5q1 0 1 1q0 2 1 4h-1q0 1 0.5 1t0.5 1q1 7 3 17t4 19.5t3.5 16.5t1.5 8q8 27 10 55t5 56
q-17 -1 -34 -1.5t-34 -1.5q-1 -7 -2 -13.5t-2 -13.5q-4 -20 -6.5 -42.5t-6 -46t-9.5 -45.5t-16 -41q-24 -29 -51 -2q0 2 -2 2q-6 11 -4.5 21.5t8.5 16.5q2 5 3 11t3 11q5 35 12 69t13 68q-10 -1 -19.5 -2t-19.5 -2zM225 421q-4 -39 -7 -77.5t-8 -77.5q17 2 34.5 2.5
t34.5 1.5q2 9 4 18.5t4 18.5v1q5 28 9.5 55.5t9.5 56.5q-20 0 -40.5 0.5t-40.5 0.5zM241 35q0 -3 -1 -5v1q0 2 1 4z" />
    <glyph glyph-name="dollar" unicode="$" horiz-adv-x="520" 
d="M239 775q5 9 12.5 13.5t15.5 4.5q12 0 21 -9t8 -26q-5 -20 -6 -39.5t1 -39.5h11.5t10.5 -1q17 -2 28.5 -5t21.5 -8t20 -11.5t23 -15.5q15 -11 15 -27q0 -15 -13 -24.5t-33 -0.5q-12 8 -18.5 13.5t-13.5 9t-15 5.5t-23 4h-9q1 -5 1 -15q1 -28 1 -55v-54v-54.5t-1 -54.5
q25 -12 48.5 -26.5t43 -33t32.5 -43.5t18 -58q3 -20 3 -38q0 -41 -13 -74t-35.5 -56t-53.5 -36t-67 -14q-2 -19 -1 -38t6 -40q-1 -16 -10 -24t-20 -8q-19 0 -29 20q-7 27 -7 57q0 10 0.5 19.5t1.5 18.5q-8 2 -14.5 4t-14.5 4q-37 12 -62 31t-42 53q-2 18 7 28t21 10
q16 0 28 -16q11 -22 27 -31.5t39 -17.5q5 -2 9 -3t9 -2q0 8 1 12q5 65 8.5 129.5t5.5 129.5v10q-25 11 -49 23t-45 27t-37 34.5t-24 46.5q-4 12 -4 29q0 8 0.5 15t0.5 15q0 26 13.5 47t35 37.5t48.5 27.5t54 17q-3 54 10 104zM379 216q-5 38 -28 63t-56 43q-2 -62 -5.5 -123
t-8.5 -123q-1 -4 -1 -11q51 5 79 43t20 108zM139 500q10 -32 37.5 -51.5t62.5 -36.5q1 25 1.5 50t0.5 51t-1 50.5t-3 49.5q-22 -5 -42.5 -14.5t-35.5 -23.5t-21 -32.5t1 -42.5z" />
    <glyph glyph-name="uni0025" unicode="%" horiz-adv-x="834" 
d="M46 369q-11 25 -11 61t9.5 77t26.5 76t41.5 58.5t54.5 24.5h3q9 5 18 8q3 0 10 -0.5t15.5 -2t16.5 -3.5t12 -5q19 -17 36 -39.5t30.5 -48.5t21.5 -54t8 -55q0 -25 -7 -45q-4 -14 -8 -27.5t-9 -27.5q-6 -16 -20 -29.5t-32.5 -23.5t-39 -16t-37.5 -6q-5 0 -15 2
q-21 5 -39.5 9t-34 11.5t-28 20t-22.5 35.5zM643 392q21 -3 28 -20q9 7 19 7q12 0 25 -11q20 -26 37 -54.5t28 -59.5q12 -36 12 -74q0 -32 -9 -62.5t-27 -54t-45.5 -37.5t-64.5 -14h-3q-20 1 -42.5 10t-38.5 15q-31 13 -44.5 48t-13.5 80q0 35 7.5 71.5t21 67.5t31.5 53.5
t40 30.5q8 3 21.5 3.5t17.5 0.5zM603 697q12 13 26 13q11 0 20 -8t9 -22q0 -3 -2 -11q-49 -85 -93.5 -172.5t-89.5 -174.5t-93 -172.5t-103 -166.5q-12 -9 -23 -9q-12 0 -20 8t-8 22q0 7 3 15q55 81 102 165t91.5 170t88.5 172.5t92 170.5zM229 365q24 11 34.5 37.5
t10.5 58.5q0 20 -4 41t-10.5 39.5t-16.5 34.5t-22 26q-8 -5 -20 -5q-7 2 -14 3.5t-14 3.5q-16 -10 -30.5 -28t-25.5 -40.5t-17.5 -47.5t-6.5 -48q0 -36 18.5 -61.5t64.5 -25.5q29 0 53 12zM668 330q-4 4 -6 10q-5 -5 -13 -8q-3 0 -6.5 0.5t-6.5 0.5t-9 -2q-14 -7 -26 -23
t-20.5 -37.5t-13.5 -46t-5 -48.5q0 -29 8 -52t25 -35q16 -11 30 -16t27 -5q32 0 51.5 27.5t24.5 65.5q1 6 1 11.5v11.5q0 42 -17.5 78t-43.5 68z" />
    <glyph glyph-name="ampersand" unicode="&#x26;" horiz-adv-x="593" 
d="M519 314q14 -2 21.5 -10.5t7.5 -18.5q0 -15 -12 -25l-2 -2q-7 -8 -8.5 -11t-6.5 -11q-9 -15 -17.5 -30.5t-18.5 -31.5l-4 -6l-4 -6q21 -29 34.5 -54.5t22.5 -59.5q6 -20 11 -39q2 -4 4 -12q0 -1 1 -2q0 -1 1 -1h-1q5 -6 5 -17t-8 -20t-22 -9q-4 0 -12 2q-14 7 -21 23
t-11.5 35.5t-8.5 38.5t-12 31q-6 9 -11.5 18.5t-11.5 18.5q-46 -44 -103 -72q-31 -16 -56 -24t-59 -16q-15 -3 -29 -3q-31 0 -59.5 11t-51 30.5t-36 46.5t-13.5 58v8q4 66 37 123.5t90 92.5q12 8 25 14.5l27 13.5q-10 16 -19.5 32.5t-17.5 34.5q-9 19 -13.5 40.5t-4.5 44.5
q0 29 6.5 58t19.5 55t31.5 47.5t41.5 35.5q40 24 72 24q30 0 52 -17t36.5 -44.5t21.5 -62t7 -68.5q0 -52 -15 -91q-17 -46 -53 -71.5t-79 -45.5q33 -42 71 -80t72 -78q7 13 15.5 30t18 32t22 26.5t27.5 13.5zM99 105q20 -23 45 -32.5t52 -9.5t55 8.5t54.5 22t50.5 31.5
t43 38q-21 26 -40.5 47t-45.5 50q-20 22 -37.5 43t-34.5 44q-38 -17 -71 -39t-53 -58q-4 -8 -9.5 -19.5t-10 -25.5t-8 -29.5t-3.5 -29.5q0 -12 3 -22.5t10 -18.5zM226 488q6 -18 14 -34.5t18 -32.5q34 16 64 37t50 56q6 11 9 27.5t3 36.5q0 19 -3 38.5t-9 36.5t-15 30.5
t-21 19.5q-14 6 -25 6q-23 0 -41 -19t-30.5 -45t-19 -52.5t-6.5 -41.5q1 -16 4 -31.5t8 -31.5z" />
    <glyph glyph-name="quotesingle" unicode="'" horiz-adv-x="180" 
d="M53 688q2 16 11 24t20 8t19 -7.5t10 -23.5q1 -57 3.5 -114.5t3.5 -114.5q-4 -14 -12.5 -20.5t-18.5 -6.5q-9 0 -17.5 6t-11.5 20q-1 57 -3.5 114.5t-3.5 114.5z" />
    <glyph glyph-name="parenleft" unicode="(" horiz-adv-x="226" 
d="M154 710q12 13 26 13q11 0 19.5 -8t8.5 -21q0 -10 -6 -20q-9 -14 -19.5 -26.5t-18.5 -27.5q-20 -38 -33 -85.5t-21 -99.5t-11.5 -107t-3.5 -109q0 -57 3 -109.5t8 -97.5q2 -21 9 -41t15 -40t14.5 -40t8.5 -42q-4 -14 -12.5 -20.5t-18.5 -6.5q-9 0 -17.5 6t-11.5 20
q-1 20 -7.5 39t-14.5 37.5t-15 37.5t-9 39q-4 35 -6.5 85t-2.5 108q0 63 3.5 129.5t12.5 128.5t23.5 114t35.5 85q11 15 21 29.5t20 29.5z" />
    <glyph glyph-name="parenright" unicode=")" horiz-adv-x="295" 
d="M57 685q-7 10 -7 21q0 12 8.5 20t20.5 8q14 0 25 -11q13 -13 26.5 -25t23.5 -26q24 -34 41 -76.5t27.5 -90.5t15 -98.5t4.5 -101.5q0 -70 -7.5 -135.5t-18.5 -118.5q-6 -26 -16 -49.5t-21 -47t-20 -47.5t-12 -50q-4 -14 -12.5 -20.5t-18.5 -6.5q-11 0 -19.5 8t-8.5 24v4
q3 27 12 51t19.5 47t21 46.5t16.5 49.5q11 50 18.5 113t7.5 131q0 46 -4 92.5t-13 90t-24 81.5t-37 68q-10 14 -23 25.5t-25 23.5z" />
    <glyph glyph-name="asterisk" unicode="*" horiz-adv-x="510" 
d="M119 681q-1 3 -1.5 5.5t-0.5 5.5q0 14 9 22t21 8q14 0 25 -11q21 -38 42.5 -74t43.5 -73q15 30 30 59t31 53q12 13 26 13q11 0 19.5 -8t8.5 -21q0 -10 -6 -20q-17 -26 -31.5 -54.5t-29.5 -58.5q39 -1 78 -1h79q15 -2 22.5 -10.5t7.5 -19.5t-8.5 -20.5t-25.5 -9.5h-73.5
t-73.5 1q20 -36 37 -72.5t33 -73.5v-6q0 -14 -9 -22.5t-20 -8.5q-16 0 -28 16q-15 35 -31 69.5t-34 68.5q-21 -37 -45 -69.5t-54 -56.5q-11 -8 -23 -8t-20 8t-8 19q0 13 10 24q26 21 47.5 50t41.5 64q-38 0 -76 0.5t-76 0.5q-15 1 -23 9.5t-8 19.5q0 10 7 19t21 12
q39 0 78 -0.5t77 -0.5q-23 38 -45.5 75.5t-44.5 76.5z" />
    <glyph glyph-name="plus" unicode="+" horiz-adv-x="582" 
d="M28 237q-13 5 -18.5 13t-5.5 17q0 10 7 18.5t21 11.5q59 -1 117 -2t118 -3q-2 60 -3 119.5t-1 119.5q2 16 11 24t20 8t19 -7.5t10 -23.5q0 -61 1 -121t3 -120q103 -3 206 -3q7 3 15 3q12 0 20 -8t8 -20q0 -10 -6 -20q-10 -10 -26 -13t-33 -3t-32 1.5t-26 1.5
q-32 0 -62.5 0.5t-61.5 1.5q2 -66 3 -130.5t2 -130.5q-4 -14 -12.5 -20.5t-18.5 -6.5q-9 0 -17.5 6t-11.5 20q-1 66 -2 131.5t-3 131.5q-61 2 -121 2.5t-120 1.5z" />
    <glyph glyph-name="comma" unicode="," horiz-adv-x="207" 
d="M77 62q2 16 11 24t20 8t19 -7.5t10 -23.5q-2 -65 -23 -115.5t-65 -97.5q-11 -8 -23 -8t-20 8t-8 19q0 13 10 24q35 38 51 77.5t18 91.5z" />
    <glyph glyph-name="hyphen" unicode="-" horiz-adv-x="307" 
d="M16 222q-17 0 -25.5 9t-8.5 20q0 10 7 19t21 12h290q15 -2 22.5 -10.5t7.5 -19.5t-8.5 -20.5t-25.5 -9.5h-280z" />
    <glyph glyph-name="slash" unicode="/" horiz-adv-x="343" 
d="M276 724q5 11 13 16.5t16 5.5q11 0 19.5 -8t8.5 -22q0 -7 -1 -11q-55 -149 -104 -298t-80 -306q-3 -17 -10.5 -32.5t-15.5 -30.5t-14.5 -30.5t-8.5 -32.5q-4 -14 -12.5 -20.5t-18.5 -6.5q-11 0 -19.5 8t-8.5 24v4q2 18 9 33.5t14.5 30.5l15 30t10.5 32q32 159 81.5 310.5
t105.5 303.5z" />
    <glyph glyph-name="colon" unicode=":" horiz-adv-x="207" 
d="M52 37q-1 3 -1.5 5.5t-0.5 5.5q0 11 6 18.5t14 10.5q6 12 16 19.5t21 7.5q8 0 16 -4t16 -14q10 -13 10 -27q0 -5 -1 -8q2 -4 2 -12q0 -12 -7 -21.5t-18 -14.5q-8 -16 -27 -16q-11 0 -21 7q-14 14 -16 30q-5 4 -9 13zM109 352q-8 -3 -14 -3q-14 0 -21.5 9.5t-7.5 20.5
q-7 8 -7 20q0 23 19 36q10 16 30 16q22 0 32 -11.5t10 -26.5q0 -14 -7 -25q-3 -25 -28 -33z" />
    <glyph glyph-name="semicolon" unicode=";" horiz-adv-x="207" 
d="M82 83q5 11 13 16.5t16 5.5q11 0 19.5 -8t10.5 -23q-4 -21 -13 -52.5t-21 -63t-27 -59.5t-31 -41q-11 -8 -23 -8t-20 8t-8 19q0 13 10 24q11 9 23 33t22.5 52t18 55t10.5 42zM51 399q-2 4 -2 12q0 7 2 11v5q0 22 15.5 40t37.5 18q15 0 27 -9q14 -11 20 -22t6 -22
q3 -8 3 -15q0 -18 -14 -32.5t-35 -14.5q-7 0 -11 1h-2q-4 -1 -11 -1q-12 0 -21.5 6.5t-14.5 22.5z" />
    <glyph glyph-name="less" unicode="&#x3c;" horiz-adv-x="596" 
d="M482 532q3 1 9 1q14 0 22 -8.5t8 -19.5q0 -16 -15 -27q-31 -14 -56.5 -36t-49 -46t-48 -47.5t-54.5 -40.5q-21 -12 -43 -23t-43 -24l-4 -2l-6 -3q25 -21 67.5 -42.5t87.5 -44t86 -45.5t63 -48q4 -9 4 -16q0 -8 -2 -13q-2 -6 -4 -9q-10 -17 -27 -17q-11 0 -19 7.5
t-10 20.5q-26 24 -58 39.5t-63 31.5q-24 13 -48.5 24.5t-48.5 24.5l-24 15l-24 15q-31 20 -44 35t-13 27q0 16 19 28.5t49 29.5q36 20 70 38.5t63 47.5q19 18 36.5 36t36 35t39 31t44.5 25z" />
    <glyph glyph-name="equal" unicode="=" horiz-adv-x="596" 
d="M544 329q-127 0 -252.5 1.5t-252.5 1.5q-17 0 -25.5 9t-8.5 20q0 10 7 19t21 12q130 0 258 -1.5t257 -1.5q15 -2 22.5 -10.5t7.5 -19.5t-8.5 -20.5t-25.5 -9.5zM529 149q-124 0 -246.5 -1.5t-246.5 -1.5q-17 0 -25.5 9t-8.5 20q0 10 7 19t21 12q127 0 252 1.5t251 1.5
q15 -2 22.5 -10.5t7.5 -19.5t-8.5 -20.5t-25.5 -9.5z" />
    <glyph glyph-name="greater" unicode="&#x3e;" horiz-adv-x="596" 
d="M28 465q-15 12 -15 27q0 11 8 20t21 9q8 0 18 -5q51 -33 101.5 -67t103 -62.5t108.5 -49t118 -25.5q11 -1 19 -8q14 0 21.5 -8.5t7.5 -19.5q0 -9 -5.5 -17.5t-17.5 -13.5q-14 -6 -26 -15t-24 -19t-23.5 -20.5t-24.5 -18.5q-83 -54 -168 -102.5t-175 -91.5q-8 -3 -14 -3
q-13 0 -21 9t-8 20q0 8 4.5 15.5t14.5 12.5q88 42 170.5 89t163.5 100q13 8 24.5 18t23.5 21q-57 11 -109 32.5t-101.5 49.5t-97.5 59.5t-97 63.5z" />
    <glyph glyph-name="question" unicode="?" horiz-adv-x="406" 
d="M258 632q-8 4 -20 4q-14 0 -31 -5.5t-33.5 -13.5t-31 -18.5t-24.5 -20.5q1 -3 1.5 -5.5t0.5 -5.5q0 -11 -8.5 -20t-24.5 -9q-18 5 -26 14t-8 21q0 23 20 43q13 14 32.5 28.5t41 26t45 18.5t46.5 7q22 0 41.5 -8t35.5 -26q15 -17 25.5 -42.5t11.5 -47.5v-9
q0 -41 -14.5 -70.5t-35 -55.5t-42 -53t-34.5 -63q-3 -8 -3 -18q0 -13 3.5 -28t7.5 -30t8 -29.5t5 -26.5q-4 -14 -12.5 -20.5t-18.5 -6.5q-9 0 -17.5 6t-11.5 20q-2 20 -5 36t-7 30t-6.5 27t-2.5 27q0 17 5 35.5t19 43.5q10 19 28 38t34.5 38.5t29 41t12.5 45.5q0 4 -0.5 8
t-1.5 9q-1 6 -3.5 15.5t-6.5 19.5t-10 18.5t-14 11.5zM185 55q3 11 10.5 16.5t16.5 6.5q8 4 19 4q17 0 30.5 -9t13.5 -26q0 -2 -0.5 -3.5t-0.5 -3.5q-3 -14 -12 -25.5t-23 -17.5q-7 -4 -13.5 -5t-11.5 -1q-17 0 -25.5 12.5t-8.5 28.5q0 11 5 23z" />
    <glyph glyph-name="bracketleft" unicode="[" horiz-adv-x="284" 
d="M62 119q3 131 7.5 260t7.5 260q-4 8 -4 13q0 18 20 28q23 7 47 11.5t48 4.5t47.5 -5.5t45.5 -17.5q11 -11 11 -24q0 -12 -8.5 -20.5t-22.5 -8.5q-4 0 -12 2q-27 14 -61 14q-13 0 -26 -2t-26 -5q-3 -128 -7 -254.5t-7 -254.5q-1 -30 -1.5 -63t-0.5 -66v-39t2 -37
q14 -2 28.5 -3t28.5 -1t28.5 0.5t28.5 0.5q15 -2 22.5 -10.5t7.5 -19.5t-8.5 -20.5t-25.5 -9.5q-14 0 -28.5 -0.5t-28.5 -0.5q-24 0 -48 2.5t-46 12.5q-8 6 -11 10.5t-5 13.5q-3 27 -4 54.5t-1 54.5q0 30 0.5 60.5t1.5 59.5z" />
    <glyph glyph-name="backslash" unicode="\" horiz-adv-x="284" 
d="M38 634q-13 5 -18.5 13t-5.5 17q0 10 7 18.5t21 11.5q31 -1 61.5 -6.5t61.5 -7.5q4 10 12 15t16 5q11 0 19 -8t10 -23q-1 -178 -4 -354.5t-4 -354.5q-1 -1 -1 -3q14 -8 14 -25q0 -9 -5.5 -17.5t-17.5 -13.5q-33 -11 -73 -10t-75 -1q-17 0 -25.5 9t-8.5 20q0 10 7 19
t21 12h19h40h24t23 2q-2 4 -2 7q1 166 3.5 330.5t4.5 330.5q-31 3 -61.5 8t-62.5 6z" />
    <glyph glyph-name="bracketright" unicode="]" horiz-adv-x="596" 
d="M126 213q-10 -17 -26 -17q-12 0 -21 8.5t-9 22.5q0 6 3 14q24 60 53 116t55 114q14 29 26.5 58.5t26.5 58.5q10 20 25.5 36.5t35.5 16.5q14 0 31 -12q19 -14 35.5 -40t31.5 -56t28 -60t25 -52q13 -23 26.5 -46.5t25 -47.5t20 -49.5t11.5 -52.5v-4q0 -16 -9 -24t-20 -8
q-9 0 -17.5 6t-12.5 19q-4 32 -15.5 61.5t-26.5 58t-32 56t-31 55.5q-16 32 -32 67t-39 62q-17 -31 -30.5 -64.5t-29.5 -66.5q-26 -57 -55 -113.5t-53 -116.5z" />
    <glyph glyph-name="asciicircum" unicode="^" horiz-adv-x="500" 
d="M-10 -125q-17 0 -25.5 9t-8.5 20q0 10 7 19t21 12h511q15 -2 22.5 -10.5t7.5 -19.5t-8.5 -20.5t-25.5 -9.5h-501z" />
    <glyph glyph-name="braceleft" unicode="{" horiz-adv-x="284" 
d="M219 705q3 1 9 1q14 0 21.5 -8.5t7.5 -19.5q0 -9 -5.5 -17.5t-17.5 -13.5q-9 -2 -18.5 -2.5t-17.5 -5.5q-21 -11 -27 -36.5t-6 -54.5q0 -17 1 -32.5t1 -26.5q1 -15 1 -30.5v-31.5q0 -42 -7.5 -79.5t-35.5 -66.5q4 -2 7.5 -3.5t7.5 -3.5q22 -14 29.5 -39t7.5 -55
q0 -37 -6 -77.5t-6 -75.5q0 -28 7 -48q7 -19 19.5 -28t27 -15t30 -11.5t28.5 -17.5q11 -11 11 -24q0 -12 -8.5 -20.5t-21.5 -8.5q-10 0 -21 8q-8 8 -18.5 11.5t-21.5 7.5q-32 11 -49.5 27.5t-31.5 46.5q-8 17 -10.5 35.5t-2.5 38.5q0 26 3.5 52t5.5 49q0 -2 -1 -9t-1 -12
q2 15 4.5 34.5t2.5 38.5q0 26 -8 41l-12 1t-28 4t-32 9t-24 15q-7 10 -7 21q0 18 19 27q4 1 15 3t20 4q2 2 7.5 6.5t11.5 10t11 11t8 10.5q8 14 10.5 29t2.5 30q0 8 -0.5 15t-0.5 15q-1 26 -3 52t-2 52q0 43 11 81.5t47 70.5q11 10 26.5 11t29.5 4z" />
    <glyph glyph-name="bar" unicode="|" horiz-adv-x="239" 
d="M88 749q2 16 11 24t20 8t19 -7.5t10 -23.5q0 -251 2 -498t2 -498v-2q0 -1 -1 -2q-1 -6 -5 -11l-2 -2q-3 -4 -7 -7q-2 0 -2 -1l-9 -3h-6q-4 0 -10 2q-4 2 -6 4q-5 2 -6 6q-4 4 -6 13q0 251 -2 499t-2 499z" />
    <glyph glyph-name="braceright" unicode="}" horiz-adv-x="284" 
d="M16 649q-16 0 -25 9t-9 21q0 8 4 15.5t15 12.5q5 2 11 3t11 1q11 0 21.5 -3.5t21.5 -8.5q31 -13 50 -27.5t29.5 -30.5t14 -33t3.5 -35q0 -21 -2.5 -43.5t-2.5 -46.5q0 -19 3 -39t11 -41q7 -19 20 -31t27 -19.5t27.5 -11.5t21.5 -7q19 -10 19 -28q0 -9 -6 -17t-17 -13
q-27 -1 -43 -11t-25 -26.5t-12 -38t-3 -44.5t1.5 -45.5t1.5 -42.5q0 -24 -3 -55.5t-13 -60.5t-29 -51t-51 -28q-15 -3 -30 -5t-30 -5q-17 0 -25.5 9t-8.5 20q0 10 7 19t21 12q13 2 23.5 2.5t19 3t16.5 7t17 14.5q19 20 24 52.5t5 70.5q0 20 -0.5 40t-0.5 40q0 47 8 89t40 67
q-27 21 -48 52t-24 62q-1 4 -1 8v9q0 20 2 46.5t2 52.5q0 29 -5 53.5t-20 34.5q-14 9 -27 13.5t-27 10.5h-3q-2 0 -3 -0.5t-4 -1.5z" />
    <glyph glyph-name="asciitilde" unicode="~" horiz-adv-x="596" 
d="M83 219q-4 -14 -12.5 -20.5t-18.5 -6.5q-11 0 -19.5 8t-8.5 24v4q6 26 26 53.5t47.5 50t59 37t61.5 14.5q29 0 52 -16q13 -10 29 -30l32 -40t31.5 -36t27.5 -17h4q23 0 42 13.5t35.5 33t30.5 40t28 35.5q12 5 19 5q13 0 20.5 -7.5t7.5 -19.5q0 -11 -6 -21
q-16 -17 -34 -41t-39 -46.5t-45 -38t-52 -15.5q-5 0 -9.5 0.5t-9.5 1.5q-33 7 -55.5 29.5t-40.5 46.5t-36 43t-43 19q-17 0 -37.5 -10.5t-47.5 -35.5q-14 -13 -24 -25.5t-15 -31.5z" />
    <glyph glyph-name="zero" unicode="0" 
 />
    <glyph glyph-name="one" unicode="1" 
 />
    <glyph glyph-name="two" unicode="2" 
 />
    <glyph glyph-name="three" unicode="3" 
 />
    <glyph glyph-name="four" unicode="4" 
 />
    <glyph glyph-name="five" unicode="5" 
 />
    <glyph glyph-name="six" unicode="6" 
 />
    <glyph glyph-name="seven" unicode="7" 
 />
    <glyph glyph-name="eight" unicode="8" 
 />
    <glyph glyph-name="nine" unicode="9" 
 />
    <glyph glyph-name="exclamdown" unicode="&#xa1;" horiz-adv-x="230" 
d="M78 686q2 16 11 24t20 8t19 -7.5t10 -23.5v-536q-4 -14 -12.5 -20.5t-18.5 -6.5q-9 0 -17.5 6t-11.5 20v536zM89 1q-23 11 -23 30q0 12 12 27.5t32 15.5q18 0 26 -14.5t8 -25.5q0 -20 -10.5 -29t-25.5 -9q-7 0 -19 5z" />
    <glyph glyph-name="cent" unicode="&#xa2;" horiz-adv-x="432" 
 />
    <glyph glyph-name="sterling" unicode="&#xa3;" horiz-adv-x="546" 
 />
    <glyph glyph-name="currency" unicode="&#xa4;" 
 />
    <glyph glyph-name="yen" unicode="&#xa5;" horiz-adv-x="679" 
 />
    <glyph glyph-name="brokenbar" unicode="&#xa6;" 
 />
    <glyph glyph-name="section" unicode="&#xa7;" 
 />
    <glyph glyph-name="dieresis" unicode="&#xa8;" 
 />
    <glyph glyph-name="endash" unicode="&#x2013;" 
 />
    <glyph glyph-name="emdash" unicode="&#x2014;" 
 />
    <glyph glyph-name="tilde" unicode="&#x2dc;" 
 />
    <glyph glyph-name="quoteleft" unicode="&#x2018;" 
 />
    <glyph glyph-name="quoteright" unicode="&#x2019;" 
 />
    <glyph glyph-name="quotedblleft" unicode="&#x201c;" 
 />
    <glyph glyph-name="quotedblright" unicode="&#x201d;" 
 />
    <glyph glyph-name="onequarter" unicode="&#xbc;" horiz-adv-x="2009" 
d="M1109 724q5 11 13 16.5t16 5.5q11 0 19.5 -8t8.5 -22q0 -7 -1 -11q-55 -149 -104 -298t-80 -306q-3 -17 -10.5 -32.5t-15.5 -30.5t-14.5 -30.5t-8.5 -32.5q-4 -14 -12.5 -20.5t-18.5 -6.5q-11 0 -19.5 8t-8.5 24v4q2 18 9 33.5t14.5 30.5l15 30t10.5 32
q32 159 81.5 310.5t105.5 303.5z" />
    <glyph glyph-name="onehalf" unicode="&#xbd;" horiz-adv-x="2009" 
d="M1109 724q5 11 13 16.5t16 5.5q11 0 19.5 -8t8.5 -22q0 -7 -1 -11q-55 -149 -104 -298t-80 -306q-3 -17 -10.5 -32.5t-15.5 -30.5t-14.5 -30.5t-8.5 -32.5q-4 -14 -12.5 -20.5t-18.5 -6.5q-11 0 -19.5 8t-8.5 24v4q2 18 9 33.5t14.5 30.5l15 30t10.5 32
q32 159 81.5 310.5t105.5 303.5z" />
    <glyph glyph-name="threequarters" unicode="&#xbe;" horiz-adv-x="2009" 
d="M1109 724q5 11 13 16.5t16 5.5q11 0 19.5 -8t8.5 -22q0 -7 -1 -11q-55 -149 -104 -298t-80 -306q-3 -17 -10.5 -32.5t-15.5 -30.5t-14.5 -30.5t-8.5 -32.5q-4 -14 -12.5 -20.5t-18.5 -6.5q-11 0 -19.5 8t-8.5 24v4q2 18 9 33.5t14.5 30.5l15 30t10.5 32
q32 159 81.5 310.5t105.5 303.5z" />
  </font>
</defs>
</svg>
